<?xml version="1.0" standalone="no"?>
<!DOCTYPE svg PUBLIC "-//W3C//DTD SVG 1.1//EN" "http://www.w3.org/Graphics/SVG/1.1/DTD/svg11.dtd" >
<svg xmlns="http://www.w3.org/2000/svg" xmlns:xlink="http://www.w3.org/1999/xlink" version="1.1">
<metadata>
Created by FontForge 20170731 at Mon Jun 19 19:26:24 2017
 By Aleksey,,,
Copyright (c) 2017 NEXON-Maplestory. All rights reserved. Font designed by FONTRIX Inc.
</metadata>
<defs>
<font id="MaplestoryLight" horiz-adv-x="900" >
  <font-face 
    font-family="Maplestory"
    font-weight="300"
    font-stretch="normal"
    units-per-em="1000"
    panose-1="2 0 3 0 0 0 0 0 0 0"
    ascent="800"
    descent="-200"
    x-height="486"
    cap-height="678"
    bbox="-22.8 -254 923.385 803"
    underline-thickness="50"
    underline-position="-200"
    unicode-range="U+0020-FFE6"
  />
<missing-glyph horiz-adv-x="800" 
d="M700 -100h-600v800h600v-800zM650 -50v700h-500v-700h500z" />
    <glyph glyph-name=".notdef" horiz-adv-x="800" 
d="M700 -100h-600v800h600v-800zM650 -50v700h-500v-700h500z" />
    <glyph glyph-name="glyph1" horiz-adv-x="0" 
 />
    <glyph glyph-name="glyph2" 
 />
    <glyph glyph-name="space" unicode=" " horiz-adv-x="265" 
 />
    <glyph glyph-name="exclam" unicode="!" horiz-adv-x="292" 
d="M178 164q-10 -11 -44 -10q-24 1 -35.5 13.5t-12.5 47.5q-2 63 -2.5 115.5t-0.5 103.5t0.5 103.5t0.5 115.5q0 28 11 40t48 12q20 0 32 -3.5t18 -10t7.5 -16t1.5 -21.5q-1 -75 -1.5 -135t-1.5 -112.5t-3 -100.5t-5 -99q-2 -32 -13 -43zM203 2q0 -28 -19 -47t-48 -19
q-28 0 -47 19t-19 47q0 29 19 48t47 19q29 0 48 -19t19 -48z" />
    <glyph glyph-name="quotedbl" unicode="&#x22;" horiz-adv-x="478" 
d="M159 548q-12 -14 -36 -14t-35 14.5t-13 49.5q-2 26 -2.5 52.5t-1.5 52.5q-1 28 9 45t47 17q18 0 28.5 -4.5t15.5 -12.5t5.5 -19.5t0.5 -25.5q-1 -26 -1.5 -52.5t-2.5 -52.5q-2 -35 -14 -50zM387 548q-12 -14 -36 -14t-35 14.5t-13 49.5q-2 26 -2.5 52.5t-1.5 52.5
q-1 28 9 45t47 17q18 0 28.5 -4.5t15.5 -12.5t5.5 -19.5t0.5 -25.5q-1 -26 -1.5 -52.5t-2.5 -52.5q-2 -35 -14 -50z" />
    <glyph glyph-name="numbersign" unicode="#" horiz-adv-x="795" 
d="M607 146q-30 -1 -59 -3q-11 -44 -21 -81t-18 -63q-9 -30 -30 -40.5t-41 -4.5q-8 3 -14 5t-9 7t-3 14.5t3 26.5q5 29 12 62t15 71q-45 -2 -90 -2.5t-92 -2.5q-11 -42 -19.5 -76.5t-16.5 -59.5q-9 -30 -27.5 -40.5t-38.5 -4.5q-8 3 -15 5t-11 7t-4.5 14.5t2.5 26.5
q5 27 11.5 59t14.5 67q-17 -1 -33 -1h-33q-28 -1 -37.5 4.5t-9.5 32.5q0 26 8.5 37t34.5 12q23 1 45 1.5t45 1.5q12 54 24.5 108t25.5 108q-24 -1 -48 -1.5t-48 -0.5q-28 -1 -37.5 4.5t-9.5 32.5q0 26 8.5 37t34.5 12q32 1 62 2t59 2q8 33 15 64t13 57q6 28 21.5 40t44.5 12
q33 0 39.5 -13t0.5 -38q-7 -28 -13.5 -58t-14.5 -62q46 2 90.5 2.5t89.5 1.5q8 32 14.5 60.5t12.5 54.5q6 28 19 40t42 12q33 0 42 -13t3 -38q-6 -26 -12.5 -55t-14.5 -60q17 1 34 1h34q22 0 35 -5.5t13 -31.5q0 -30 -13.5 -36.5t-35.5 -7.5q-22 -2 -43 -2.5t-43 -1.5
q-13 -56 -26 -111t-26 -108h48.5t50.5 1q22 0 35 -5.5t13 -31.5q0 -30 -13.5 -36.5t-35.5 -7.5q-29 -2 -59 -3zM282 224q91 1 180 3q12 54 25 108.5t26 108.5q-45 -2 -89.5 -3t-90.5 -2q-13 -54 -26 -109t-25 -106z" />
    <glyph glyph-name="dollar" unicode="$" horiz-adv-x="669" 
d="M384 671q56 -8 103.5 -27.5t78.5 -45.5q26 -22 33 -46.5t-16 -47.5q-11 -10 -21 -13.5t-19.5 -1.5t-19 9t-21.5 18q-20 20 -50.5 36t-67.5 25q-1 -31 -1.5 -60t-0.5 -58.5t-0.5 -61t-0.5 -67.5q19 -8 36.5 -14.5t34.5 -12.5q82 -33 117.5 -76.5t31.5 -107.5
q-3 -38 -20.5 -65.5t-47.5 -45.5t-70.5 -27t-88.5 -10q0 -11 -0.5 -21t-0.5 -18q-2 -30 -14 -40t-34 -8q-23 2 -30 13t-8 45q0 8 -0.5 16.5t-0.5 17.5q-61 10 -111 33.5t-74 56.5q-17 23 -20.5 41.5t19.5 37.5q33 23 67 -10q50 -45 118 -64v97.5t-1 106.5q-26 10 -49.5 19
t-43.5 18q-72 32 -104.5 82.5t-20.5 118.5q11 63 64.5 106.5t153.5 53.5v55q0 29 9.5 37.5t41.5 8.5q28 0 38.5 -10t10.5 -39v-54zM284 586q-101 -6 -116 -75q-9 -41 6 -70.5t49 -44.5q14 -6 29 -12.5t32 -14.5v217zM377 146q0 -46 -1 -88q55 0 87 14.5t37 44.5
q4 29 -11.5 54.5t-55.5 45.5q-12 6 -25.5 11.5t-28.5 11.5q-1 -48 -2 -94z" />
    <glyph glyph-name="percent" unicode="%" horiz-adv-x="821" 
d="M762 63q-12 -30 -33.5 -50.5t-50 -31.5t-59.5 -12q-28 -1 -55 8.5t-49 29t-36 48.5t-15 67q-2 38 9.5 69.5t31.5 54.5t48 36.5t61 15.5t62.5 -9t51.5 -32.5t34.5 -52.5t12.5 -70q0 -40 -13 -71zM622 40q27 2 43 30.5t15 68.5q-1 41 -21 64t-45 22q-26 -1 -42 -28t-16 -67
t19 -66t47 -24zM229 -19q-8 -9 -17 -13.5t-19.5 -3.5t-25.5 8q-14 6 -21 12.5t-7.5 14.5t4.5 18.5t15 25.5q25 36 59 87t73 108.5t79.5 119t78 118t69 105.5t52.5 82q7 12 13.5 20.5t14 12.5t17.5 3.5t25 -5.5q34 -12 37 -27.5t-11 -36.5q-26 -41 -62.5 -97t-77.5 -117
t-83.5 -124t-80.5 -118.5t-68.5 -100t-46.5 -69.5q-9 -14 -17 -23zM345 439q-12 -30 -33.5 -50.5t-50 -31.5t-59.5 -12q-28 -1 -55 8.5t-49 29t-36 48.5t-15 67q-2 38 9.5 69.5t31.5 54.5t48 36.5t61 15.5t62.5 -9t51.5 -32.5t34.5 -52.5t12.5 -70q0 -40 -13 -71zM205 416
q27 2 43 30.5t15 68.5q-1 41 -21 64t-45 22q-26 -1 -42 -28t-16 -67t19 -66t47 -24z" />
    <glyph glyph-name="ampersand" unicode="&#x26;" horiz-adv-x="673" 
d="M198 340q-15 18 -33 38.5t-32.5 44t-23 50.5t-4.5 57q4 32 20.5 61t43 50.5t62 34t76.5 11.5q38 -1 71 -11.5t58.5 -30t41 -48t17.5 -64.5t-11.5 -66.5t-37 -57t-54 -49t-63.5 -40.5l68 -76t69 -74q26 40 45.5 81.5t32.5 88.5q5 20 9.5 33.5t11 21.5t16 10.5t24.5 -0.5
q19 -3 28 -10.5t11.5 -18t0.5 -23t-6 -25.5q-20 -70 -46 -122.5t-63 -99.5q14 -14 29 -27.5t30 -27.5q20 -18 27 -37t-17 -39q-21 -18 -33.5 -14.5t-26.5 17.5q-17 16 -33.5 32t-33.5 33q-49 -45 -100.5 -65.5t-109.5 -22.5q-49 -1 -87 12.5t-65 38t-42 57.5t-17 71
q-2 28 4.5 56.5t23.5 55.5t46 50.5t73 42.5v1zM328 193q-41 45 -79 88q-51 -26 -80.5 -58t-27.5 -66q2 -52 37 -84.5t86 -34.5q32 -2 72.5 16t75.5 50q-43 45 -84 89zM360 438q19 18 31.5 36.5t13.5 38.5q2 42 -25 67t-78 24q-49 -1 -78 -23.5t-29 -54.5q0 -27 21.5 -64
t60.5 -83q21 12 43 27t40 32z" />
    <glyph glyph-name="quotesingle" unicode="'" horiz-adv-x="258" 
d="M165 548q-13 -14 -37 -14t-36.5 14.5t-14.5 49.5q-2 26 -2.5 52.5t-1.5 52.5q-1 28 10.5 45t48.5 17q18 0 29 -4.5t16.5 -12.5t6.5 -19.5t1 -25.5q-1 -26 -1.5 -52.5t-2.5 -52.5q-2 -35 -16 -50z" />
    <glyph glyph-name="parenleft" unicode="(" horiz-adv-x="354" 
d="M306 -120q-5 -10 -20 -18q-27 -14 -44 -3t-36 33q-26 29 -50.5 72.5t-43.5 98t-30.5 118t-11.5 132.5q0 68 12.5 131.5t32.5 118t45.5 98t51.5 72.5q20 22 37.5 32t42.5 -2q17 -8 23 -17.5t4.5 -20t-7.5 -21.5t-13 -22q-27 -41 -50.5 -83t-40.5 -87.5t-27 -95t-10 -103.5
q0 -110 34 -199.5t88 -170.5q7 -11 12.5 -22t6 -21.5t-5.5 -19.5z" />
    <glyph glyph-name="parenright" unicode=")" horiz-adv-x="354" 
d="M149 -108q-10 -11 -18.5 -19.5t-17.5 -13.5t-20 -4.5t-24 7.5q-15 8 -20.5 17.5t-5 20t6 21.5t12.5 22q54 81 88 170.5t34 199.5q0 54 -10 103.5t-27 95t-40.5 87.5t-50.5 83q-7 11 -13 22t-7.5 21.5t4.5 20t23 17.5q25 12 42.5 2t37.5 -32q26 -29 51.5 -72.5t45.5 -98
t32.5 -118t12.5 -131.5q0 -69 -11.5 -132.5t-30.5 -118t-43.5 -98t-50.5 -72.5z" />
    <glyph glyph-name="asterisk" unicode="*" horiz-adv-x="472" 
d="M358 496q-25 1 -47 3q14 -19 31 -42t26 -34q14 -17 11.5 -31.5t-26.5 -28.5q-21 -13 -34.5 -12t-26.5 23q-5 8 -11.5 23t-14.5 33t-16 36.5t-14 34.5q-6 -16 -14 -34.5t-16 -36.5t-15 -33t-11 -23q-13 -22 -26.5 -23t-34.5 12q-24 14 -26.5 28.5t11.5 31.5q9 11 26 34
t31 42q-22 -2 -47.5 -2.5t-39.5 -1.5q-24 -2 -34 6.5t-9 35.5q1 21 9.5 29.5t37.5 6.5q20 -2 41.5 -2t48.5 -3q-17 20 -31.5 40.5t-26.5 37.5q-16 22 -10.5 34.5t27.5 23.5q26 12 39 12t23 -20q4 -8 10 -22.5t13 -30.5t13 -32t11 -28q4 12 10.5 28t13.5 32t13 30.5t10 22.5
q10 20 23 20t39 -12q22 -11 27.5 -23.5t-10.5 -34.5q-12 -17 -26.5 -37.5t-31.5 -40.5q27 3 48.5 3t41.5 2q29 2 37.5 -6.5t9.5 -29.5q1 -27 -9 -35.5t-34 -6.5q-14 1 -40 1z" />
    <glyph glyph-name="plus" unicode="+" horiz-adv-x="535" 
d="M100 292q-14 0 -26 1t-20.5 6t-13.5 15t-5 28q0 31 17.5 38.5t43.5 8.5q30 1 61 1.5t63 1.5v141q0 28 9.5 40t46.5 12q33 0 41.5 -13t7.5 -38q-1 -40 -1 -75t-1 -67h68t65 -1q22 -1 35 -9t13 -33q0 -21 -4 -31t-10.5 -14t-16 -4t-20.5 -1q-27 -2 -60.5 -3t-70.5 -2
q-1 -39 -2.5 -74t-4.5 -70q-3 -32 -13 -44.5t-37 -11.5q-24 1 -31 11.5t-8 45.5q-2 38 -2.5 72.5t-1.5 68.5h-122z" />
    <glyph glyph-name="comma" unicode="," horiz-adv-x="246" 
d="M169 -98q-25 -49 -65 -80q-17 -14 -27.5 -12t-17.5 11q-5 6 -5.5 13.5t10.5 16.5q13 11 28 28t21 32q5 14 2.5 25t-18.5 15q-17 4 -28 20.5t-11 38.5q0 27 17.5 44t49.5 19t51 -17t19 -51q0 -55 -26 -103z" />
    <glyph glyph-name="hyphen" unicode="-" horiz-adv-x="519" 
d="M268 394q84 2 168 -3q22 -2 35 -9.5t13 -32.5q0 -21 -4 -31t-10.5 -13.5t-16 -4t-20.5 -1.5q-35 -4 -78 -5.5t-88 -1.5h-88.5h-78.5q-14 0 -26 1t-20.5 6t-13.5 15t-5 28q0 31 17.5 38.5t43.5 8.5q88 3 172 5z" />
    <glyph glyph-name="period" unicode="." horiz-adv-x="252" 
d="M195 -8q0 -29 -20 -49t-50 -20q-29 0 -49 20t-20 49q0 30 20 50t49 20q30 0 50 -20t20 -50z" />
    <glyph glyph-name="slash" unicode="/" horiz-adv-x="308" 
d="M136 491q15 82 26 145q4 28 14.5 40t42.5 12q36 0 44 -13t3 -38q-15 -75 -33 -164.5t-35 -176.5t-33 -163t-26 -123q-7 -32 -19.5 -45.5t-44.5 -10.5q-16 1 -24.5 5t-11.5 11.5t-2 19t5 28.5q13 62 29.5 142.5t33 165t31.5 165.5z" />
    <glyph glyph-name="zero" unicode="0" horiz-adv-x="675" 
d="M546 55q-40 -45 -94.5 -69.5t-114.5 -26.5t-113.5 20t-94.5 67t-65 112.5t-24 156.5q0 80 20.5 146t59 114t93.5 76.5t124 33.5q67 5 122 -18.5t94 -71.5t60.5 -119t21.5 -161q0 -84 -24 -149.5t-65 -110.5zM410 69q36 18 62.5 52t42 84t15.5 118q0 70 -15.5 122.5
t-42 86t-61.5 49t-74 12.5q-86 -6 -139 -75.5t-53 -200.5q0 -70 15.5 -121t41.5 -83.5t60 -48t71 -13.5q41 1 77 18z" />
    <glyph glyph-name="one" unicode="1" horiz-adv-x="432" 
d="M342 685q33 -6 35 -33q2 -60 3 -136.5t1.5 -158t-0.5 -161t-2 -145.5q0 -22 -0.5 -38.5t-5 -28t-15.5 -18t-34 -7.5q-24 -1 -34 4.5t-13 17.5t-2 30t0 41q-2 54 -3 121t-1.5 136t-1.5 136t-2 122q-12 -8 -34.5 -21.5t-48 -28.5t-50.5 -28.5t-41 -22.5q-17 -9 -31.5 -7
t-25.5 19q-9 14 -9 32.5t11 26.5q18 12 45.5 30t57.5 37.5t58 37t46 29.5q20 13 42.5 16t54.5 -2z" />
    <glyph glyph-name="two" unicode="2" horiz-adv-x="607" 
d="M563 49q1 -29 -14 -40t-38 -15q-47 -7 -91 -12.5t-89 -9t-92.5 -6t-101.5 -3.5q-32 -1 -45 12t-16 38q-3 23 7 42t24 34q4 5 19.5 18t37.5 31.5t47.5 40t50.5 42.5t46.5 39.5t35.5 31.5q49 47 85 90t39 87q4 59 -36 93t-131 30q-30 -1 -57.5 -13.5t-50 -31.5t-38.5 -42.5
t-23 -46.5q-7 -26 -20.5 -34.5t-42.5 -0.5q-25 7 -31 21.5t-2 35.5q6 32 25 66t52.5 63.5t80.5 50t109 26.5q57 5 106.5 -7t85.5 -38.5t56.5 -66t20.5 -88.5q0 -60 -29.5 -112.5t-87.5 -106.5q-24 -23 -59.5 -54t-72.5 -61.5t-70.5 -57.5t-53.5 -42q34 3 77 7.5t86.5 9
t83.5 8.5t67 5q22 1 35.5 -5.5t14.5 -27.5z" />
    <glyph glyph-name="three" unicode="3" horiz-adv-x="601" 
d="M421 218q-36 29 -96 35q-6 0 -24 1t-38.5 2.5t-38.5 2.5t-24 1q-23 1 -33.5 9t-10.5 31q0 45 44 46q38 2 70.5 2.5t42.5 2.5q28 2 55 13t48 27t34.5 35.5t14.5 40.5q3 59 -44.5 95t-131.5 33q-26 -1 -51.5 -11.5t-46.5 -25.5t-36 -32t-21 -32q-11 -28 -26.5 -35.5
t-43.5 3.5q-28 9 -31 30.5t12 55.5q9 24 30 48t53 43.5t74.5 32t95.5 14.5q58 1 107.5 -13t85 -40.5t55.5 -64t20 -82.5q0 -72 -41 -118.5t-104 -63.5q31 -4 56.5 -18t44 -35t28.5 -47.5t10 -56.5q0 -42 -20.5 -78t-55 -62.5t-81 -41t-98.5 -14.5q-51 0 -94.5 13.5
t-76.5 35.5t-54 49t-28 53q-12 44 26 59q22 8 34.5 2.5t23.5 -25.5q25 -45 70.5 -70t106.5 -26q32 0 59 8.5t46.5 23t30 33.5t10.5 40q-1 43 -38 71z" />
    <glyph glyph-name="four" unicode="4" horiz-adv-x="664" 
d="M537 171q-35 -1 -69 -3q-2 -20 -3 -42.5t-1.5 -43.5t-1 -40t-1.5 -32q-2 -35 -13 -45.5t-39 -10.5q-26 0 -34 13t-8 45v33t0.5 39.5t0.5 41v37.5q-33 -2 -66 -3.5t-61.5 -3t-51 -2t-35.5 -0.5q-48 0 -77 27t-28 75q0 34 2.5 80t6 96t7.5 100.5t8 93.5q5 49 51 49
q34 0 44 -11t8 -39q0 -4 -2 -29.5t-4.5 -63t-5 -80.5t-5 -81t-4 -65t-1.5 -32q0 -17 5.5 -21.5t22.5 -3.5q9 0 33.5 0.5t53.5 1l58 1t46 1.5q4 91 7 190.5t9 184.5q2 26 11 39t44 13q18 0 28 -3.5t14.5 -10.5t5.5 -17.5t1 -24.5q0 -18 -1.5 -56.5t-3.5 -88.5t-5.5 -107
t-6.5 -112q35 1 69.5 2t51.5 1q19 0 28 -4t9 -31q0 -33 -10 -42t-28 -11q-23 -2 -59 -4z" />
    <glyph glyph-name="five" unicode="5" horiz-adv-x="567" 
d="M145 362q14 13 34 24.5t43 20t48.5 13.5t51.5 4q44 -1 81.5 -17.5t64.5 -46.5t42 -73t13 -96q-2 -51 -20 -94t-49 -73.5t-74.5 -47.5t-95.5 -17q-38 0 -74 8.5t-66 23.5t-51.5 35t-31.5 44q-11 27 -8 46t27 33q18 11 31.5 9t24.5 -24q7 -15 21.5 -30t34.5 -27.5t45 -20
t53 -6.5q32 1 57 13.5t42 33.5t25.5 49.5t8.5 60.5q-1 57 -32 93t-90 36q-34 0 -61 -8t-47 -17.5t-32 -18.5t-15 -12q-16 -11 -32.5 -15t-30.5 -0.5t-23 14t-9 28.5q0 20 -0.5 62t-1 92t-1 100.5t-0.5 88.5q0 26 29 27q59 2 107 3.5t94.5 3t97.5 2t116 0.5q15 0 25 -8.5
t9 -31.5q-1 -27 -9.5 -35.5t-28.5 -10.5q-36 -3 -81 -5t-91 -4t-90 -3.5t-78 -3.5z" />
    <glyph glyph-name="six" unicode="6" horiz-adv-x="600" 
d="M531 90q-23 -43 -60.5 -72t-86 -43t-102.5 -12q-58 2 -105.5 22t-80.5 57.5t-50 91t-12 122.5q3 52 19 111t38.5 114.5t49 102.5t50.5 77q14 19 32.5 26t45.5 -5q20 -8 25 -24t-11 -39q-12 -19 -31 -52.5t-38 -70.5t-35.5 -71t-23.5 -54q30 38 83 56t110 15q50 -3 91 -21
t69.5 -49.5t42.5 -77t9 -103.5q-5 -57 -29 -101zM402 92q25 19 40.5 47.5t17.5 64.5q3 38 -8.5 66.5t-33 47t-52.5 27.5t-68 8q-31 0 -60 -10t-51.5 -28t-37 -44t-16.5 -57q-2 -36 9 -64.5t31 -48.5t47.5 -32t57.5 -13q35 -2 67.5 7.5t56.5 28.5z" />
    <glyph glyph-name="seven" unicode="7" horiz-adv-x="537" 
d="M489 678q9 -7 7 -19q-20 -184 -42.5 -344t-48.5 -297q-7 -38 -21 -50.5t-43 -8.5q-15 2 -23 6t-11.5 11.5t-3 20t2.5 31.5q5 36 11.5 82.5t13.5 98.5t14.5 106t14 104t12 93.5t8.5 75.5q-9 0 -33.5 -0.5t-57 -1t-69 -1.5t-68 -2t-54.5 -1.5t-29 -0.5q-38 0 -35 54
q1 39 40 40q65 3 112.5 5t90 3.5t87 2t103.5 0.5q14 0 22 -8z" />
    <glyph glyph-name="eight" unicode="8" horiz-adv-x="638" 
d="M86 227q28 40 73 63q-20 8 -41.5 24.5t-39 38.5t-29.5 49.5t-13 58.5q-2 53 19 94t59.5 69.5t91.5 44t115 17.5q59 2 111 -12.5t90.5 -43.5t60 -70t19.5 -91q-1 -32 -12 -60t-29 -51t-41.5 -39.5t-48.5 -23.5q22 -7 43 -21t36.5 -33t25 -42t9.5 -48q0 -48 -21 -84.5
t-57.5 -60.5t-84.5 -36.5t-102 -12.5q-51 0 -99 10.5t-85.5 33t-59.5 58t-20 85.5q2 43 30 83zM248 352q32 -9 69 -7q41 1 74 12.5t56.5 28.5t36.5 38.5t13 43.5q0 30 -13 54t-37 41t-57.5 25.5t-73.5 7.5q-85 -3 -130.5 -40t-44.5 -94q0 -25 14 -47t37.5 -38t55.5 -25z
M441 84q40 33 40 74q0 45 -39.5 76.5t-122.5 28.5q-40 -2 -69 -12t-48.5 -25t-29.5 -33.5t-12 -36.5q-4 -54 40 -83t121 -26q81 4 120 37z" />
    <glyph glyph-name="nine" unicode="9" horiz-adv-x="605" 
d="M478 -15q-8 -21 -29.5 -26.5t-48.5 5.5q-20 8 -21 22t7 41q6 19 14 50t16 64.5t15.5 65t12.5 51.5q-30 -36 -83 -56t-110 -18q-45 1 -86.5 20t-71.5 53t-45 81.5t-9 106.5q6 57 30.5 102t61.5 76t84.5 46t101.5 14q58 -2 105.5 -23.5t80.5 -60.5t49.5 -94.5t12.5 -124.5
q-3 -53 -13.5 -110.5t-23.5 -111.5t-26.5 -99.5t-23.5 -73.5zM412 316q23 20 37.5 47t16.5 59q2 36 -9 66t-31.5 52t-47.5 35t-57 15q-35 2 -67 -9t-57 -32t-40.5 -51t-17.5 -66q-2 -38 9 -68t33 -50t52.5 -30.5t67.5 -10.5q31 0 60 11.5t51 31.5z" />
    <glyph glyph-name="colon" unicode=":" horiz-adv-x="246" 
d="M189 146q0 -28 -19 -47t-48 -19q-28 0 -47 19t-19 47q0 29 19 48t47 19q29 0 48 -19t19 -48zM189 516q0 -28 -19 -47t-48 -19q-28 0 -47 19t-19 47q0 29 19 48t47 19q29 0 48 -19t19 -48z" />
    <glyph glyph-name="semicolon" unicode=";" horiz-adv-x="246" 
d="M189 516q0 -28 -19 -47t-48 -19q-28 0 -47 19t-19 47q0 29 19 48t47 19q29 0 48 -19t19 -48zM164 48q-24 -46 -62 -76q-16 -13 -26.5 -11t-16.5 10q-5 6 -5.5 13.5t9.5 15.5q13 11 27.5 27t19.5 31q5 14 2.5 24t-17.5 14q-17 4 -27 20t-10 36q0 26 17 42.5t47 18.5
q31 2 49 -16t18 -49q0 -53 -25 -100z" />
    <glyph glyph-name="less" unicode="&#x3c;" horiz-adv-x="429" 
d="M384 -107q-6 -12 -22 -20q-25 -13 -40 -9t-30 27q-18 28 -47 72.5t-60.5 94.5t-61.5 99.5t-50 87.5q-9 17 -16 35.5t-7 32.5t7 32.5t16 35.5q20 38 51 87.5t63.5 99.5t62.5 94.5t48 72.5q15 23 30 27.5t40 -9.5q16 -9 22 -20t5 -23t-7 -24.5t-13 -23.5q-26 -41 -56 -86.5
t-60 -92t-57 -90.5t-46 -80q19 -36 45 -80t54.5 -90.5t58 -92.5t55.5 -86q7 -11 13 -23.5t7 -24.5t-5 -23z" />
    <glyph glyph-name="equal" unicode="=" horiz-adv-x="515" 
d="M480 418q-4 -9 -10.5 -13t-16 -3.5t-20.5 -0.5q-35 -3 -78 -4t-88 -1.5t-88.5 -1t-78.5 -0.5q-14 0 -26 0.5t-20.5 5t-13.5 14.5t-5 28q0 31 17.5 38.5t43.5 8.5q88 3 172 3.5t168 -1.5q22 -1 35 -9t13 -33q0 -21 -4 -31zM480 188q-4 -10 -10.5 -14t-16 -4t-20.5 -1
q-35 -3 -78 -4t-88 -1.5t-88.5 -1t-78.5 -0.5q-14 0 -26 1t-20.5 6t-13.5 15t-5 28q0 15 4.5 24t13 13.5t19.5 6t24 1.5q88 3 172 3.5t168 -1.5q22 -1 35 -8t13 -32q0 -21 -4 -31z" />
    <glyph glyph-name="greater" unicode="&#x3e;" horiz-adv-x="429" 
d="M137 -109q-15 -23 -30 -27t-40 9q-17 8 -22.5 19.5t-4.5 23.5t7 24.5t13 23.5q26 40 55.5 86t58 92.5t54.5 90.5t45 80q-19 36 -46 80t-57 90.5t-60 92t-56 86.5q-7 11 -13 23.5t-7 24.5t5 23t22 20q25 14 40 9.5t30 -27.5q18 -28 48 -72.5t62.5 -94.5t63.5 -99.5
t51 -87.5q9 -17 16 -35.5t7 -32.5t-7 -32.5t-16 -35.5q-20 -38 -50 -87.5t-61.5 -99.5t-60.5 -94.5t-47 -72.5z" />
    <glyph glyph-name="question" unicode="?" horiz-adv-x="578" 
d="M315 164q-8 -16 -40 -16q-30 0 -38.5 14t-8.5 35t5 44t19 48t38.5 54t62.5 62q10 9 21.5 21.5t21 28.5t15 34t4.5 36q-3 49 -38 73t-88 16q-32 -5 -54.5 -18t-37 -31.5t-20.5 -41t-3 -46.5q4 -32 -7 -41t-36 -15q-22 -5 -37.5 4t-22.5 38q-8 35 1.5 75t35.5 75.5
t68.5 60.5t101.5 30q57 5 102 -6.5t75.5 -36.5t46.5 -62.5t16 -84.5q0 -35 -13.5 -65t-34.5 -57.5t-47 -52.5t-51 -48q-23 -22 -36 -45.5t-13 -44.5t-8 -37zM343 -4q0 -28 -19 -47t-48 -19q-28 0 -47 19t-19 47q0 29 19 48t47 19q29 0 48 -19t19 -48z" />
    <glyph glyph-name="at" unicode="@" horiz-adv-x="862" 
d="M529 455q9 -12 11 -24q3 9 5.5 18t5.5 18q4 11 10 15.5t13.5 4.5t15.5 -2.5t16 -4.5q13 -3 18 -15.5t3 -20.5q-12 -58 -24 -118.5t-26 -122.5q-4 -17 -1.5 -26.5t21.5 -12.5t39 7.5t37.5 31t30 48.5t15.5 59q9 75 -10 133.5t-57.5 98.5t-93 59.5t-116.5 18.5
q-63 -1 -117 -24.5t-94 -65.5t-64 -101t-27 -132q-3 -72 19 -132.5t62.5 -103.5t94 -66.5t113.5 -21.5q41 1 74.5 8t60.5 17.5t48 23.5t38 26q14 11 29.5 10t28.5 -16q17 -20 13 -33.5t-19 -27.5q-21 -18 -51 -33.5t-65.5 -27.5t-75 -19.5t-79.5 -8.5q-82 -1 -153.5 25
t-123.5 77.5t-81 127.5t-27 175q2 85 32.5 157.5t83.5 126t124.5 85.5t155.5 35q81 3 154.5 -23.5t126 -79t78 -127.5t12.5 -169q-9 -63 -40.5 -105.5t-72.5 -66t-85 -29.5t-77 4q-14 5 -24 20.5t-12 34.5q-18 -31 -50 -48.5t-77 -13.5q-37 3 -65.5 23t-46.5 52.5t-23 74
t4 87.5q9 42 28 74.5t45.5 54.5t57.5 32t63 7q19 -2 36.5 -9t31.5 -17t23 -22zM339 373q-13 -23 -17 -56q-5 -32 -0.5 -59.5t15.5 -47t28 -30t37 -9.5q15 1 32 8t32.5 21.5t27 37t16.5 53.5q10 63 -7 96t-55 43q-20 5 -40.5 0.5t-38 -19t-30.5 -38.5z" />
    <glyph glyph-name="A" unicode="A" horiz-adv-x="637" 
d="M557 169q24 -76 43 -136q6 -22 4 -41.5t-27 -27.5q-29 -8 -44 -3t-25 37q-11 32 -22.5 69.5t-24.5 77.5q-28 -1 -66 -2.5t-77.5 -3t-78 -3t-68.5 -2.5q-12 -38 -23 -72t-20 -64q-10 -33 -25 -37.5t-44 3.5q-25 8 -27 27.5t4 41.5q19 61 43.5 137.5t51 157t52.5 160
t50 148.5q10 27 27.5 40t57.5 13t57.5 -13t27.5 -40q24 -69 51 -149.5t53 -161t50 -156.5zM260 409q-30 -93 -59 -183q52 3 115 5.5t116 4.5q-28 86 -58 177.5t-56 175.5q-28 -87 -58 -180z" />
    <glyph glyph-name="B" unicode="B" horiz-adv-x="639" 
d="M586 160q-4 -97 -69.5 -149.5t-174.5 -56.5q-26 -1 -55 -1h-56.5t-51 1t-38.5 2q-39 4 -60.5 25t-23.5 62q-3 68 -3 145t1 155t3 152t4 137q1 21 10.5 32.5t26.5 13.5q27 3 60.5 5t68 3.5t67.5 1.5h58q125 -2 186.5 -55t61.5 -138q0 -40 -11 -69.5t-28.5 -50.5t-40 -33.5
t-46.5 -18.5q22 -8 43 -22t36.5 -35t24 -47.5t7.5 -58.5zM157 405q-1 -32 -1 -47q23 -1 49 -1t51.5 0.5t49 2t41.5 2.5q67 5 110 38.5t44 88.5q0 39 -16.5 61.5t-43.5 33.5t-60 14t-66 3q-20 0 -42 -0.5t-42.5 -2t-38 -3t-29.5 -2.5q-1 -17 -2 -50t-2 -69t-2 -69zM153 45
q15 0 40 -1t53 -1.5t55 -0.5t45 1q66 5 103 37t37 84q0 63 -34 89.5t-105 26.5h-42t-54 -1t-54.5 -2t-43.5 -3v-229z" />
    <glyph glyph-name="C" unicode="C" horiz-adv-x="709" 
d="M614 168q19 4 39 -8q24 -17 24 -37t-13 -42q-14 -25 -40 -47.5t-61 -40t-78.5 -28.5t-92.5 -13q-73 -3 -136.5 18t-111 66t-74.5 114.5t-27 164.5q0 78 23.5 144.5t68.5 116.5t110.5 79.5t148.5 33.5q45 2 85 -6t72.5 -22t56.5 -33t38 -38q15 -23 16 -39t-21 -35
q-17 -14 -38 -15.5t-38 18.5q-13 16 -30.5 30.5t-39.5 25t-46.5 17t-51.5 5.5q-53 -2 -98.5 -23t-78.5 -58t-51.5 -88.5t-18.5 -113.5q0 -68 18 -119t50 -85.5t75.5 -51t94.5 -14.5q31 1 61.5 9t56.5 21.5t45.5 30.5t30.5 36q14 23 32 27z" />
    <glyph glyph-name="D" unicode="D" horiz-adv-x="667" 
d="M587 165q-30 -68 -80.5 -115.5t-118 -72.5t-142.5 -25h-40t-28 0.5t-21.5 1.5t-19.5 2q-35 5 -55 26.5t-21 59.5q-2 151 -1.5 297t6.5 298q2 40 29 43q50 5 103.5 7t105.5 0q74 -3 132.5 -30.5t99.5 -76t62 -114.5t20 -145q-1 -87 -31 -156zM155 107v-63q8 -2 22 -2.5
t29 -0.5t29.5 0.5t24.5 1.5q53 4 99.5 24t81.5 55.5t55.5 84.5t21.5 112q1 61 -13.5 111t-43 86t-70 57t-93.5 23q-34 2 -67.5 0t-67.5 -3q0 -12 -0.5 -52.5t-1.5 -95t-2 -117t-2 -119.5t-2 -102z" />
    <glyph glyph-name="E" unicode="E" horiz-adv-x="566" 
d="M449 365q17 0 28.5 -5.5t11.5 -30.5q0 -29 -12 -37t-30 -9q-24 -2 -59.5 -3t-76 -2t-82 -2t-76.5 -2v-201q0 -14 5 -19t19 -5q30 0 70 1t81 1.5t81 1.5t70 2q14 0 26.5 -5t14.5 -25q3 -30 -9 -40t-34 -12q-42 -4 -86.5 -7t-87 -4.5t-80.5 -2.5t-67 -1q-45 0 -72 28.5
t-28 75.5q-1 67 -1 142.5t0.5 152t2 151.5t2.5 141q0 13 6.5 22t17.5 9q101 2 199 4t205 2q24 0 31.5 -8t7.5 -31q0 -28 -9.5 -36.5t-28.5 -9.5q-36 -1 -78.5 -2.5t-85.5 -2.5t-85.5 -2t-78.5 -2q-2 -59 -3 -115t-3 -115z" />
    <glyph glyph-name="F" unicode="F" horiz-adv-x="567" 
d="M164 472q-1 -64 -3 -126q87 2 162.5 2t130.5 -1q17 0 28.5 -6.5t11.5 -31.5q0 -29 -12 -37t-30 -9q-23 -2 -58 -3t-75 -1.5t-81.5 -1.5t-77.5 -1q-1 -73 -2.5 -135.5t-3.5 -102.5q-2 -30 -14 -48t-39 -18q-24 0 -34.5 13.5t-10.5 50.5q0 159 1 316.5t3 316.5q0 13 7 22
t17 9q97 2 201.5 4t207.5 2q24 0 31.5 -8.5t7.5 -31.5q0 -28 -9.5 -37t-28.5 -10q-36 -1 -78.5 -2.5t-85.5 -2.5t-85.5 -2t-78.5 -2q-1 -54 -2 -118z" />
    <glyph glyph-name="G" unicode="G" horiz-adv-x="766" 
d="M689 552q0 -23 -17 -34q-23 -17 -42 -13.5t-39 27.5q-26 32 -71.5 49.5t-112.5 16.5q-58 -1 -106 -23.5t-82 -61t-53 -89t-19 -107.5q0 -66 17.5 -117t50 -86t79 -53.5t104.5 -18.5q60 0 106 17.5t75.5 49t42 75.5t6.5 97q-20 -1 -49 -3.5t-61.5 -5t-63.5 -5.5t-55 -4
q-21 -2 -31.5 13t-12.5 36q-2 24 8.5 34.5t25.5 12.5q35 3 76.5 6.5t83 6t80.5 4.5t69 2q10 0 15 -4.5t7 -17.5q16 -95 1 -169.5t-56.5 -126t-108.5 -79t-154 -29.5q-81 -2 -147 19.5t-113 66.5t-73 114.5t-26 162.5q0 79 25.5 146.5t73 117t114 78.5t148.5 31
q101 2 172 -23.5t103 -72.5q11 -17 10 -40z" />
    <glyph glyph-name="H" unicode="H" horiz-adv-x="672" 
d="M427 366q44 2 77 4q1 65 2 130.5t3 136.5q1 28 12.5 40t43.5 12q55 0 54 -55q-3 -165 -7 -322t-14 -309q-2 -29 -17 -41t-36 -10q-23 2 -33 16.5t-10 47.5v132.5t1 126.5q-34 -1 -76 -2t-87 -2.5t-89.5 -3.5t-81.5 -4q0 -60 0.5 -120.5t0.5 -126.5q0 -33 -10 -47.5
t-33 -16.5q-21 -2 -36 10t-17 41q-10 149 -14 309.5t-7 321.5q-1 55 54 55q32 0 43.5 -12t12.5 -40q2 -75 3 -143l2 -136q34 1 78.5 2.5t91 3t89.5 2.5z" />
    <glyph glyph-name="I" unicode="I" horiz-adv-x="462" 
d="M280 321q-2 -134 -8 -266q21 1 42.5 1h42.5q15 0 23 -7.5t9 -30.5q1 -27 -8.5 -38.5t-27.5 -12.5q-124 -7 -260 -9q-37 0 -37 45q0 23 7.5 33t24.5 11q23 2 44.5 2.5t44.5 1.5v139t-0.5 152t-0.5 140t1 104q-27 -1 -54 -1h-53q-37 0 -37 44t32 45q35 1 78.5 2.5t88.5 3
t88 2t76 0.5q15 0 23 -7t9 -30q1 -27 -8.5 -39t-27.5 -13q-25 -2 -51.5 -3t-55.5 -2q-2 -133 -5 -267z" />
    <glyph glyph-name="J" unicode="J" horiz-adv-x="511" 
d="M453 366q-3 -121 -10 -224q-5 -43 -22.5 -78.5t-45.5 -60.5t-66 -38.5t-84 -12.5q-42 1 -77 15t-61 38t-41 57.5t-16 72.5q-1 25 8 39.5t33 18.5q51 7 55 -34q8 -50 38 -80.5t68 -31.5q21 0 40.5 6t34.5 18t24.5 30.5t9.5 43.5q2 63 2.5 139t1.5 149q1 65 1 118.5t1 83.5
q1 26 13.5 40t45.5 14q19 0 30 -3.5t15.5 -10.5t5.5 -16.5t1 -22.5q-2 -149 -5 -270z" />
    <glyph glyph-name="K" unicode="K" horiz-adv-x="641" 
d="M170 16q0 -33 -10 -47.5t-33 -16.5q-21 -2 -36 10t-17 41q-8 149 -13 309.5t-8 321.5q-1 55 54 55q32 0 43.5 -12t12.5 -40q2 -91 3.5 -174t2.5 -167l59 59l67.5 67.5l69.5 69.5t66 66.5t56 57.5t41 43q22 23 38.5 26.5t32.5 -12.5q23 -23 22 -42t-22 -42
q-51 -52 -103.5 -105t-106.5 -106q21 -40 47 -85t53 -91t52.5 -91t45.5 -84q11 -20 5 -40.5t-35 -31.5q-25 -9 -39 1.5t-28 30.5q-17 27 -40.5 68t-49 84.5t-50 86t-42.5 72.5q-71 -68 -138 -132v-150z" />
    <glyph glyph-name="L" unicode="L" horiz-adv-x="550" 
d="M517 36q5 -50 -32 -55q-29 -3 -70.5 -7t-86 -7t-87 -6t-73.5 -4q-44 -2 -67.5 20t-25.5 61q-8 147 -13 291.5t-8 304.5q-1 55 54 55q32 0 43 -12t12 -40q1 -73 2.5 -143t3.5 -140t4 -140.5t5 -144.5q0 -15 14 -15q30 1 66 3t73.5 4t74 4.5t67.5 4.5q41 3 44 -34z" />
    <glyph glyph-name="M" unicode="M" horiz-adv-x="852" 
d="M520 144q-16 -33 -27 -55q-11 -17 -28 -24.5t-37 -7.5q-19 0 -36 7.5t-25 23.5q-23 42 -51 96t-57 112t-56 114.5t-46 102.5q3 -52 5 -118t4 -134.5t3.5 -133.5t1.5 -114q0 -17 -1.5 -28.5t-6.5 -18t-13.5 -10t-23.5 -4.5q-29 -2 -39.5 9.5t-12.5 43.5q-3 52 -7 129
t-7 163.5t-5 175t-2 162.5q0 25 7.5 37.5t28.5 15.5q15 3 31 3t30.5 -3t25.5 -10t17 -19q21 -44 52.5 -109t65.5 -134.5t66 -134.5t54 -110q22 43 51.5 105t60.5 129t61.5 133t54.5 118q6 10 12.5 17t17 11t25.5 5t37 -1q26 -2 37 -15.5t11 -36.5q0 -74 -2 -161.5
t-5.5 -174.5t-7 -164.5t-6.5 -130.5q-2 -32 -12.5 -44t-40.5 -9q-29 3 -36.5 14.5t-7.5 46.5q0 48 2 112.5t4 134.5t4.5 139.5t3.5 126.5q-11 -27 -27 -64t-34.5 -78t-38.5 -84t-39 -83t-36 -73z" />
    <glyph glyph-name="N" unicode="N" horiz-adv-x="672" 
d="M512 633q2 26 12.5 41.5t42.5 14.5q19 0 29.5 -3.5t15.5 -10.5t6 -17.5t1 -24.5q0 -47 -0.5 -102t-2 -113t-3.5 -116.5t-4 -113t-4.5 -102.5t-4.5 -84q-1 -16 -6.5 -25.5t-14 -15t-18.5 -7.5t-20 -2q-44 -2 -61 22q-15 22 -39 62t-53 89.5t-61 105.5t-62.5 109.5t-57 102
t-45.5 83.5q-2 -42 -3 -109.5t-2 -141t-2.5 -143t-2.5 -115.5q-2 -29 -12 -47.5t-42 -17.5q-17 0 -26 4t-13.5 12t-6 19.5t-1.5 28.5q-2 71 -2 155t1 169t2 164.5t3 141.5q1 23 14 32t44 11q29 2 49 -5t28 -20q22 -41 49 -90t56 -101.5t59 -106t58 -102t52 -90.5t42 -72z
" />
    <glyph glyph-name="O" unicode="O" horiz-adv-x="775" 
d="M704 164q-27 -67 -74 -113.5t-110 -71.5t-133 -27q-72 -2 -134.5 21t-109 69t-73.5 114.5t-27 158.5q0 79 24.5 145.5t69.5 115.5t108.5 78.5t141.5 34.5q76 4 139.5 -20.5t109.5 -73.5t71 -120.5t25 -159.5q0 -84 -28 -151zM476 64q45 18 78.5 52.5t53 86t19.5 120.5
q0 61 -16.5 112.5t-47.5 88t-75.5 56t-100.5 17.5q-60 -2 -104.5 -24.5t-74.5 -60t-45 -87.5t-15 -108q0 -70 20 -122t52.5 -86t75 -50.5t87.5 -14.5q49 2 93 20z" />
    <glyph glyph-name="P" unicode="P" horiz-adv-x="654" 
d="M68 -28q-8 20 -10 62q-2 72 -2.5 148.5t-0.5 153t0.5 152.5t2.5 147q2 40 34 43q27 2 59 4t65.5 3.5t67.5 2t66 0.5q123 -2 193 -60t72 -173q1 -67 -17.5 -115.5t-53.5 -80.5t-83.5 -48t-106.5 -18q-20 -1 -45.5 -1.5t-52.5 -0.5h-53t-47 2q-1 -35 -0.5 -77t-1.5 -73
q-1 -20 -3 -36.5t-7 -28.5t-15 -19t-26 -7q-26 0 -35 20zM154 350v-67q18 -2 45.5 -2.5t56 -0.5t54.5 0.5t42 2.5q32 3 60.5 13t50.5 28t34.5 46t13.5 67q1 43 -10.5 73.5t-32.5 49.5t-51 28t-66 10h-42.5t-53 -1t-53.5 -2t-43 -3q-1 -27 -2 -69t-1.5 -86.5t-1.5 -86.5z" />
    <glyph glyph-name="Q" unicode="Q" horiz-adv-x="775" 
d="M245 653q64 30 142 36q76 3 139.5 -21.5t109.5 -73.5t71 -120t25 -159q0 -112 -46 -191t-121 -123q72 -7 111.5 -28.5t55.5 -47.5q10 -18 10 -39t-17 -35t-39 -11.5t-37 19.5q-29 32 -62.5 56.5t-68.5 29.5q-31 5 -66.5 6t-67.5 1q-71 0 -133.5 23t-108.5 69t-72.5 113.5
t-26.5 157.5q0 79 24.5 145t69.5 115t108 78zM476 64q45 18 78.5 52.5t53 86t19.5 120.5q0 61 -16.5 112.5t-47.5 88t-75.5 56t-100.5 17.5q-60 -2 -104.5 -24.5t-74.5 -60t-45 -87.5t-15 -108q0 -70 20 -122t52.5 -86t75 -50.5t87.5 -14.5q49 2 93 20z" />
    <glyph glyph-name="R" unicode="R" horiz-adv-x="643" 
d="M577 329q-30 -52 -84 -81q11 -28 24 -62.5t25 -67.5t21.5 -60t14.5 -40q3 -10 5 -20.5t0.5 -19.5t-8.5 -15.5t-21 -9.5q-24 -5 -38 3.5t-22 24.5q-3 6 -14 33.5t-25 64t-29 74.5t-26 65q-56 -7 -120 -7.5t-124 2.5q-1 -18 -1 -41v-46.5v-45.5t-1 -37q-1 -20 -3 -36.5
t-7 -28.5t-15 -19t-26 -7q-26 0 -34.5 20t-10.5 62q-2 72 -2.5 148.5t-0.5 153.5t0.5 153t2.5 147q2 40 34 43q54 4 119.5 7t128.5 2q123 -2 192.5 -56.5t72.5 -166.5q2 -83 -28 -136zM154 367v-64q18 -2 43.5 -2.5t52.5 -0.5t51.5 1t40.5 2q32 3 60.5 12t50.5 26t34.5 42.5
t13.5 63.5q1 41 -10.5 70t-32.5 47t-51 26t-66 8q-46 0 -91 -1t-91 -4q-1 -27 -2 -66t-1.5 -80t-1.5 -80z" />
    <glyph glyph-name="S" unicode="S" horiz-adv-x="631" 
d="M380 326q31 -12 58 -22q84 -34 121 -79t33 -111q-3 -41 -23 -72t-54 -51t-79.5 -30t-98.5 -10q-42 0 -82 7.5t-75 20.5t-62 31t-43 39q-17 23 -20.5 42.5t19.5 39.5q18 12 34 9.5t35 -19.5q40 -36 91 -56.5t105 -22.5q64 -2 102 17.5t43 52.5q5 29 -11 56t-58 48
q-25 12 -56.5 24.5t-65.5 25t-66.5 24.5t-58.5 24q-75 33 -108.5 85t-20.5 122q6 36 25 66t51 52t78 35t106 15q39 1 76 -4.5t70.5 -16.5t61.5 -26t49 -33q26 -22 33.5 -48t-16.5 -49q-23 -20 -41.5 -15t-41.5 28q-32 32 -85 52.5t-117 20.5q-63 0 -97.5 -19.5t-43.5 -59.5
q-9 -42 6.5 -72.5t50.5 -45.5q24 -11 53.5 -23.5t60.5 -25.5z" />
    <glyph glyph-name="T" unicode="T" horiz-adv-x="623" 
d="M470 590q-49 -1 -106 -2q-2 -72 -2.5 -146.5t-2 -149.5t-3.5 -148.5t-6 -143.5q-2 -30 -16 -40t-36 -8q-23 2 -32 13t-10 45q-1 62 -1.5 135.5t-0.5 149.5t0.5 151t1.5 140q-54 -1 -101.5 -1h-79.5q-37 0 -37 44t32 45q23 1 62 2t85 2t96 1.5t95.5 1t83.5 1t60 0.5
q15 0 23 -7t9 -30q1 -27 -8.5 -39t-27.5 -13q-29 -2 -78 -3z" />
    <glyph glyph-name="U" unicode="U" horiz-adv-x="682" 
d="M600 113q-21 -54 -58 -90t-88 -53.5t-113 -17.5t-113 17.5t-88 53.5t-58 90.5t-24 128.5q-3 93 -4 196t-1 197q0 25 9.5 39t44.5 14q18 0 28.5 -3t15.5 -9.5t6 -17t1 -24.5q1 -80 2 -174t3 -213q2 -103 48 -153t130 -50t130 50t48 153q2 96 2.5 192.5t2.5 194.5
q0 14 1.5 24.5t6 17t15 9.5t28.5 3q35 0 44.5 -14t9.5 -39q0 -97 -0.5 -198t-4.5 -195q-3 -74 -24 -129z" />
    <glyph glyph-name="V" unicode="V" horiz-adv-x="635" 
d="M403 4q-9 -27 -27 -40t-58 -13t-58 13t-27 40q-21 64 -48 145.5t-54 165.5t-52 162.5t-43 137.5q-10 32 2 48t30 21q28 8 44.5 3.5t26.5 -37.5q21 -68 43 -143.5t44.5 -152t45.5 -151.5t46 -144q23 69 45.5 144t45 151.5t45 151.5t43.5 144q17 55 71 34q17 -7 29 -23
t3 -46q-12 -41 -28 -91t-33 -104.5t-35.5 -111.5t-36 -111t-34 -103.5t-30.5 -89.5z" />
    <glyph glyph-name="W" unicode="W" 
d="M600 194q16 -76 32 -144q17 72 35.5 152.5t36.5 160t34 153.5t29 133q8 33 24.5 38t44.5 -3q18 -5 26.5 -20.5t1.5 -47.5q-13 -60 -31 -139.5t-37.5 -163.5t-40 -165t-38.5 -144q-8 -27 -26.5 -40t-58.5 -13q-21 0 -35.5 2t-24 8t-15.5 16t-10 27q-7 25 -15.5 64
t-17 84.5t-17.5 96.5t-17.5 100.5t-16 95.5t-13.5 83q-10 -56 -22.5 -130.5l-25 -149t-25.5 -140t-24 -104.5q-5 -17 -10.5 -27t-15 -16t-24 -8t-35.5 -2q-40 0 -58.5 13t-26.5 40q-18 64 -38.5 145t-40 165t-37.5 163.5t-31 138.5q-7 32 1.5 47.5t26.5 20.5q28 8 44.5 3
t24.5 -38q13 -60 29 -133.5t34 -153t36.5 -159.5t35.5 -153q16 69 32.5 147.5t32 157t29 152t24.5 132.5q5 30 20.5 39t43.5 9q27 0 43 -10t21 -38q12 -65 26 -139.5t29 -152t31 -153.5z" />
    <glyph glyph-name="X" unicode="X" horiz-adv-x="625" 
d="M529 -47q-18 4 -35 28q-18 22 -41 55t-48 69t-49 71.5t-44 62.5q-20 -29 -44 -64t-48.5 -70.5t-47.5 -68t-41 -55.5q-17 -24 -35.5 -28t-41.5 10t-28 27.5t7 30.5q22 31 49 68t55.5 76t56.5 78t52 73q-24 33 -52.5 73t-57 81t-55.5 80t-48 71q-11 17 -7 30.5t28 27.5
q23 14 41.5 10.5t35.5 -28.5q19 -29 43 -65.5t48.5 -73t48 -71t41.5 -59.5q19 26 42 60t47.5 70.5t48.5 72.5l44 66q17 25 35.5 28.5t41.5 -10.5q24 -14 28 -27.5t-7 -30.5q-23 -33 -50 -73t-56 -80.5t-57 -80t-52 -72.5q24 -33 53 -72.5t57.5 -79t56 -76.5t48.5 -66
q14 -18 8.5 -30.5t-29.5 -27.5q-23 -14 -42 -10z" />
    <glyph glyph-name="Y" unicode="Y" horiz-adv-x="648" 
d="M434 344q-33 -47 -60 -88q0 -37 -1 -68t-1.5 -60.5t-1 -58t-0.5 -59.5q-1 -34 -12 -46t-34 -12t-35 12t-12 46q0 61 -1 120.5t-2 125.5q-27 40 -59.5 87t-64.5 95.5t-62.5 95t-54.5 87.5q-26 44 23 63q26 9 43.5 5t36.5 -33q20 -32 43.5 -69.5t48 -76.5t49 -77.5
t47.5 -71.5q24 34 50 73t50.5 77.5t47.5 75t41 66.5t35 35.5t42 -4.5q23 -10 31.5 -25.5t-5.5 -40.5q-23 -39 -53 -85.5t-63 -94t-66 -94.5z" />
    <glyph glyph-name="Z" unicode="Z" horiz-adv-x="607" 
d="M401 524q31 43 51 73q-93 -3 -185 -5t-185 -2q-28 0 -37.5 7.5t-10.5 35.5q-1 24 9.5 34.5t33.5 11.5q61 1 115 2t106.5 2t106.5 1h114q28 0 41.5 -16.5t13.5 -38.5q0 -11 -3 -21.5t-9 -18.5q-29 -41 -64 -88.5t-71.5 -97.5t-74 -100.5t-72 -97t-65 -86.5t-53.5 -69
q14 1 40 2.5t58.5 4.5t68.5 6.5t70 6.5t63.5 5.5t48.5 3.5q20 2 31 -4.5t13 -31.5q2 -32 -16 -41.5t-40 -11.5q-41 -5 -87 -10t-95 -9.5t-99 -7.5t-98 -4q-33 -1 -53.5 17t-20.5 42q0 27 19 52q21 27 52.5 68t68 90t75 101.5t74.5 102t66 92.5z" />
    <glyph glyph-name="bracketleft" unicode="[" horiz-adv-x="366" 
d="M83 689q3 43 53 45h39.5t42.5 -0.5t39.5 -1t29.5 -0.5q15 -1 23.5 -3t12.5 -7.5t5 -15t0 -24.5q-1 -17 -4 -25.5t-8.5 -12t-14 -4t-20.5 -0.5h-17.5h-26t-26 -0.5t-18.5 -1.5q-16 -3 -16 -21q0 -27 -0.5 -73t-1 -102.5t-1 -119t-0.5 -121t-0.5 -108.5t0.5 -83
q1 -20 16 -21q5 -1 15 -1t21.5 0.5t22.5 1t17 0.5h21t14.5 -4t8.5 -13t3 -25q1 -26 -3.5 -36t-32.5 -14q-32 -4 -71 -5.5t-70 0.5q-26 2 -39 12t-14 33q-2 41 -3 100.5t-2 128.5t-1.5 142t0.5 143t2 131t4 106z" />
    <glyph glyph-name="backslash" unicode="\" horiz-adv-x="308" 
d="M266 -29q-3 -8 -11.5 -12t-24.5 -5q-32 -3 -44.5 10.5t-19.5 45.5q-11 47 -26.5 123t-32.5 163t-35 176.5t-33 164.5q-5 25 3 38t44 13q16 0 26 -3t16 -9t9.5 -16t5.5 -24q10 -63 25.5 -144.5t32 -166t33 -165t29.5 -142.5q4 -17 5 -28.5t-2 -18.5z" />
    <glyph glyph-name="bracketright" unicode="]" horiz-adv-x="366" 
d="M177 -11q15 1 16 21v83v108.5t-0.5 121t-1 119t-1 102.5t-0.5 73q0 18 -16 21q-6 1 -18.5 1.5t-26 0.5h-26h-17.5q-12 0 -20.5 0.5t-14 4t-8.5 12t-4 25.5q-1 15 0 24.5t5 15t12.5 7.5t23.5 3q11 0 29.5 0.5t39.5 1t42.5 0.5h39.5q50 -2 53 -45q2 -44 3.5 -105.5
t2.5 -131.5t0.5 -143t-1 -142t-2 -128.5t-3.5 -100.5q-1 -23 -14 -33t-39 -12q-31 -2 -70 -0.5t-71 5.5q-14 2 -21.5 5t-11 8.5t-3.5 14.5v22q0 16 3 25t8.5 13t14.5 4h21q6 0 17 -0.5t22.5 -1t21.5 -0.5t15 1z" />
    <glyph glyph-name="asciicircum" unicode="^" horiz-adv-x="434" 
d="M114 565q-15 -4 -38 6q-15 8 -19.5 20.5t5.5 26.5q21 29 48.5 66t55.5 69q8 10 23.5 13.5t27.5 3.5t27.5 -4t23.5 -13q28 -32 55.5 -68.5t48.5 -66.5q11 -15 5.5 -27.5t-19.5 -19.5q-23 -10 -38.5 -5.5t-30.5 24.5q-8 10 -17 23t-19 27t-19.5 27t-16.5 23
q-7 -11 -16.5 -24.5t-19.5 -27t-19.5 -26.5t-16.5 -22q-16 -21 -31 -25z" />
    <glyph glyph-name="underscore" unicode="_" horiz-adv-x="404" 
d="M380 -62q-4 -10 -10.5 -14t-16 -4t-20.5 -1q-27 -2 -59 -3.5t-64.5 -2t-64.5 -1t-60 -0.5q-14 0 -26 1t-20.5 6t-13.5 15t-5 28q0 31 17.5 38.5t43.5 8.5q36 1 68 1.5t62 1t60.5 0t64.5 -0.5q22 0 35 -8.5t13 -33.5q0 -21 -4 -31z" />
    <glyph glyph-name="grave" unicode="`" horiz-adv-x="259" 
d="M213 580q-6 -19 -27 -31t-40 -5.5t-39 35.5q-15 22 -29 44t-28 45t-10 43.5t36 39.5q16 9 27.5 10.5t20.5 -3t16 -13.5t13 -21q13 -23 25.5 -46.5t24.5 -46.5q16 -32 10 -51z" />
    <glyph glyph-name="a" unicode="a" horiz-adv-x="639" 
d="M586 50q-1 -36 -2 -62q-2 -16 -12 -26t-25 -10q-19 0 -27 5.5t-11 16.5q-4 17 -7 32.5t-6 37.5q-11 -23 -29.5 -39.5t-42.5 -27.5t-51 -17.5t-53 -7.5q-57 -3 -108 13.5t-89 50.5t-60 84.5t-21 114.5q1 61 22.5 112.5t59.5 88t90 56.5t114 17q27 -2 51.5 -9.5t45.5 -19
t37 -25.5t25 -29q1 11 1.5 23.5t0.5 23.5q2 12 11 24t35 12q52 0 54 -38q1 -32 1 -69v-77q0 -44 -0.5 -89.5t-1 -87t-2.5 -78.5zM402 56q31 14 53 38t34 56.5t12 72.5q0 36 -13.5 67.5t-36.5 54.5t-55 37.5t-71 17.5q-39 -1 -72 -16t-58 -40t-39 -58t-14 -69q0 -46 16 -80
t42.5 -56t62 -32t74.5 -8q35 2 65 15z" />
    <glyph glyph-name="b" unicode="b" horiz-adv-x="629" 
d="M159 398q9 15 25.5 30.5t39 28t51.5 21.5t62 11q52 3 97.5 -13.5t79.5 -49.5t54 -80t20 -104q0 -72 -23 -127.5t-60.5 -92.5t-84 -55t-91.5 -15q-27 1 -53.5 9.5t-49.5 21.5t-40.5 29.5t-26.5 33.5q-2 -23 -3.5 -40.5t-3.5 -28.5q-2 -12 -13.5 -18t-25.5 -8
q-27 -2 -37 16.5t-12 47.5q-2 53 -4 132.5t-4 168t-3.5 177.5t-1.5 161q0 26 9.5 39.5t44.5 13.5q17 0 27 -3t15.5 -9t7.5 -16.5t3 -25.5zM435 84q24 24 38 61t13 88q-1 44 -14.5 77t-36 54t-53.5 30t-67 6q-36 -4 -64.5 -19.5t-48.5 -39.5t-30.5 -56t-9.5 -69
q1 -45 13 -77.5t33 -53.5t49.5 -31.5t61.5 -12.5q31 -2 61.5 9t54.5 34z" />
    <glyph glyph-name="c" unicode="c" horiz-adv-x="576" 
d="M526 52q-26 -43 -79 -71t-124 -30q-68 -2 -120.5 16.5t-88.5 52.5t-54.5 81t-18.5 102q0 59 19 111t55 90.5t88 61.5t118 24q39 1 74 -8.5t63 -26t48.5 -38t31.5 -45.5q8 -20 4 -36.5t-25 -25.5q-7 -3 -15 -5t-16.5 -1.5t-16 5t-13.5 13.5q-21 33 -57 56t-77 23t-74 -14
t-55.5 -38.5t-35 -58.5t-12.5 -74q0 -43 12.5 -77t36.5 -56.5t57 -33.5t74 -9q39 2 72.5 22.5t50.5 43.5q28 36 59 12q20 -15 25.5 -31t-6.5 -35z" />
    <glyph glyph-name="d" unicode="d" horiz-adv-x="630" 
d="M569 96q-2 -47 -3 -81q-2 -29 -14 -47.5t-40 -16.5q-29 3 -34 26q-2 11 -3.5 29t-3.5 40q-9 -18 -26.5 -34t-40.5 -29t-49.5 -21t-53.5 -10q-46 -3 -93 9.5t-84.5 45t-60.5 86.5t-21 132q1 57 21.5 105.5t54.5 84t79 55t96 19.5q32 0 61 -8t52.5 -20t40 -27.5t24.5 -31.5
q0 45 0.5 85.5t0.5 74v57v34.5q0 30 9.5 42t43.5 12q35 0 44.5 -13.5t9.5 -39.5q0 -49 -0.5 -106t-1.5 -116.5t-2.5 -119.5t-2.5 -114.5t-3 -101.5zM372 53q29 11 50 32t33 53.5t13 77.5q1 37 -9.5 69.5t-30.5 57.5t-48.5 40t-64.5 17q-36 1 -67 -10t-54 -33.5t-36 -56
t-14 -77.5q-1 -55 13 -90.5t38 -56.5t54 -29t62 -6q33 2 61 12z" />
    <glyph glyph-name="e" unicode="e" horiz-adv-x="584" 
d="M528 336q16 -49 12 -106q-2 -17 -9.5 -30.5t-20.5 -14.5q-88 -7 -181 -11.5t-183 -10.5q0 -59 39 -92.5t119 -33.5q19 0 40 4t40.5 11.5t35.5 17.5t25 21q17 18 30 20t27 -9q23 -18 25.5 -31.5t-12.5 -33.5q-12 -17 -32.5 -32t-48.5 -27t-62 -19.5t-71 -7.5
q-60 0 -108 15.5t-81.5 48t-52 80.5t-18.5 113q0 61 17 111.5t49.5 87.5t79 58t106.5 24t107.5 -15.5t79.5 -53.5t48 -84zM154 306q-9 -27 -9 -56q9 0 31.5 1t51.5 2.5t61 3t62 3.5t54 3.5t36 2.5q-4 64 -42.5 102t-110.5 35q-33 -2 -60 -15t-45.5 -34t-28.5 -48z" />
    <glyph glyph-name="f" unicode="f" horiz-adv-x="505" 
d="M276 8q0 -34 -11 -45.5t-38 -10.5q-17 0 -26 3t-13.5 10t-6 17.5t-2.5 27.5t-1.5 56.5t-1.5 92t-1.5 115t-1.5 126.5h-106q-20 0 -28.5 9t-8.5 33q0 23 7.5 32.5t24.5 10.5q21 1 49 1.5t60 1.5q0 25 -0.5 44.5t-0.5 33.5q-1 42 15.5 72t39.5 45q19 11 47.5 17t58.5 6.5
t59 -4t50 -14.5q26 -13 31.5 -28t-1.5 -32q-9 -23 -22 -29t-28 1q-12 5 -28 9t-33.5 6t-34 0.5t-29.5 -7.5q-21 -11 -21 -47v-70q50 1 94 1.5t75 0.5q15 0 23 -6t9 -29q1 -28 -8.5 -38.5t-27.5 -11.5q-32 -2 -74.5 -3t-89.5 -3z" />
    <glyph glyph-name="g" unicode="g" horiz-adv-x="612" 
d="M403 462q40 -25 57 -55q1 11 1.5 23t0.5 23q1 12 10.5 24t35.5 12q54 0 54 -38q0 -54 -0.5 -114t-1.5 -121.5t-2 -121.5t-3 -112q-2 -62 -25 -105.5t-58.5 -71.5t-79 -40.5t-87.5 -12.5q-81 0 -138.5 30.5t-81.5 74.5q-11 20 -8 38.5t20 30.5q19 12 34 12t29 -23
q16 -27 50 -48t90 -23q35 -1 64.5 9t50.5 30t33 49t13 65q1 17 2 40t2 40q-22 -42 -68 -67.5t-97 -28.5q-49 -3 -96 11t-83 45t-58 78t-21 112q1 57 21.5 106t56.5 84t85.5 54t107.5 18q51 -2 90 -27zM426 119q22 22 35 52t13 67q-1 71 -43 115.5t-121 46.5q-39 1 -70 -11.5
t-53 -35.5t-33.5 -54.5t-11.5 -69.5q0 -46 15 -77.5t39.5 -50.5t56 -26.5t64.5 -4.5q30 2 58.5 15t50.5 34z" />
    <glyph glyph-name="h" unicode="h" horiz-adv-x="594" 
d="M164 404q18 30 59 55t97 29q54 3 96.5 -13.5t71.5 -48t44.5 -74t14.5 -91.5q-2 -85 -6 -152.5t-9 -119.5q-2 -23 -13.5 -30.5t-34.5 -6.5q-38 1 -39 39q-1 31 -1.5 66t-0.5 69.5v65v51.5q0 72 -35.5 112.5t-101.5 39.5q-34 -1 -60.5 -12.5t-44.5 -30.5t-28 -42.5
t-10 -48.5q-1 -64 -2 -127t-3 -127q-2 -34 -10.5 -44t-32.5 -11q-19 -1 -32.5 7.5t-15.5 39.5q-2 36 -3.5 86.5t-3 108.5t-2.5 120.5t-2 124.5t-2 119.5t-1 105.5q0 19 13.5 30.5t44.5 12.5q33 1 43 -10t10 -31v-262z" />
    <glyph glyph-name="i" unicode="i" horiz-adv-x="227" 
d="M167 596q-22 -23 -54 -23t-54 23t-22 58q0 33 22 56t54 23t54 -23t22 -56q0 -35 -22 -58zM88 -37q-13 10 -15 36q-5 114 -7 221.5t-4 219.5q-1 26 11 35.5t38 9.5q29 0 40 -8t11 -34q2 -109 0 -219.5t-3 -214.5q0 -31 -9 -41.5t-29 -12.5t-33 8z" />
    <glyph glyph-name="j" unicode="j" horiz-adv-x="227" 
d="M167 596q-22 -23 -54 -23t-54 23t-22 58q0 33 22 56t54 23t54 -23t22 -56q0 -35 -22 -58zM120 -163q-15 -18 -37.5 -36t-51.5 -33q-9 -5 -23.5 -0.5t-25.5 18.5q-6 11 -4.5 25.5t15.5 25.5q8 7 23.5 23t27.5 30q12 15 19 43.5t6 58.5q-1 49 -2 110.5t-1.5 123t-1.5 118
t-1 96.5q0 26 11 35.5t37 9.5q29 0 40 -8t11 -34q0 -126 0.5 -250t-1.5 -250q-1 -35 -10 -58t-31 -48z" />
    <glyph glyph-name="k" unicode="k" horiz-adv-x="610" 
d="M385 281q10 -15 24 -38t30.5 -49.5t33 -54.5t31 -52t25 -42.5t15.5 -26.5q5 -9 7.5 -19.5t1 -20t-8.5 -16.5t-20 -9q-16 -2 -30.5 2t-29.5 26q-6 8 -23 35.5t-39.5 63.5t-47 75.5t-43.5 72.5l-147 -106v-25.5t-0.5 -32t-0.5 -31.5v-25q-1 -37 -14.5 -52t-34.5 -14
q-24 1 -34.5 14.5t-12.5 43.5q-2 55 -4 137.5t-4 174t-3 181.5t-2 161q0 13 1 22.5t6 16t15 10t29 4.5q34 2 44.5 -12.5t11.5 -41.5q1 -36 1.5 -88.5t1 -111.5t0.5 -117.5v-106.5q38 27 84.5 61t94 68.5t91.5 67t77 57.5q15 12 29 7.5t26 -18.5q17 -20 13 -34t-25 -35z" />
    <glyph glyph-name="l" unicode="l" horiz-adv-x="234" 
d="M156 -1q-2 -30 -16 -40t-36 -8q-23 2 -32 13t-10 45q-3 163 -3.5 325t0.5 327q0 29 11.5 37.5t43.5 8.5q28 0 40.5 -10t12.5 -39q0 -71 -1 -162t-2.5 -183t-3 -175t-4.5 -139z" />
    <glyph glyph-name="m" unicode="m" horiz-adv-x="806" 
d="M657 266q0 66 -25.5 100t-79.5 30q-35 -2 -61.5 -28t-27.5 -68q0 -24 -2 -65t-4 -86.5t-4.5 -88t-4.5 -67.5q-2 -29 -10 -36.5t-35 -6.5q-20 1 -30 8t-10 41v257q0 77 -27.5 110.5t-85.5 29.5q-23 -2 -40.5 -12.5t-29.5 -28t-18.5 -40t-6.5 -46.5q0 -63 -1 -128t-3 -130
q-2 -35 -13 -47t-32 -12q-25 0 -33.5 9t-10.5 42q-6 100 -10 207.5t-4 225.5q0 26 8.5 38.5t40.5 14.5q30 2 42.5 -8.5t14.5 -30.5q2 -9 1.5 -16t0.5 -20q14 30 45.5 50t64.5 24q27 3 53.5 -0.5t50 -13t41.5 -25.5t28 -39q7 12 18.5 25t27.5 24t35.5 19t41.5 10
q91 8 144 -38t53 -150q0 -24 -1.5 -65t-4 -86.5t-5 -88t-4.5 -67.5q-2 -29 -11.5 -36.5t-36.5 -6.5q-20 1 -29.5 8.5t-9.5 40.5v267z" />
    <glyph glyph-name="n" unicode="n" horiz-adv-x="571" 
d="M422 256q0 77 -37.5 110t-98.5 30q-28 -2 -51.5 -13t-41 -29t-27.5 -41.5t-10 -50.5q-1 -63 -1.5 -124.5t-2.5 -126.5q-2 -35 -13.5 -47t-32.5 -12q-25 0 -33.5 9t-10.5 42q-6 100 -10 207.5t-4 225.5q0 26 10.5 38.5t42.5 14.5q29 2 40.5 -7.5t13.5 -29.5q1 -8 1 -23.5
t1 -24.5q18 32 53 56t87 28q55 4 97 -11.5t71 -45.5t44 -71.5t15 -89.5q0 -24 -1.5 -60.5t-4 -76t-5 -77.5t-4.5 -63q-2 -29 -11 -36.5t-36 -6.5q-20 1 -30 8t-10 41v257z" />
    <glyph glyph-name="o" unicode="o" horiz-adv-x="630" 
d="M567 116q-20 -49 -56 -84.5t-86.5 -56t-111.5 -21.5q-62 -1 -111.5 18t-85 53t-54.5 79.5t-20 98.5q-1 58 16 108.5t50.5 88.5t82.5 61t112 26q64 3 117 -15.5t90.5 -53.5t57.5 -84t20 -109q0 -59 -21 -109zM386 58q31 15 53 39.5t34 59t11 76.5q-2 79 -48.5 124
t-133.5 41q-38 -2 -67 -17t-48.5 -39.5t-30 -56t-10.5 -67.5q0 -81 44 -129t129 -46q36 1 67 15z" />
    <glyph glyph-name="p" unicode="p" horiz-adv-x="602" 
d="M161 -178q0 -19 -1 -31.5t-5.5 -20t-13 -11t-23.5 -3.5q-30 -1 -38.5 13t-10.5 45q-4 52 -7.5 129t-6 162.5t-4.5 173t-3 160.5q0 26 11 38t43 12q31 0 40.5 -12.5t9.5 -37.5v-28q19 31 60.5 52.5t103.5 25.5q49 3 93.5 -14t77.5 -50t52.5 -81t20.5 -107
q1 -71 -20.5 -126t-57.5 -91.5t-83 -54t-99 -14.5q-20 1 -40 6t-39 13.5t-34.5 20t-25.5 26.5v-195zM360 55q30 12 51.5 36t34 58.5t11.5 78.5q-2 86 -46.5 130t-113.5 39q-65 -5 -106 -54t-39 -130q1 -46 13.5 -78t32.5 -52.5t46.5 -30t55.5 -9.5q31 0 60 12z" />
    <glyph glyph-name="q" unicode="q" horiz-adv-x="602" 
d="M442 17q-10 -15 -25.5 -26.5t-34.5 -20t-39.5 -13.5t-39.5 -6q-52 -3 -99.5 14.5t-83.5 54t-57 91.5t-20 126q1 59 20.5 107t52.5 81t77 50t94 14q59 -4 101.5 -26.5t62.5 -51.5v28q0 25 9.5 37.5t40.5 12.5q32 0 43 -12t11 -38q-1 -74 -3 -161.5t-4.5 -173.5t-6 -162.5
t-7.5 -127.5q-2 -31 -10.5 -45t-38.5 -13q-15 0 -23.5 3.5t-13 11t-5.5 20t-1 31.5v195zM192 358q-44 -44 -46 -130q-2 -44 11 -78.5t34.5 -58.5t50.5 -36t61 -12q29 0 55 9.5t46.5 30t33 52.5t13.5 78q2 81 -39 130t-106 54q-69 5 -114 -39z" />
    <glyph glyph-name="r" unicode="r" horiz-adv-x="482" 
d="M152 11q-2 -35 -13.5 -47t-32.5 -12q-25 0 -33.5 9t-10.5 42q-6 100 -10 207.5t-4 225.5q0 26 8.5 38.5t40.5 14.5q31 2 44 -8t14 -31q0 -9 0.5 -22.5t0.5 -29v-31.5v-29q17 34 43.5 63t58.5 49t69 30t75 8q55 -3 51 -53q-3 -38 -21 -49.5t-46 -9.5q-47 3 -88 -16.5
t-72.5 -49t-50 -64t-19.5 -62.5z" />
    <glyph glyph-name="s" unicode="s" horiz-adv-x="523" 
d="M482 69q-7 -60 -63 -89t-142 -29q-34 0 -66.5 5t-60.5 14.5t-50 23t-35 29.5q-32 37 0 68q9 9 26.5 14.5t29.5 -3.5q32 -26 72 -43.5t82 -19.5q45 -2 69 7.5t28 25.5q4 17 -8.5 33t-45.5 30q-39 16 -87.5 32.5t-90.5 32.5q-61 23 -86.5 67.5t-17.5 96.5q8 53 59 87
t151 36q63 2 118.5 -15t89.5 -43q22 -17 27.5 -36t-14.5 -39q-17 -17 -36.5 -20.5t-34.5 10.5q-29 25 -65 39t-87 16q-52 2 -73.5 -12t-25.5 -33q-5 -22 5 -41.5t37 -30.5q18 -8 40.5 -16.5t45 -16.5l45 -16t40.5 -15q67 -27 98.5 -60.5t25.5 -88.5z" />
    <glyph glyph-name="t" unicode="t" horiz-adv-x="521" 
d="M285 72q0 -17 4 -23.5t16 -7.5t27 -0.5t30 2t29.5 4.5t25.5 6q13 4 24 2.5t20 -24.5q6 -17 -0.5 -32.5t-29.5 -25.5q-17 -7 -38.5 -12t-45 -7t-47 -2t-43.5 4q-29 5 -48.5 27.5t-21.5 64.5q-1 24 -2 63.5t-2 87t-1.5 100t-1.5 102.5q-31 -1 -59.5 -1h-53.5q-20 0 -28.5 9
t-8.5 33q0 23 7.5 32.5t24.5 10.5q23 1 53 2t65 2l1 132q1 33 10.5 45t42.5 13q26 1 38.5 -10.5t12.5 -45.5v-132q50 1 94 1.5t74 0.5q15 0 23 -6t9 -29q1 -28 -8.5 -38.5t-27.5 -11.5q-32 -2 -74.5 -3t-89.5 -3v-330z" />
    <glyph glyph-name="u" unicode="u" horiz-adv-x="568" 
d="M419 444q0 28 9 36.5t41 8.5t40 -10.5t8 -31.5v-111t-1 -118t-2.5 -114t-5.5 -99q-2 -26 -13 -40t-37 -14q-16 0 -28 6t-14 24q-2 14 -2.5 24t-0.5 25q-22 -32 -60.5 -54t-79.5 -24q-50 -3 -89.5 10.5t-68 40.5t-44.5 65.5t-18 85.5q-1 38 -2 72.5t-1.5 69t-1 70.5
t-0.5 76q0 10 1 19t5.5 15t14.5 9.5t28 3.5t28.5 -3.5t15.5 -10t7 -16t2 -19.5q0 -20 0.5 -56.5t0.5 -77t0.5 -77t1.5 -55.5q2 -38 15.5 -64.5t32.5 -42t42 -22t45 -5.5q30 1 54 14.5t41 34t26 46.5t9 53z" />
    <glyph glyph-name="v" unicode="v" horiz-adv-x="590" 
d="M421 81q-25 -58 -45 -98q-7 -12 -15 -20t-20 -10q-23 -3 -44.5 -3t-44.5 2q-11 1 -21 8.5t-15 16.5q-8 18 -22 51.5t-31 75.5t-36 88t-36.5 90.5t-32.5 83.5l-25 65q-8 22 -3.5 33.5t33.5 19.5q18 5 31 5q14 0 25 -6t16 -21q6 -18 18 -52t27.5 -76t33 -88t33.5 -87.5
t29 -75.5t20 -51q12 25 32.5 77.5t43.5 115t46 125.5t38 109q6 18 16 24t23 6q7 0 15 -1t16 -3q30 -6 35 -20.5t-3 -37.5q-15 -44 -38 -103.5t-48.5 -121.5t-50.5 -121z" />
    <glyph glyph-name="w" unicode="w" horiz-adv-x="851" 
d="M587 87q11 -32 18 -51q5 19 14 50t19 68.5t21 79t22 82t20 77.5t15 65q7 26 24 28.5t40 -1.5q31 -5 36.5 -19.5t-1.5 -38.5q-13 -44 -30.5 -104t-35.5 -122t-35.5 -120t-30.5 -98q-4 -13 -13.5 -20.5t-21.5 -9.5q-23 -3 -40.5 -3t-38.5 2q-11 1 -21 8.5t-15 16.5
q-8 19 -20 56t-27 82.5t-31 95.5t-30 95q-13 -43 -26.5 -88t-26.5 -87.5t-25 -80.5t-21 -67q-4 -13 -13.5 -20.5t-21.5 -9.5q-23 -3 -40.5 -3t-38.5 2q-27 2 -36 25q-6 16 -17 48.5t-24 74t-27.5 88t-28.5 92t-26 85t-20 66.5q-7 22 -3 33.5t33 19.5q10 3 21 4.5t20.5 -0.5
t17 -8t10.5 -19q6 -24 15.5 -59.5t21.5 -77t24.5 -85t24 -83t21 -71.5t15.5 -49q11 30 27 81.5t32.5 109.5t32 114.5t25.5 96.5q8 29 19 37t34 10q24 2 35.5 -9.5t17.5 -33.5q5 -21 15 -53.5l22 -71.5t25 -80.5t25.5 -79.5t22.5 -70z" />
    <glyph glyph-name="x" unicode="x" horiz-adv-x="577" 
d="M288 155q-17 -21 -37.5 -46t-41 -49.5t-40.5 -47.5t-36 -40q-17 -19 -38.5 -21.5t-43.5 7.5q-23 11 -27.5 20.5t8.5 23.5q21 23 45.5 50.5t49.5 56.5t50 57.5t48 52.5q-23 24 -48.5 52t-51 57t-49.5 57t-45 53q-11 14 -7 23t27 20q21 11 44 9t39 -22q42 -53 82.5 -101.5
t71.5 -82.5q17 20 37 44t41 48.5t41 48t36 43.5q17 20 39.5 22t43.5 -9q23 -11 27 -20t-7 -23q-21 -25 -46 -53.5t-50.5 -57t-51.5 -56.5t-48 -53q23 -26 48.5 -54.5l51 -57t50 -55.5t45.5 -49q13 -14 8.5 -23.5t-27.5 -20.5q-21 -10 -43 -7.5t-39 21.5z" />
    <glyph glyph-name="y" unicode="y" horiz-adv-x="591" 
d="M211 -227q-11 -16 -29 -20.5t-35 8.5q-17 12 -17 25.5t10 30.5q10 16 24 39t27.5 46.5t25.5 44.5t19 35q6 12 6 21.5t-5 17.5q-23 43 -51.5 100l-57.5 115t-54.5 110t-40.5 85q-10 21 -1.5 32.5t37.5 20.5q21 6 41 4.5t30 -26.5q6 -15 17.5 -41.5t26 -58.5t31 -67.5
t32 -69.5t30 -64t24.5 -51q32 64 70.5 152t78.5 197q8 21 26 26.5t45 -0.5q30 -7 38.5 -21t-1.5 -37q-29 -66 -66.5 -146.5t-82 -166.5t-94.5 -174t-104 -167z" />
    <glyph glyph-name="z" unicode="z" horiz-adv-x="521" 
d="M84 392q-23 -1 -36 5t-14 36q-1 29 12 38t34 10q50 1 94.5 2.5t88 2t87 0.5t91.5 -1q25 -1 36.5 -14t11.5 -31q0 -21 -14 -40q-28 -36 -68.5 -85t-84 -99.5t-84.5 -97t-70 -76.5q7 0 27 1t47.5 2t58.5 2.5t58.5 2.5t49 2t29.5 1q13 0 27 -6.5t14 -25.5q0 -30 -15.5 -38.5
t-32.5 -9.5q-33 -3 -77 -6.5t-90 -6.5t-91 -4.5t-80 -1.5q-27 0 -38.5 13.5t-11.5 32.5q0 15 6 29t15 25q34 38 74.5 82.5t81 90t78 89.5t66.5 81z" />
    <glyph glyph-name="braceleft" unicode="{" horiz-adv-x="424" 
d="M219 356q-13 -16 -36 -21q23 -9 36.5 -26t13.5 -48q0 -48 -0.5 -84t-0.5 -65.5v-53.5v-47q2 -23 18 -23q25 -1 42.5 0t34.5 1q24 0 29.5 -8.5t6.5 -27.5q1 -21 -5.5 -33.5t-26.5 -14.5q-31 -4 -61.5 -6.5t-62.5 -3.5q-26 -1 -40.5 10t-16.5 33q-2 27 -3.5 61.5t-3 72
t-2 77t-0.5 77.5q0 28 -12.5 43t-42.5 15q-28 0 -39.5 11.5t-11.5 46.5q0 34 10.5 45t36.5 11q29 0 44 12.5t15 47.5q0 60 2.5 121.5t6.5 109.5q2 22 16.5 32.5t40.5 10.5h30h37t37 -0.5t30 -1.5q28 -2 33 -12t4 -35q-2 -25 -10.5 -35t-32.5 -11q-5 0 -16.5 -0.5t-24.5 -1
t-24.5 -1t-16.5 -1.5q-18 -3 -18 -23q0 -14 -0.5 -40t-1 -56t-0.5 -60v-51q0 -31 -14 -47z" />
    <glyph glyph-name="bar" unicode="|" horiz-adv-x="292" 
d="M92 661q0 29 11.5 37.5t43.5 8.5q28 0 40.5 -10t12.5 -39q0 -71 -0.5 -162t-2 -183t-3.5 -175t-5 -139q-2 -30 -16 -40t-36 -8q-23 2 -32 13t-10 45z" />
    <glyph glyph-name="braceright" unicode="}" horiz-adv-x="424" 
d="M205 309q14 17 37 26q-23 5 -36.5 21t-13.5 47v51t-0.5 60t-1 56t-0.5 40q0 20 -18 23q-5 1 -16.5 1.5t-24.5 1t-24.5 1t-16.5 0.5q-24 1 -32.5 11t-10.5 35q-1 12 -0.5 21t4.5 14.5t11.5 8t21.5 3.5q12 1 30 1.5t37 0.5h37h30q26 0 40.5 -10.5t16.5 -32.5
q4 -48 6.5 -109.5t2.5 -121.5q0 -35 15 -47.5t44 -12.5q26 0 36.5 -11t10.5 -45q0 -35 -11.5 -46.5t-39.5 -11.5q-30 0 -42.5 -15t-12.5 -43q0 -38 -0.5 -77.5t-2 -77t-3 -72t-3.5 -61.5q-2 -22 -16.5 -33t-40.5 -10q-32 1 -62.5 3.5t-61.5 6.5q-20 2 -26.5 14.5t-5.5 33.5
q1 19 6.5 27.5t29.5 8.5q17 0 34.5 -1t42.5 0q16 0 18 23v47v53.5t-0.5 65.5t-0.5 84q0 31 13 48z" />
    <glyph glyph-name="asciitilde" unicode="~" horiz-adv-x="558" 
d="M525 324q-7 -28 -41.5 -51.5t-77.5 -32.5q-32 -7 -64 1.5t-61.5 20t-56 21.5t-47.5 6q-15 -3 -26.5 -10.5t-21.5 -16t-19 -16t-19 -9.5q-11 -2 -23 3.5t-29 22.5q-16 17 -8 38q5 13 17.5 26.5t29.5 24.5t36.5 19.5t38.5 11.5q32 6 65.5 -2t64.5 -19.5t56.5 -21t41.5 -6.5
q13 3 24 9.5t20.5 14t18 15t17.5 11.5q12 6 24.5 2.5t29.5 -23.5q15 -19 10 -39z" />
    <glyph glyph-name="exclamdown" unicode="&#xa1;" 
d="M390 -132q4 26 7 58.5t4 55.5l18 481h66l18 -481q0 -24 2.5 -55.5t8.5 -58.5h-124zM516 646q0 -30 -19 -49t-46 -19t-46 19t-19 49t19 50t47 20q27 0 45.5 -20t18.5 -50z" />
    <glyph glyph-name="currency" unicode="&#xa4;" 
d="M554 56q47 21 82 57t55 84.5t20 102.5t-20 102t-55 84t-82 57.5t-104 21.5t-104.5 -21.5t-82.5 -57.5q-34 -36 -53.5 -84t-19.5 -102t19.5 -102.5t53.5 -84.5q35 -36 82.5 -57t104.5 -21t104 21zM822 -25l-47 -47l-116 115q-42 -36 -95.5 -55t-113.5 -19t-114.5 19.5
t-96.5 55.5l-116 -116l-46 47l116 116q-35 42 -54.5 95.5t-19.5 113.5t19.5 113.5t55.5 96.5l-117 118l46 47l118 -119q42 35 95.5 54.5t113.5 19.5q58 0 112 -19.5t96 -53.5l117 118l47 -47l-119 -115q36 -43 56.5 -98t20.5 -115t-19.5 -113.5t-54.5 -95.5z" />
    <glyph glyph-name="section" unicode="&#xa7;" horiz-adv-x="450" 
d="M168 -17q-1 -3 -1 -10q0 -18 21 -33.5t55 -15.5q38 0 62.5 19.5t24.5 43.5t-24.5 48.5t-81.5 67.5q-96 70 -135 115q-40 46 -40 98q0 26 9 46.5t24.5 35t35.5 23t41 11.5q-48 42 -73.5 81.5t-25.5 76.5q0 30 12 55.5t34 45.5q21 19 50 30t62 11q34 0 64 -11.5t53 -30.5
t36.5 -45t13.5 -55q0 -24 -15 -41.5t-36 -17.5q-24 0 -38 17t-14 42q0 11 4 20q2 5 3.5 10t1.5 11q0 16 -21.5 32t-53.5 16q-42 0 -62.5 -19.5t-20.5 -49.5q0 -29 27 -63q26 -32 104 -93q38 -31 64 -55t42 -45q30 -40 30 -82q0 -51 -31 -82t-74 -36q24 -19 45 -36.5
t36.5 -36t24.5 -38.5t9 -44q0 -54 -46 -88t-110 -34q-36 0 -69.5 10.5t-59.5 28.5q-25 18 -40.5 42.5t-15.5 53.5q0 24 15.5 40.5t39.5 16.5q21 0 35.5 -16.5t14.5 -37.5q0 -6 -1.5 -11.5t-2.5 -10.5zM190 387q-30 0 -49 -17t-19 -40t16.5 -47t53.5 -52q27 -21 43 -28.5
t36 -7.5q22 0 35.5 13.5t13.5 38.5q0 18 -7.5 33.5t-24.5 36.5q-9 10 -22 22t-26 23q-13 10 -24.5 17.5t-16.5 7.5h-9z" />
    <glyph glyph-name="dieresis" unicode="&#xa8;" 
d="M357 730q0 -30 -19.5 -49.5t-48.5 -19.5q-31 0 -50.5 19.5t-19.5 49.5t19.5 49.5t49.5 19.5t49.5 -19.5t19.5 -49.5zM679 730q0 -30 -19.5 -49.5t-48.5 -19.5q-31 0 -50.5 19.5t-19.5 49.5t19.5 49.5t49.5 19.5t49.5 -19.5t19.5 -49.5z" />
    <glyph glyph-name="ordfeminine" unicode="&#xaa;" 
d="M568 112q-7 13 -11 29.5t-5 31.5q-27 -33 -73.5 -55t-100.5 -22q-65 0 -109 40q-44 41 -44 104q0 57 27.5 101t81.5 60q14 5 30 9t32 7q15 3 31 6t31 6q39 6 65.5 18.5t26.5 42.5q0 33 -27 63q-25 31 -83 31q-54 0 -83.5 -30.5t-29.5 -84.5h-83v7q0 43 15.5 77.5
t41.5 58.5q27 24 62 37.5t77 13.5q94 0 144 -53.5t50 -147.5v-257q0 -21 4.5 -46.5t13.5 -46.5h-84zM708 -70h-516v75h516v-75zM552 377q-11 -8 -27.5 -14t-31.5 -9l-60 -12q-15 -3 -29.5 -6.5t-27.5 -6.5q-27 -8 -44 -29.5t-17 -47.5q0 -34 19 -52.5t56 -18.5q26 0 54.5 11
t52.5 29t39.5 41t15.5 46v69z" />
    <glyph glyph-name="uni00AD" unicode="&#xad;" 
d="M636 163h-372v91h372v-91z" />
    <glyph glyph-name="registered" unicode="&#xae;" 
d="M570 65q-7 21 -10.5 36t-4.5 45q-3 38 -6.5 62.5t-11.5 39.5q-8 14 -22 19.5t-37 5.5h-122v-208h-62v474h209q54 0 85.5 -35.5t31.5 -95.5q0 -77 -55 -109q21 -13 30.5 -32.5t12.5 -55.5q1 -22 2 -41t4 -37q2 -18 7 -35t13 -33h-64zM493 331q33 0 52.5 21.5t19.5 57.5
q0 32 -19.5 51.5t-51.5 19.5h-138v-150h137zM292 -68q-72 31 -126 86q-55 54 -86 126.5t-31 156.5q0 82 31 155t86 127q54 55 126.5 86.5t156.5 31.5q82 0 155 -31.5t127 -85.5q55 -54 86.5 -126.5t31.5 -156.5t-31.5 -156.5t-86.5 -126.5q-54 -55 -127 -86t-155 -31
q-84 0 -157 31zM693 56q48 48 75 110.5t27 134.5t-27 134t-75 110t-110 75t-134 27t-134.5 -27t-110.5 -75t-74.5 -110t-26.5 -134t26.5 -134.5t74.5 -110.5t110.5 -74.5t134.5 -26.5t134 26.5t110 74.5z" />
    <glyph glyph-name="degree" unicode="&#xb0;" horiz-adv-x="450" 
d="M327 615q-9 -21 -24.5 -36.5t-36.5 -24.5t-45 -9q-25 0 -46.5 9t-37 24.5t-24 36.5t-8.5 45t8.5 45t24 36.5t37 24.5t46.5 9q24 0 45 -9t36.5 -24.5t24.5 -36.5t9 -45t-9 -45zM221 598q24 0 41 18.5t17 43.5q0 24 -17 42.5t-41 18.5q-26 0 -42.5 -18.5t-16.5 -42.5
q0 -25 16.5 -43.5t42.5 -18.5z" />
    <glyph glyph-name="plusminus" unicode="&#xb1;" 
d="M730 341h-235v-194h-91v194h-235v81h235v198h91v-198h235v-81zM730 -14h-561v80h561v-80z" />
    <glyph glyph-name="uni00B2" unicode="&#xb2;" horiz-adv-x="450" 
d="M225 494h-205q0 33 16 62t59 57l46 30q15 10 25 24t10 30q0 21 -13 33t-36 12q-27 0 -40 -16.5t-13 -39.5h-45q0 33 24 65q24 31 74 31q48 0 72 -26.5t24 -60.5q0 -27 -17 -48.5t-41 -35.5q-29 -18 -56 -37.5t-34 -39.5h150v-40z" />
    <glyph glyph-name="uni00B3" unicode="&#xb3;" horiz-adv-x="450" 
d="M68 583q0 -21 13 -38.5t46 -17.5q25 0 40 16t15 37t-16 32t-42 11h-22v40q36 0 54 9.5t18 33.5q0 15 -13 25.5t-36 10.5q-24 0 -37.5 -13t-13.5 -31v-4h-45q0 40 27.5 64t69.5 24t68.5 -21t26.5 -55q0 -23 -11 -38t-24 -23q19 -9 31.5 -26t12.5 -41q0 -38 -28.5 -64.5
t-74.5 -26.5q-48 0 -76.5 25.5t-28.5 65.5v5h46z" />
    <glyph glyph-name="acute" unicode="&#xb4;" 
d="M564 756q-3 -16 -17 -28q-16 -14 -38 -27.5t-51 -27.5t-57 -24.5t-57 -18.5q-3 -1 -6 1.5t0 5.5q15 18 35 39t41 41q20 20 40 37.5t37 31.5q15 12 34 12.5t31 -11.5q12 -15 8 -31z" />
    <glyph glyph-name="paragraph" unicode="&#xb6;" 
d="M532 -149h-73q0 57 -0.5 114.5t-0.5 115.5v231h-53q-57 0 -103.5 13t-81.5 40q-35 26 -54.5 65t-19.5 90q0 54 21 93t59 65t89.5 39t111.5 13h105v-879zM717 -149h-73v879h73v-879zM458 384v277h-40q-93 0 -144.5 -35t-51.5 -104t53 -104q52 -34 131 -34h52z" />
    <glyph glyph-name="periodcentered" unicode="&#xb7;" horiz-adv-x="450" 
d="M300 324q0 -33 -20.5 -53t-53.5 -20q-32 0 -51.5 20.5t-19.5 52.5q0 33 20 53t54 20q30 0 50.5 -21t20.5 -52z" />
    <glyph glyph-name="cedilla" unicode="&#xb8;" horiz-adv-x="450" 
d="M275 -27q16 -9 26.5 -27.5t10.5 -39.5q0 -43 -36 -71q-35 -29 -83 -29q-15 0 -33.5 3.5t-35.5 12.5l11 34q24 -6 46 -6q43 0 43 38q0 18 -14.5 29.5t-50.5 11.5l57 122h95z" />
    <glyph glyph-name="uni00B9" unicode="&#xb9;" horiz-adv-x="450" 
d="M157 490h-49v211h-60v32q25 0 46 9t21 39h42v-291z" />
    <glyph glyph-name="ordmasculine" unicode="&#xba;" 
d="M608 181q-27 -39 -67 -61.5t-91 -22.5t-91 22t-68 61q-28 38 -42 89t-14 111q0 58 14 109.5t42 90.5q27 38 67 61t92 23q51 0 91 -22.5t67 -61.5q27 -38 41.5 -89.5t14.5 -109.5t-14.5 -109.5t-41.5 -90.5zM716 -71h-520v79h520v-79zM501 195q24 15 41 42q36 56 36 143
t-36 144q-34 58 -92 58q-57 0 -93 -58q-35 -58 -35 -144q0 -85 35 -143q34 -57 93 -57q28 0 51 15z" />
    <glyph glyph-name="onequarter" unicode="&#xbc;" 
d="M270 329h-68v290h-92v57q21 0 40 3.5t33 11.5t22.5 22.5t8.5 35.5h56v-420zM120 -145l-54 40l669 816l53 -38zM750 -162h-68v70h-202v65l205 287h65v-292h61v-60h-61v-70zM682 -34v183l-129 -183h129z" />
    <glyph glyph-name="onehalf" unicode="&#xbd;" 
d="M115 -145l-54 40l669 816l54 -38zM810 -169h-303q0 51 24 95t67 73q10 7 21.5 14t22.5 14q6 4 11.5 7t10.5 7l20 13q21 15 37.5 34.5t17.5 48.5q0 30 -19 50.5t-56 20.5q-43 0 -61.5 -25.5t-17.5 -59.5h-70q-1 25 8.5 51t28.5 46q18 20 46.5 33t66.5 13q71 0 107 -40
q37 -38 37 -90q0 -26 -7.5 -45.5t-19.5 -35.5t-27 -27.5t-30 -20.5q-19 -12 -45.5 -28.5t-47.5 -31.5q-17 -13 -28.5 -29t-14.5 -30h221v-57zM270 329h-68v290h-92v57q21 0 40 3.5t33 11.5t22.5 22.5t8.5 35.5h56v-420z" />
    <glyph glyph-name="threequarters" unicode="&#xbe;" 
d="M748 -162h-68v70h-202v65l205 287h65v-292h61v-60h-61v-70zM144 -145l-54 40l670 816l53 -38zM142 456q0 -36 21.5 -58t63.5 -22q38 0 61 20t23 52q0 23 -15.5 40.5t-39.5 23.5q-8 1 -15.5 2t-16.5 1h-31v59q14 0 33 1t32 7q18 7 29 22.5t11 36.5q0 24 -17.5 43t-53.5 19
q-39 0 -56.5 -22.5t-17.5 -49.5h-69q0 58 38.5 93t104.5 35q61 0 101 -35q40 -34 40 -83q0 -20 -6 -35.5t-14 -27t-18 -20t-17 -12.5q28 -12 48 -39t20 -60q0 -57 -43 -94t-110 -37q-69 0 -114 39q-44 41 -41 101h69zM680 -34v183l-129 -183h129z" />
    <glyph glyph-name="questiondown" unicode="&#xbf;" 
d="M657 -52q-38 -35 -90.5 -57t-104.5 -22q-87 0 -143 53q-55 52 -55 136q0 57 31 107t76 86q35 29 56.5 62.5t21.5 75.5q0 17 -1 38.5t-2 37.5h86q3 -20 4.5 -43.5t1.5 -42.5q0 -46 -24.5 -86.5t-62.5 -72.5q-17 -15 -33 -32t-29 -36.5t-20.5 -41t-7.5 -43.5
q0 -54 30.5 -86t81.5 -32q37 0 76 17t67 41zM546 651q0 -30 -20 -49.5t-48 -19.5q-29 0 -48.5 19.5t-19.5 49.5t19.5 49.5t48.5 19.5q28 0 48 -19.5t20 -49.5z" />
    <glyph glyph-name="AE" unicode="&#xc6;" 
d="M776 -67h-351v247h-165l-114 -247h-87l344 742h372v-85h-268v-225h238v-85h-238v-264h269v-83zM425 265v285l-130 -285h130z" />
    <glyph glyph-name="Eth" unicode="&#xd0;" 
d="M239 -67v259h-134v70h134v413h224q67 0 121.5 -28.5t92.5 -79.5q39 -51 59.5 -118t20.5 -145q0 -79 -20.5 -146.5t-59.5 -118.5q-38 -51 -92.5 -78.5t-121.5 -27.5h-224zM452 13q52 0 92 23t67 63t41.5 92.5t14.5 112.5q0 61 -14.5 114t-41.5 92t-67 61.5t-92 22.5h-130
v-332h215v-70h-215v-179h130z" />
    <glyph glyph-name="multiply" unicode="&#xd7;" 
d="M663 27l-212 212l-208 -209l-64 59l214 208l-205 204l63 60l200 -204l200 202l60 -58l-199 -202l210 -210z" />
    <glyph glyph-name="Oslash" unicode="&#xd8;" 
d="M167 -87l-53 51l95 112q-60 102 -60 231q0 81 22 149t62 117t95.5 76.5t122.5 27.5q60 0 106.5 -21.5t85.5 -60.5l92 111l55 -49l-102 -123q28 -48 43 -99.5t15 -117.5q0 -87 -21.5 -158t-60.5 -122t-93 -79t-118 -28q-121 0 -199 86zM590 532q-26 31 -60.5 48t-76.5 17
q-104 0 -163 -80q-58 -79 -58 -217q0 -48 7 -85.5t25 -70.5zM306 77q22 -30 60.5 -48.5t78.5 -18.5q46 0 86 21t68 60q29 38 45.5 92.5t16.5 120.5q0 48 -8 88t-23 72z" />
    <glyph glyph-name="Thorn" unicode="&#xde;" 
d="M324 -72h-83v751h83v-142h137q46 0 89 -13.5t76 -42.5t53 -74t20 -109t-19.5 -109.5t-51.5 -74.5q-33 -29 -76 -42t-91 -13h-137v-131zM457 140q68 0 109 34q43 34 43 124q0 43 -11 73.5t-31.5 50t-48.5 28t-61 8.5h-133v-318h133z" />
    <glyph glyph-name="germandbls" unicode="&#xdf;" 
d="M324 -173h-88v644q0 97 60 157q28 29 66.5 45.5t83.5 16.5q43 0 79.5 -14t63.5 -39q26 -24 41.5 -57t15.5 -71q0 -51 -25 -94t-79 -62q39 -12 67 -33t46 -49.5t26.5 -63.5t8.5 -74q0 -53 -16.5 -93.5t-46 -68.5t-71 -42.5t-90.5 -14.5q-36 0 -74 6.5t-68 21.5v-115z
M324 22q23 -15 55 -20.5t62 -5.5q72 0 116.5 36t44.5 114t-44 120.5t-122 40.5v84q58 3 89.5 31t31.5 85q0 46 -29.5 76.5t-77.5 30.5q-57 0 -91.5 -37t-34.5 -95v-460z" />
    <glyph glyph-name="ae" unicode="&#xe6;" 
d="M773 71q-14 -69 -55.5 -114t-114.5 -45q-51 0 -92.5 27t-66.5 81q-23 -50 -71 -78q-50 -31 -102 -32q-25 -2 -50.5 4t-47.5 20t-38.5 37t-21.5 58q-5 30 -1.5 58t14.5 52t29.5 42.5t42.5 29.5q39 17 98 22q29 2 55 3.5t49 1.5v68q0 21 -8 38.5t-22.5 30.5t-33.5 20t-41 7
q-45 0 -73 -27.5t-28 -75.5h-75q0 77 50 127q49 49 128 49q58 0 99 -25.5t62 -68.5q25 45 65 69t79 24q85 0 131 -66t46 -192v-52h-289q0 -34 7 -65.5t21 -55.5t34.5 -38.5t48.5 -14.5q35 0 58.5 22.5t28.5 58.5h85zM402 164h-40h-21.5t-21.5 -1q-22 -2 -42 -5.5t-35 -10.5
q-30 -15 -42 -42.5t-4 -62.5q3 -17 13.5 -27t24.5 -15q27 -10 58 -5q15 1 33 7.5t34 19.5q17 12 28 32.5t13 51.5zM696 239q3 69 -21.5 113t-72.5 44q-49 0 -78 -47t-32 -110h204z" />
    <glyph glyph-name="eth" unicode="&#xf0;" 
d="M596 609l-79 -58q63 -68 104.5 -157.5t41.5 -208.5q0 -128 -58 -194.5t-161 -66.5q-101 0 -163 60q-29 28 -45 68.5t-16 89.5q0 51 16 92t46 71q29 30 69.5 47t89.5 17q27 0 54.5 -8.5t47.5 -23.5q-14 45 -41.5 89t-54.5 73l-111 -75l-46 53l106 72q-21 18 -49.5 37
t-55.5 34q5 8 10.5 16.5t10.5 17.5q5 8 10.5 16.5t11.5 17.5q36 -16 70 -37.5t67 -46.5l80 59zM441 1q63 0 95.5 42.5t32.5 112.5q0 60 -35.5 96.5t-95.5 36.5q-63 0 -97.5 -41t-34.5 -107q0 -63 36 -101.5t99 -38.5z" />
    <glyph glyph-name="divide" unicode="&#xf7;" 
d="M525 568q0 -31 -22 -52t-52 -21t-53 20t-23 53q0 32 21 54t53 22q31 0 53.5 -22.5t22.5 -53.5zM775 262h-649v78h649v-78zM525 33q0 -31 -22 -52t-52 -21t-53 20t-23 53q0 32 21 54t53 22q31 0 53.5 -22.5t22.5 -53.5z" />
    <glyph glyph-name="oslash" unicode="&#xf8;" 
d="M252 -142l-63 46l71 96q-37 42 -55 95t-18 110q0 60 19 111t54 89t84.5 60t110.5 22q34 0 65 -8.5t56 -21.5l64 92l61 -46l-63 -91q39 -38 58.5 -93t19.5 -112q0 -69 -21.5 -123t-57.5 -92q-37 -39 -85 -59t-102 -20q-39 0 -69.5 8t-62.5 30zM360 12q18 -14 37 -18.5
t47 -4.5q42 0 77.5 16t61.5 45q26 28 41 67t15 84q0 19 -3.5 40t-9.5 40.5t-14.5 35.5t-19.5 27zM533 395q-36 19 -84 19q-40 0 -73 -16t-57 -44t-37.5 -67.5t-13.5 -85.5q0 -42 11 -75t29 -57z" />
    <glyph glyph-name="thorn" unicode="&#xfe;" 
d="M330 -90h-91v771h91v-172q81 19 151 12.5t127 -41.5q48 -30 72 -79.5t26 -112.5q1 -73 -29 -130t-82 -90q-51 -32 -119 -41t-146 8v-125zM330 113q57 -10 107.5 -7.5t89.5 23.5q38 20 62.5 59.5t21.5 103.5q-3 54 -28 87t-64 48q-42 15 -91.5 13t-97.5 -17v-310z" />
    <glyph glyph-name="dcroat" unicode="&#x111;" 
d="M625 -80h-90v43q-23 -21 -43.5 -34t-40 -19.5t-38 -8.5t-36.5 -2q-51 0 -93 18t-72 52q-31 34 -47.5 80.5t-16.5 106.5q0 57 16.5 104t47.5 81q30 34 72 52.5t93 18.5q21 0 41 -2t39.5 -9t39 -20t40.5 -35v131h-246v69h246v138h88v-138h78v-69h-78v-557zM390 -23
q73 0 111 51q38 53 38 127q0 73 -38 125q-37 52 -111 52q-73 0 -110 -52q-37 -50 -37 -125t37 -127q37 -51 110 -51z" />
    <glyph glyph-name="Hbar" unicode="&#x126;" 
d="M699 -68h-88v347h-324v-347h-86v547h-87v76h87v122h86v-122h324v122h88v-122h85v-76h-85v-547zM611 361v118h-324v-118h324z" />
    <glyph glyph-name="hbar" unicode="&#x127;" 
d="M675 -80h-86v255q0 72 -26.5 112t-80.5 40q-34 0 -58.5 -15.5t-40.5 -40.5q-15 -24 -22.5 -55.5t-7.5 -62.5v-233h-88v557h-102v70h102v138h88v-138h216v-70h-216v-140q30 42 69.5 57t84.5 15q69 0 110 -38q42 -39 49 -84q4 -16 5.5 -36t2.5 -58q1 -20 1 -46v-58v-169z
" />
    <glyph glyph-name="dotlessi" unicode="&#x131;" 
d="M495 -86h-92v565h92v-565z" />
    <glyph glyph-name="IJ" unicode="&#x132;" 
d="M280 -63h-87v738h87v-738zM708 125q0 -51 -15 -89t-40 -63t-58.5 -37.5t-69.5 -12.5q-37 0 -70 12t-58 37t-39.5 62.5t-14.5 88.5v71h87v-64q0 -34 8.5 -56.5t22.5 -35.5t31 -18t33 -5t33 5t31 18t23 35.5t9 56.5v545h87v-550z" />
    <glyph glyph-name="ij" unicode="&#x133;" 
d="M653 582h-94v99h94v-99zM344 582h-95v99h95v-99zM651 -83q0 -39 -8 -63.5t-22 -38.5q-21 -22 -50 -29q-16 -4 -38.5 -5t-55.5 -1v82q8 0 16.5 0.5t16.5 1.5q8 2 15 4.5t12 7.5q15 11 19 28q2 8 2.5 17t0.5 20v539h92v-563zM344 -75h-95v558h95v-558z" />
    <glyph glyph-name="kgreenlandic" unicode="&#x138;" 
d="M603 -93l-183 261q-26 -27 -39 -40t-28 -25v-197h-89v563h89v-248q30 29 61 63t61 67q29 33 53.5 63.5t41.5 53.5h110q-16 -23 -39 -51t-50 -60q-27 -31 -57 -64t-58 -64q0 -1 9 -13.5t23 -32.5q15 -20 34 -45.5t39 -53.5q20 -27 40.5 -55t37.5 -52q18 -24 32 -42.5
t21 -27.5h-109z" />
    <glyph glyph-name="Ldot" unicode="&#x13f;" 
d="M582 284q0 -26 -18.5 -44.5t-41.5 -18.5q-24 0 -42 18.5t-18 44.5q0 25 18 45t42 20t42 -20t18 -45zM678 -69h-435v746h88v-662h347v-84z" />
    <glyph glyph-name="ldot" unicode="&#x140;" 
d="M649 311q0 -29 -20.5 -48.5t-46.5 -19.5q-27 0 -46.5 19.5t-19.5 48.5q0 27 19.5 47t46.5 20q26 0 46.5 -20t20.5 -47zM415 -81h-92v762h92v-762z" />
    <glyph glyph-name="Lslash" unicode="&#x141;" 
d="M711 -70h-434v320q-9 -8 -17 -15.5t-16 -15.5t-16 -15.5t-16 -14.5q-6 5 -12.5 11t-12.5 12q-6 5 -12.5 11t-12.5 12q14 14 28.5 28t28.5 29q14 14 28.5 28t29.5 29v328h84v-243q18 17 35.5 34t35.5 35l12 -12l6 -6t7 -5l12 -12l6 -6t7 -5q-15 -16 -30.5 -31t-30.5 -30
l-60 -60v-324h350v-82z" />
    <glyph glyph-name="lslash" unicode="&#x142;" 
d="M496 -81h-94v315l-126 -111l-41 51l167 147v361h94v-280l131 113l40 -50l-171 -149v-397z" />
    <glyph glyph-name="napostrophe" unicode="&#x149;" 
d="M715 -80h-87v347q0 80 -36 110q-35 31 -84 31q-33 0 -59 -12.5t-44 -34.5t-28 -52t-10 -66v-323h-86v548h86v-62q33 43 73 63t91 20q48 0 82.5 -17t57.5 -43q22 -27 33 -60t11 -66v-383zM211 603q22 9 41 0q29 -18 21 -44q-4 -13 -9.5 -25.5t-13.5 -24.5
q-11 -15 -27.5 -37t-34.5 -42q-17 -21 -32 -35t-21 -14q-9 0 -15 6.5t-6 16.5q0 5 8 25.5t19 46.5t22.5 53.5t19.5 46.5q7 19 28 27z" />
    <glyph glyph-name="Eng" unicode="&#x14a;" 
d="M699 200q0 -63 -18 -111.5t-49 -80.5q-31 -33 -73.5 -49t-91.5 -14v89q59 0 102 37q44 38 44 118v271q0 30 -5 54.5t-16.5 42t-31.5 26t-50 7.5q-48 -3 -89 -22t-71 -46t-47 -57t-17 -54v-412h-90v676h90v-125q16 26 41 46.5t53 35.5q27 15 53.5 24t45.5 12q40 7 79.5 2
t70.5 -23t50.5 -47.5t19.5 -71.5v-328z" />
    <glyph glyph-name="eng" unicode="&#x14b;" 
d="M655 -45q0 -45 -8.5 -73.5t-19.5 -41.5q-19 -22 -46 -33q-13 -5 -35 -7t-54 -1v80q53 6 67 35q8 13 9.5 29.5t1.5 34.5v288q0 78 -30.5 112t-75.5 34q-60 0 -98 -47q-37 -46 -37 -118v-282h-85v506h85v-65q23 42 64 64t93 22q42 0 74 -16.5t53 -41.5q21 -26 31.5 -58.5
t10.5 -65.5v-355z" />
    <glyph glyph-name="OE" unicode="&#x152;" 
d="M832 -51h-392v20q-18 -17 -47.5 -27t-59.5 -10q-60 0 -108 28t-83 79t-54 119.5t-19 149.5t20 148t56 116q36 48 85.5 75.5t107.5 27.5q28 0 54.5 -9t47.5 -23v10h392v-85h-306v-208h268v-84h-268v-243h306v-84zM440 549q-19 18 -45.5 31t-59.5 13q-42 0 -74.5 -21.5
t-56.5 -58.5q-23 -38 -36 -90t-13 -113q0 -72 14.5 -127t39.5 -93t57.5 -57.5t68.5 -19.5q32 0 60 13.5t45 36.5v486z" />
    <glyph glyph-name="oe" unicode="&#x153;" 
d="M787 56q-11 -29 -25.5 -55t-35.5 -46q-21 -21 -48.5 -32.5t-63.5 -11.5q-23 0 -46 7t-44.5 22.5t-40 41t-31.5 63.5q-25 -72 -68 -103.5t-91 -31.5q-43 0 -78.5 21.5t-60.5 59.5t-38.5 90t-13.5 113q0 60 13.5 112t38.5 90t60.5 60t78.5 22q48 0 89 -29.5t69 -98.5
q27 66 70 96.5t91 30.5q36 0 71 -18.5t62 -57.5q27 -38 43 -97.5t15 -141.5h-297q1 -30 8 -60.5t20 -54.5q13 -25 32.5 -40t45.5 -15q15 0 28.5 6t24 15t18.5 20.5t11 22.5h93zM192 118q7 -37 20 -67q14 -29 34 -46.5t47 -17.5q26 0 46 17.5t34 46.5q13 30 20 67t7 76
q0 38 -7 75t-20 66q-14 29 -34 47t-46 18q-27 0 -47 -18t-34 -47q-13 -29 -20 -66t-7 -75q0 -39 7 -76zM713 240q-2 28 -9.5 56t-20.5 50t-31 35.5t-40 13.5q-23 0 -41.5 -13t-31.5 -34q-13 -22 -21 -50t-9 -58h204z" />
    <glyph glyph-name="Tbar" unicode="&#x166;" 
d="M495 -71h-89v372h-172v73h172v221h-210v81h509v-81h-210v-221h172v-73h-172v-372z" />
    <glyph glyph-name="tbar" unicode="&#x167;" 
d="M603 -72h-113q-58 0 -79 30t-21 85v203h-125v67h125v147l-98 -28l-22 59l120 36v102h93v-75l89 26l22 -59l-111 -33v-175h122v-67h-122v-181q0 -31 10.5 -39.5t40.5 -8.5h69v-89z" />
    <glyph glyph-name="caron" unicode="&#x2c7;" 
d="M464 606q-14 -12 -28 0l-190 152q-24 18 -12 31q13 14 39 1l176 -90l177 91q25 13 38 -1q13 -13 -10 -31z" />
    <glyph glyph-name="uni02D0" unicode="&#x2d0;" horiz-adv-x="450" 
d="M225 401l-108 184h211zM328 111h-211l108 184z" />
    <glyph glyph-name="breve" unicode="&#x2d8;" 
d="M664 779q-43 -69 -92 -99t-115 -33q-72 -4 -127.5 26t-100.5 100l49 30q36 -54 77 -76.5t96 -20.5q51 1 87 22t71 70z" />
    <glyph glyph-name="dotaccent" unicode="&#x2d9;" 
d="M521 730q0 -30 -22 -50.5t-49 -20.5q-30 0 -50 22.5t-20 50.5q0 27 22 47.5t49 20.5q28 0 49 -21t21 -49z" />
    <glyph glyph-name="ring" unicode="&#x2da;" 
d="M558 701q0 -43 -32 -73q-32 -29 -75 -29q-22 0 -41 8t-33.5 21.5t-22.5 32.5t-8 40t8 39.5t22.5 32t33.5 21.5t41 8t41.5 -8t34 -21.5t23 -32t8.5 -39.5zM491 663q17 16 17 38q0 21 -16.5 37t-40.5 16q-23 0 -39 -16t-16 -37q0 -22 16 -38t39 -16q24 0 40 16z" />
    <glyph glyph-name="ogonek" unicode="&#x2db;" horiz-adv-x="450" 
d="M301 -99q6 6 12 6q8 0 11 -6t3 -12q0 -17 -6 -32.5t-16.5 -27.5t-24 -19.5t-28.5 -7.5q-33 0 -55.5 26.5t-22.5 62.5q0 26 13.5 53t39.5 50q5 4 9.5 6.5t7.5 2.5q13 0 13 -13q0 -9 -4.5 -17t-8.5 -17q-5 -9 -9 -21t-4 -28q0 -17 8.5 -26.5t20.5 -9.5q9 0 16 5.5t13 12.5z
" />
    <glyph glyph-name="hungarumlaut" unicode="&#x2dd;" 
d="M459 801q21 4 32 -11q9 -15 8.5 -30.5t-9.5 -23.5q-17 -15 -47 -32.5t-61 -32.5q-30 -15 -55.5 -25t-31.5 -11q-9 -1 -11 4.5t5 13.5q15 15 32.5 33.5t36.5 36.5q19 19 37 36t33 31q10 8 31 11zM627 801q21 4 32 -11q9 -15 8.5 -30.5t-9.5 -23.5q-17 -15 -47 -32.5
t-61 -32.5q-30 -15 -55.5 -25t-31.5 -11q-9 -1 -11 4.5t5 13.5q15 15 32.5 33.5t36.5 36.5q19 19 37 36t33 31q10 8 31 11z" />
    <glyph glyph-name="Alpha" unicode="&#x391;" 
d="M754 -69h-99l-18 187h-337l-121 -187h-103l482 747h116zM628 205l-38 381l-235 -380z" />
    <glyph glyph-name="Beta" unicode="&#x392;" 
d="M109 -71l214 749l215 -1q51 -1 87.5 -14t63.5 -44q43 -49 43 -118q0 -66 -34.5 -109t-106.5 -75q116 -50 116 -180q0 -46 -17.5 -87.5t-47.5 -67.5q-59 -53 -162 -53h-371zM485 366q33 0 61.5 10t49.5 28q21 17 33 40t12 49q0 45 -31 74t-80 29h-140l-66 -230h161z
M480 11q66 0 104 34.5t38 92.5q0 30 -11 57t-29 46q-19 20 -44 31.5t-53 11.5h-182l-79 -273h256z" />
    <glyph glyph-name="Gamma" unicode="&#x393;" 
d="M122 -70q25 94 50 186.5t51 186.5q25 94 50 187.5t51 187.5h391q13 -39 26.5 -77.5t27.5 -76.5q-11 -4 -21.5 -8t-21.5 -7q-11 -4 -21.5 -8t-20.5 -7l-36 90h-252q-45 -165 -89 -327.5t-87 -326.5h-98z" />
    <glyph glyph-name="uni0394" unicode="&#x394;" 
d="M734 -69h-689q75 94 149 186t149 186t150 187t150 187h91v-746zM646 16q0 136 0.5 270t0.5 270q-57 -69 -111.5 -136t-108.5 -134q-55 -69 -110 -136l-110 -134h439z" />
    <glyph glyph-name="Epsilon" unicode="&#x395;" 
d="M591 12q-3 -11 -5.5 -21t-5.5 -20q-3 -11 -5.5 -21t-4.5 -20h-452q28 94 57 186.5t59 186.5q29 94 58 187t58 187h424q-4 -11 -7 -21t-6 -21q-4 -10 -7 -20.5t-6 -20.5h-328l-75 -237h320q-4 -11 -7.5 -21t-7.5 -21q-4 -10 -7.5 -20.5t-6.5 -20.5h-317l-20 -66
q-5 -17 -10 -33l-10 -32q-11 -33 -21 -66t-19 -65h352z" />
    <glyph glyph-name="Zeta" unicode="&#x396;" 
d="M649 21q-3 -11 -5 -22.5t-4 -22.5q-3 -11 -5 -22.5t-4 -22.5h-504q4 23 8.5 45.5t9.5 45.5l122 140t122 142t121.5 141.5t123.5 141.5h-360q2 11 4.5 22.5t5.5 22.5q2 11 4.5 22.5t5.5 23.5h473q-3 -12 -5.5 -24t-4.5 -24q-3 -12 -5.5 -24t-4.5 -24l-123 -141l-122 -140
q-31 -35 -61.5 -70t-61.5 -70l-122 -140h392z" />
    <glyph glyph-name="Eta" unicode="&#x397;" 
d="M535 -69l46 170t47 173h-365q-12 -45 -23.5 -87.5t-22.5 -84.5q-12 -43 -23.5 -86t-22.5 -85h-98q25 94 50.5 186.5t50.5 186.5t50.5 187t51.5 187h97q-11 -40 -21.5 -79.5t-21.5 -79.5q-10 -40 -21 -79.5t-21 -78.5h363q10 39 20.5 78.5t21.5 79.5q19 79 42 159h95
q-26 -94 -51 -187t-50 -187t-50 -186.5t-49 -186.5h-95z" />
    <glyph glyph-name="Theta" unicode="&#x398;" 
d="M671 59q-42 -64 -113.5 -99t-152.5 -35q-125 0 -201 69t-76 201q0 46 8.5 96t24.5 98q16 49 38 94t49 82q42 57 106 87t149 30q63 0 114 -17.5t86.5 -51.5t55 -83.5t19.5 -113.5q0 -46 -8 -95t-23 -97q-14 -48 -33.5 -90.5t-42.5 -74.5zM504 22q43 17 77 56
q23 26 43.5 69t35.5 92q15 51 24 100.5t9 91.5q0 85 -49 128.5t-142 43.5q-60 -1 -101.5 -18.5t-74.5 -56.5q-27 -32 -47.5 -71t-34.5 -84t-21.5 -90t-7.5 -87q0 -97 50 -144t138 -47q58 0 101 17zM519 214q2 8 3 13l4 14q2 8 3 13l4 14h-185l-4 -14q-1 -5 -3 -13l-4 -14
q-1 -5 -3 -13h-47l39 177h48q-2 -7 -3.5 -14t-3.5 -14q-4 -13 -6 -27h185q2 14 6 27q2 7 3.5 14t3.5 14h48q-2 -11 -5 -22.5t-5 -22.5l-10 -44q-6 -22 -11 -44t-9 -44h-48z" />
    <glyph glyph-name="Iota" unicode="&#x399;" 
d="M298 -69q49 187 98 372.5t98 374.5h101q-25 -94 -50 -187t-49 -187q-25 -94 -50 -186.5t-49 -186.5h-99z" />
    <glyph glyph-name="Kappa" unicode="&#x39a;" 
d="M565 -67l-192 246q-16 20 -31.5 41t-31.5 42q-5 -21 -9 -42t-9 -41l-18 -82q-9 -42 -17.5 -82t-17.5 -82h-88q39 186 78 370.5t78 371.5h93l-69 -312q81 78 162.5 156t163.5 156h116l-390 -372q36 -48 72.5 -93.5t73.5 -91.5q36 -48 72.5 -93.5t73.5 -91.5h-110z" />
    <glyph glyph-name="Lambda" unicode="&#x39b;" 
d="M562 -63v310q0 78 0.5 155.5t0.5 155.5l-360 -621h-98q52 91 105 182.5t107 184.5l106 184q26 46 53 92t53 93h128q0 -186 0.5 -369t0.5 -367h-96z" />
    <glyph glyph-name="Mu" unicode="&#x39c;" 
d="M586 -68l126 612q-38 -78 -75 -154t-73 -152q-37 -78 -74 -154l-74 -152h-71q-8 79 -15.5 158.5t-15.5 158.5q-8 81 -15.5 159.5t-14.5 159.5q-17 -81 -33 -159.5t-31 -159.5q-16 -79 -32 -158.5t-32 -158.5h-88l76 372q18 94 37 186.5t39 186.5h131q7 -75 14 -147
t15 -145q7 -73 14 -145.5t15 -145.5q34 73 69 145.5t70 145.5q34 73 69 145t70 147h141q-38 -188 -75.5 -373t-74.5 -372h-92z" />
    <glyph glyph-name="Nu" unicode="&#x39d;" 
d="M622 -69h-112q-45 157 -88.5 313t-86.5 314q-17 -79 -34 -157.5t-33 -156.5q-17 -78 -34 -156.5t-33 -156.5h-96q42 187 83.5 372.5t83.5 373.5h120q21 -78 42 -155t42 -155t42.5 -154.5t42.5 -154.5q16 78 33 154.5t35 154.5q17 78 34 155t34 155h95q-22 -94 -43 -187
t-42 -187q-11 -47 -21.5 -93t-21.5 -93z" />
    <glyph glyph-name="Xi" unicode="&#x39e;" 
d="M719 536h-65l10 55h-280l-16 -55h-68l32 141h422zM635 267h-374l22 86h373zM627 -69h-474l35 140h69l-13 -55h334l16 55h69z" />
    <glyph glyph-name="Omicron" unicode="&#x39f;" 
d="M667 85q-42 -69 -104 -112t-146 -43q-132 0 -199.5 73t-67.5 202q0 78 20 154t57 145q46 88 109.5 131t154.5 43q123 0 192 -69.5t69 -199.5q0 -85 -21.5 -170t-63.5 -154zM524 51q24 19 44.5 49.5t39.5 73.5q24 57 38 118t14 116q0 42 -11 77t-32.5 60.5t-53 40
t-72.5 14.5q-104 0 -164 -98q-20 -32 -36.5 -71.5t-27.5 -81.5q-12 -42 -18.5 -83.5t-6.5 -76.5q0 -81 45.5 -127.5t126.5 -46.5q34 0 62.5 8.5t51.5 27.5z" />
    <glyph glyph-name="Pi" unicode="&#x3a0;" 
d="M491 -66l32 164q8 42 16 82.5t16 82.5q15 82 31 164t33 166h-267q-17 -84 -34 -166t-33 -164q-17 -84 -34 -165.5t-33 -163.5h-91q33 165 66.5 329t67.5 330h-64q2 10 4.5 20t4.5 21q2 10 4.5 20t5.5 21h564q-3 -11 -5.5 -21t-5.5 -20q-3 -11 -5.5 -21t-4.5 -20h-49
q-16 -84 -32 -166l-32 -164q-16 -84 -32 -165.5t-31 -163.5h-92z" />
    <glyph glyph-name="Rho" unicode="&#x3a1;" 
d="M155 -66l147 741h218q97 0 150 -51.5t53 -145.5q0 -112 -59 -174t-171 -62h-186q-8 -39 -16 -77.5t-15 -76.5q-8 -39 -16 -77.5t-15 -76.5h-90zM486 325q70 0 108 38t38 116q0 57 -32 84.5t-92 27.5h-137q-12 -66 -24 -133t-23 -133h162z" />
    <glyph glyph-name="Sigma" unicode="&#x3a3;" 
d="M638 15q-3 -11 -5.5 -21t-4.5 -20t-4.5 -20t-4.5 -20h-490q2 10 4.5 21.5t5.5 22.5t5.5 22.5t5.5 22.5q69 76 139 152t139 154q-42 64 -82 128t-82 130q1 9 5 22l6 22q2 10 5 21t6 23h452q-4 -21 -8.5 -42t-8.5 -41h-356q21 -34 42 -67.5t43 -66.5q21 -34 42 -67.5
t43 -66.5q-35 -39 -70 -77.5t-70 -77.5q-36 -39 -71 -77.5t-69 -76.5h383z" />
    <glyph glyph-name="Tau" unicode="&#x3a4;" 
d="M290 -68q15 82 30.5 164.5t31.5 164.5q15 82 30.5 164t31.5 166h-216q5 21 10 42.5t10 42.5h500q-5 -21 -10 -42.5t-10 -42.5h-191q-32 -167 -63 -330q-16 -82 -31.5 -164.5t-30.5 -164.5h-92z" />
    <glyph glyph-name="Upsilon" unicode="&#x3a5;" 
d="M386 15q-4 -22 -7 -43l-6 -42h-86l30 188t30 191q7 48 7.5 91.5t-11.5 81.5q-12 37 -41 68t-80 52q7 21 14.5 41t15.5 41q78 -28 120.5 -71.5t51.5 -110.5q38 83 104 125q69 45 195 52l-21 -96q-114 -12 -182 -83q-66 -69 -92 -226q-8 -45 -15 -87.5t-13 -85.5z" />
    <glyph glyph-name="Phi" unicode="&#x3a6;" 
d="M317 -65q2 8 4 16.5t4 16.5t4 16.5t5 16.5q-59 9 -100.5 28.5t-68 50.5t-39.5 74t-14 100q-2 75 21.5 140t71.5 114q46 49 113 77t154 30q1 4 1.5 7t1.5 7l4 14q1 7 3 14t4 15h87l-4 -16q-1 -4 -1.5 -8t-1.5 -8l-4 -16l-3 -15q118 -18 173 -79.5t55 -170.5
q0 -93 -39 -175q-37 -82 -98 -129q-40 -31 -94.5 -46t-135.5 -12q-2 -8 -4 -15.5t-4 -15.5q-7 -18 -8 -31h-87zM660 474q-38 44 -119 53q-13 -57 -26 -111.5t-26 -111.5t-26 -112t-25 -110q63 0 111.5 21.5t81.5 59.5t50 88.5t17 107.5q0 72 -38 115zM456 533q-27 -2 -48 -5
t-37.5 -7.5t-30.5 -11.5t-28 -16q-52 -36 -82.5 -98t-30.5 -134q0 -75 37 -117.5t115 -54.5z" />
    <glyph glyph-name="Chi" unicode="&#x3a7;" 
d="M572 -69q-8 19 -16.5 38t-16.5 39l-32 78q-16 38 -32.5 77t-32.5 78q-60 -78 -119.5 -155t-119.5 -155h-107l152 196q37 49 75 97.5t77 99.5l-147 354h97l117 -276l207 276h103q-34 -46 -68 -91.5t-67 -90.5q-34 -46 -68 -91.5t-67 -90.5q20 -48 40.5 -96t41.5 -96
t41.5 -95.5t41.5 -95.5h-100z" />
    <glyph glyph-name="Psi" unicode="&#x3a8;" 
d="M390 -69h-89q5 27 10.5 54.5t10.5 54.5t10.5 54.5t11.5 55.5q-129 5 -177 47q-49 43 -49 128q0 27 7.5 70t23.5 112q7 31 11.5 56t4.5 39q0 15 -2 25.5t-4 18.5t-5 13.5t-4 10.5q9 1 21.5 1h28.5q16 1 28.5 1h21.5q11 -18 6 -55q-2 -18 -6.5 -38.5t-9.5 -43.5
q-17 -71 -28 -121q-5 -25 -8 -45t-3 -37q0 -27 7 -45.5t24 -29.5q18 -12 47.5 -17.5t77.5 -6.5q20 111 40.5 220t41.5 221h90q-23 -113 -42 -222q-11 -55 -21.5 -110.5t-20.5 -110.5q60 0 97.5 8t61.5 36q23 28 38 82.5t32 147.5q10 58 18.5 91.5t14.5 50.5q6 16 9.5 20.5
t4.5 6.5h50q17 0 31 -0.5t17 -1.5q-3 -4 -5.5 -7.5t-4.5 -7.5q-3 -5 -6 -10.5t-6 -13.5q-8 -17 -14 -39.5t-11 -49.5t-11 -58.5t-13 -65.5q-17 -75 -35 -127t-51 -85q-33 -34 -87.5 -48.5t-142.5 -12.5z" />
    <glyph glyph-name="uni03A9" unicode="&#x3a9;" 
d="M665 -64h-263q6 29 13 58t15 59q127 66 184 150.5t57 194.5q0 43 -13 79t-37.5 61t-59 39t-77.5 14q-52 0 -92.5 -22t-69.5 -61q-28 -39 -43 -92t-15 -114q0 -82 25 -138q13 -28 34 -57t51 -58q-4 -15 -8 -29t-7 -28l-8 -28q-2 -7 -3.5 -14t-3.5 -14h-242l21 81h172
q-67 74 -92 141q-25 68 -25 157q0 79 22 145.5t64 114.5t98 75t125 27q61 0 111 -20t86 -55q36 -36 56 -86t20 -110q0 -69 -17 -127.5t-49 -106.5t-77 -86.5t-100 -68.5h166z" />
    <glyph glyph-name="alpha" unicode="&#x3b1;" horiz-adv-x="650" 
d="M478 -62q-9 -2 -17 -2.5t-14 -0.5q-39 0 -57 17.5t-28 62.5q-42 -40 -80 -63q-34 -22 -89 -22q-72 0 -114.5 52t-42.5 139q0 67 20.5 132.5t57.5 116.5q36 51 85 83t106 32q52 -1 82.5 -21.5t43.5 -55.5q13 -36 12 -85t-10 -106q19 34 33.5 63.5t25.5 58.5t19.5 59.5
t16.5 65.5q20 -9 40 -18.5t40 -18.5q-17 -54 -33.5 -97.5t-36.5 -82.5t-45 -76.5t-58 -79.5q3 -36 11.5 -51t34.5 -15h5q4 0 7 1q4 1 8 1.5t10 2.5q-10 -25 -17 -46zM353 359q-15 35 -57 37q-32 0 -63 -24.5t-56 -62.5q-24 -39 -39.5 -85.5t-15.5 -91.5q0 -23 6 -44
t17.5 -36.5t28.5 -25t40 -9.5q30 0 55.5 14t52.5 44q11 12 18.5 20t11.5 25q5 18 8 52.5t6 101.5q2 51 -13 85z" />
    <glyph glyph-name="beta" unicode="&#x3b2;" horiz-adv-x="650" 
d="M146 -81q-5 -22 -10 -43l-10 -42h-88q16 72 32.5 143t32.5 143l32 144l33 144q30 135 83.5 203t148.5 68q36 0 66 -11t51 -31.5t32.5 -49t11.5 -62.5q0 -63 -32.5 -106.5t-107.5 -70.5q57 -27 83 -70t26 -109q0 -54 -17 -97.5t-46 -75.5q-30 -32 -69.5 -49.5t-85.5 -17.5
q-44 0 -77 16.5t-69 59.5zM281 305q1 5 1.5 10t1.5 10l4 20q2 9 3.5 19t3.5 21h40q31 0 56 11t43 29q17 19 27 42.5t10 49.5q0 35 -20.5 57.5t-55.5 22.5q-46 0 -77 -38.5t-49 -111.5q-9 -39 -22.5 -92.5t-26.5 -104.5t-21.5 -90.5t-8.5 -49.5q0 -26 9.5 -45t25 -32
t36 -19.5t41.5 -6.5q30 0 55 12.5t43 34t28 52t10 66.5q0 30 -8.5 54.5t-24 42t-37 27.5t-46.5 10q-6 0 -11 -0.5t-10 -0.5h-20z" />
    <glyph glyph-name="gamma" unicode="&#x3b3;" horiz-adv-x="650" 
d="M187 -73q17 97 27 159.5t16 101.5q5 38 7 57t2 28q0 48 -25 77.5t-68 29.5q-15 0 -30 -4t-37 -16l-4 91q25 15 41.5 19.5t40.5 4.5q54 0 87 -28t59 -97q21 34 39.5 57t39.5 36q20 14 43 19.5t52 5.5q27 0 49.5 -6t56.5 -21l-28 -92q-25 12 -41 16.5t-34 4.5
q-40 0 -67.5 -15.5t-47.5 -45.5q-6 -8 -10 -15t-7.5 -16t-7 -22t-7.5 -32q-7 -37 -18 -106.5t-30 -190.5h-98z" />
    <glyph glyph-name="delta" unicode="&#x3b4;" horiz-adv-x="650" 
d="M573 598q-2 -10 -3 -20q-33 9 -73.5 14.5t-76.5 5.5t-60.5 -6t-24.5 -19q0 -9 8 -20t21.5 -24.5l30 -30t34.5 -36.5t34.5 -43.5t30 -51t21.5 -59.5t8 -68q0 -51 -15.5 -106t-46.5 -101q-32 -46 -79 -76t-111 -30q-94 0 -142.5 54.5t-48.5 154.5q0 64 24 129q13 32 28 58
t33 45q33 34 75.5 49.5t102.5 19.5q-42 42 -65.5 68.5t-36.5 43.5q-13 18 -16.5 29.5t-3.5 22.5q0 37 53.5 58.5t158.5 21.5q18 0 34.5 -1t34 -3t37.5 -6t46 -10q-2 -11 -4 -21.5t-4 -20.5t-4 -21zM331 28q31 21 53 54q23 33 36 74.5t13 86.5q0 55 -26 88t-74 33
q-35 0 -64.5 -23t-51.5 -59q-22 -35 -34 -78t-12 -82q0 -51 25 -82.5t70 -31.5q35 0 65 20z" />
    <glyph glyph-name="epsilon" unicode="&#x3b5;" horiz-adv-x="650" 
d="M456 277q-3 -11 -5.5 -21.5t-4.5 -20.5q-3 -11 -5.5 -21.5t-4.5 -20.5h-80q-76 0 -119.5 -26t-43.5 -74q0 -40 31 -60t88 -20q48 0 95 11.5t112 41.5q-3 -13 -5.5 -25.5t-4.5 -24.5q-3 -12 -5.5 -24.5t-4.5 -24.5q-54 -21 -101 -30t-101 -9q-108 0 -157.5 40t-49.5 113
q0 57 30 94.5t102 61.5q-31 29 -43 51.5t-12 49.5q0 65 58 105q58 42 152 42q53 0 99 -11q23 -5 49 -14.5t57 -23.5q-2 -5 -3.5 -10.5t-3.5 -10.5l-6 -20q-4 -10 -7 -20t-6 -19q-57 24 -98 34.5t-83 10.5q-48 0 -77.5 -18.5t-29.5 -51.5q0 -26 22.5 -40t60.5 -14h105z" />
    <glyph glyph-name="zeta" unicode="&#x3b6;" horiz-adv-x="650" 
d="M263 -125q21 -6 34 -7t26 -1q30 0 48 11t18 33q0 23 -19.5 37t-55.5 21q-32 5 -69.5 9.5t-70.5 16.5q-32 12 -54 36t-22 70q0 15 3 30t10.5 33t20.5 39.5t34 50.5q28 39 53.5 73.5t52.5 69.5t57 72.5t68 83.5h-233q6 19 12 42q3 10 6.5 20.5t6.5 21.5h248q12 0 22.5 5.5
t17.5 12.5q8 7 13 13.5t7 8.5q9 -4 21 -14t23 -23q10 -12 17.5 -25.5t8.5 -23.5q0 -11 -7.5 -17t-17.5 -9q-11 -3 -21.5 -5.5t-16.5 -6.5q-10 -9 -29 -29.5t-43 -49.5t-51.5 -64t-54.5 -71q-28 -37 -53 -72.5t-44 -66.5q-42 -62 -42 -87q0 -13 4.5 -21t16.5 -13t31.5 -8.5
t49.5 -6.5q107 -13 151 -45q44 -30 44 -96q0 -69 -40 -106t-109 -37q-15 0 -36 1.5t-52 6.5q1 11 3 21.5t5 21.5z" />
    <glyph glyph-name="eta" unicode="&#x3b7;" horiz-adv-x="650" 
d="M389 -146q17 102 34.5 201.5t36.5 202.5q3 16 5 39.5t-3 45.5q-5 21 -21 37t-50 16q-58 0 -104 -36q-46 -34 -55 -94q-6 -36 -12.5 -71t-12.5 -70l-6 -36t-6 -35l-12 -70h-98q10 60 20.5 121t21.5 122q10 61 21 121.5t22 123.5h93q-1 -4 -1.5 -8t-1.5 -8l-2 -16
q-2 -8 -3 -16t-2 -15q40 42 76 58t75 16q34 0 65 -10.5t53 -31.5q23 -21 34.5 -53t7.5 -75q-6 -57 -15 -114t-20 -115t-22.5 -115.5t-21.5 -114.5h-96z" />
    <glyph glyph-name="theta" unicode="&#x3b8;" horiz-adv-x="650" 
d="M462 55q-39 -66 -86 -97t-107 -31q-87 0 -132.5 55t-45.5 161q0 52 8 108.5t23 113.5q14 55 34.5 105.5t45.5 90.5q35 57 86.5 88t111.5 31q81 0 127.5 -55.5t46.5 -155.5q0 -51 -8.5 -106.5t-23.5 -110.5t-35.5 -106t-44.5 -91zM474 341q5 39 9 73t4 54q0 64 -22.5 99.5
t-70.5 35.5q-39 0 -69 -24.5t-52 -62.5t-38 -84t-26 -91h265zM191 267q-6 -39 -9 -68.5t-3 -54.5q0 -69 21 -104t72 -35q57 0 101 61.5t80 200.5h-262z" />
    <glyph glyph-name="iota" unicode="&#x3b9;" horiz-adv-x="420" 
d="M297 -60q-33 -6 -59 -7.5t-54 -1.5q-42 0 -58.5 14.5t-16.5 44.5q0 8 0.5 16.5t2.5 17.5q1 16 6 34q6 26 12 51.5t12 51.5l24 104q12 51 24 103t25 104h92q-11 -45 -21 -90.5t-20 -90.5t-20 -90.5t-20 -90.5q-5 -18 -8 -36t-3 -27q0 -21 11.5 -27.5t32.5 -6.5
q12 0 28.5 2t26.5 7q-2 -5 -3 -10.5t-2 -10.5l-4 -20q-1 -5 -2 -10.5t-2 -10.5z" />
    <glyph glyph-name="kappa" unicode="&#x3ba;" horiz-adv-x="650" 
d="M378 -69q-45 60 -88 120.5t-86 121.5q-7 -31 -13 -61.5t-12 -60.5q-4 -15 -7 -30l-6 -30l-12 -60h-95q29 136 58 270.5t58 271.5h96q-6 -26 -11.5 -52t-11.5 -51q-6 -26 -11.5 -52t-10.5 -51q31 25 62.5 51t62.5 52q31 25 62 51t63 52h127l-321 -261q25 -36 50.5 -71
t51.5 -70q25 -35 50.5 -70t51.5 -70h-108z" />
    <glyph glyph-name="lambda" unicode="&#x3bb;" horiz-adv-x="650" 
d="M532 -72q-23 27 -35 44t-21 35q-17 28 -29.5 65.5t-23.5 82.5q-10 45 -20.5 94.5t-22.5 106.5q-23 -15 -33.5 -25.5t-22.5 -31.5q-6 -11 -16 -31t-20 -42q-11 -23 -20.5 -43.5t-14.5 -32.5q-21 -46 -39.5 -79.5t-38.5 -58.5q-20 -26 -43.5 -46t-53.5 -39l-32 40
q-8 9 -16 19t-15 21q27 13 49.5 30.5t44.5 43.5q21 26 42 62.5t46 87.5l33 69q14 30 25.5 51t24.5 38q12 16 26.5 30t34.5 29q-14 36 -27 60.5t-29 41.5q-15 18 -35 30t-47 24q5 9 10.5 18.5t10.5 19.5t10.5 19.5t11.5 19.5q31 -13 55 -26.5t41 -29.5q35 -32 65 -87
q21 -42 35.5 -87.5t25.5 -91.5q12 -46 22.5 -91.5t24.5 -90.5q10 -34 20.5 -61t22.5 -49t26 -40.5t32 -35.5z" />
    <glyph glyph-name="uni03BC" unicode="&#x3bc;" horiz-adv-x="650" 
d="M166 -108q-2 -10 -3.5 -19.5t-3.5 -19.5h-98q15 78 30.5 155.5t30.5 155.5t30.5 155.5t31.5 155.5h97q-12 -66 -24 -132.5t-24 -132.5q-2 -12 -4.5 -23t-3.5 -22q-4 -20 -4 -42q0 -48 23 -78t65 -30q51 0 84.5 41.5t47.5 120.5q6 37 12.5 74.5t13.5 74.5q6 37 12.5 74
t13.5 75h97q-16 -88 -31.5 -174.5t-30.5 -174.5q-4 -19 -5.5 -36t-1.5 -28q0 -20 11 -27.5t41 -9.5q-2 -5 -2.5 -10.5t-2.5 -14.5q-1 -9 -4 -22.5t-7 -35.5q-59 0 -83 11q-22 10 -34 47q-18 -21 -34 -34.5t-31 -22t-31.5 -11.5t-35.5 -3q-39 0 -66.5 18.5t-51.5 64.5z" />
    <glyph glyph-name="nu" unicode="&#x3bd;" horiz-adv-x="650" 
d="M614 413l-2 -12t-2 -13q-51 9 -80 -44q-29 -54 -60 -152q-23 -69 -41.5 -120t-38.5 -84q-37 -65 -97 -64q-20 0 -35 7t-26.5 19t-19 27.5t-13.5 32.5q-10 34 -12.5 68t-3.5 51q-6 78 -11 128t-13 80q-8 29 -21 40t-34 10q-11 -1 -23 -5t-33 -19l-8 20q-2 5 -3.5 10.5
t-3.5 10.5l-8 20q-2 5 -3.5 10.5t-3.5 10.5q27 20 48 28t48 8q45 0 73.5 -18t47.5 -57q14 -31 22 -94.5t14 -174.5q3 -55 8.5 -82t21.5 -27q7 0 16 11.5t19 29.5q9 18 17.5 40t14.5 43q15 54 24 81.5t14 43.5q5 15 8 23t8 21q16 48 32.5 79.5t38.5 49.5t53 25.5t79 7.5
q-2 -12 -3.5 -23.5t-3.5 -22.5z" />
    <glyph glyph-name="xi" unicode="&#x3be;" horiz-adv-x="650" 
d="M460 269q-23 0 -41.5 -0.5t-35.5 -0.5q-42 -2 -76.5 -14.5t-61.5 -32.5q-26 -20 -41 -46t-15 -56q0 -29 15.5 -44t55.5 -23q54 -12 92 -22t61 -24t33.5 -35.5t10.5 -55.5q0 -67 -42 -100t-118 -33q-12 0 -31 1.5t-40 4.5q3 21 7 42t9 42q18 -4 29 -5t22 -1
q33 0 52.5 10.5t19.5 32.5q0 26 -27 35t-64 15q-83 11 -131 44.5t-48 103.5q0 72 48 127t145 88q-46 23 -62.5 45t-16.5 55q0 37 23.5 68t80.5 64h-111q2 10 4.5 20t5.5 20q3 9 5.5 19t5.5 21h240q13 0 26 4t23 9q5 2 9 5t8 5t6.5 4t4.5 3q1 -1 2.5 -3t3.5 -4q4 -4 7.5 -8.5
t8.5 -9.5q8 -11 15 -25t7 -28q0 -10 -4.5 -13.5t-16.5 -5.5q-12 -1 -33.5 -3t-55.5 -8q-48 -14 -81.5 -28.5t-53.5 -30.5t-29 -33t-9 -35q0 -40 38.5 -58t102.5 -18h36z" />
    <glyph glyph-name="omicron" unicode="&#x3bf;" horiz-adv-x="650" 
d="M94 221q8 41 24 78q15 38 36.5 71.5t47.5 58.5q30 30 71.5 45.5t89.5 15.5q93 0 146 -54.5t53 -151.5q0 -36 -6.5 -73t-18 -72t-28.5 -67t-38 -58q-35 -45 -79.5 -66t-104.5 -21q-47 0 -84 15t-63 43t-40 68t-14 90q0 38 8 78zM287 382q-32 -22 -56 -70
q-23 -42 -35.5 -92.5t-12.5 -93.5q0 -54 28 -84t82 -30q43 0 75.5 27t58.5 87q18 39 29 85t11 85q0 51 -28.5 80t-79.5 29q-40 0 -72 -23z" />
    <glyph glyph-name="pi" unicode="&#x3c0;" horiz-adv-x="650" 
d="M480 -57q-5 -2 -10.5 -5t-10.5 -5q-38 33 -51.5 74t-13.5 80q0 27 2 58t7 68.5t13 83.5t20 103h-197q-12 -105 -23.5 -177t-26.5 -124q-14 -52 -32.5 -90t-42.5 -74q-5 2 -10.5 5t-10.5 6l-20 12q-5 2 -10 5l-10 6l-20 12q17 24 29 45t22 46q10 28 18.5 55t15.5 63
t14 85.5t15 121.5q-22 -1 -39.5 -2t-35.5 -4q1 19 6 42q2 11 3.5 21.5t3.5 21.5q9 1 17.5 2t19.5 2t27 1t41 1h422q-3 -11 -5 -21t-5 -20q-2 -11 -4.5 -21t-4.5 -20h-64q-13 -58 -21 -99.5t-13 -74.5q-5 -32 -6.5 -58.5t-1.5 -53.5q0 -17 2 -35.5t8.5 -37t18 -36t29.5 -32.5
q-23 -12 -43 -20z" />
    <glyph glyph-name="rho" unicode="&#x3c1;" horiz-adv-x="650" 
d="M36 -172q11 45 27 110.5t33 134.5q16 69 31 128.5t24 89.5q29 103 90 153t148 50q91 0 142 -53.5t51 -150.5q0 -67 -20 -127.5t-55 -108.5q-35 -46 -81.5 -73.5t-100.5 -27.5q-22 0 -40 3.5t-35 13t-33.5 25t-35.5 39.5q-13 -51 -26 -103t-25 -103h-94zM381 60
q31 21 54 55t37 77.5t14 89.5q0 57 -27.5 90t-75.5 33q-39 0 -68 -20.5t-49 -54.5q-20 -33 -32 -77t-17 -90q0 -55 27.5 -89t73.5 -34q33 0 63 20z" />
    <glyph glyph-name="sigma" unicode="&#x3c3;" horiz-adv-x="650" 
d="M561 533q3 -11 6.5 -21t6.5 -20q-26 -7 -45 -12.5t-35 -11.5q-16 -5 -32 -11.5t-35 -15.5q27 -16 45.5 -33t29.5 -37.5t16 -45.5t5 -56q0 -70 -20 -132t-55 -108q-35 -48 -82.5 -74t-104.5 -26q-88 0 -138.5 57t-50.5 160q0 78 31.5 149.5t89.5 122.5q31 27 72 50.5
t89 42.5t97.5 34.5t97.5 28.5l6 -21zM326 36q31 22 54 56q23 35 37 78t14 88q0 60 -27 93t-73 33q-34 0 -64 -21.5t-53 -55.5q-22 -35 -35 -79t-13 -89q0 -60 25 -92t70 -32q34 0 65 21z" />
    <glyph glyph-name="tau" unicode="&#x3c4;" horiz-adv-x="650" 
d="M406 -63q-39 -5 -66 -7t-51 -2q-39 0 -63 18t-18 48l5 41l58 348q-43 6 -84.5 2t-84.5 -17l10 89q17 4 31 7.5t28.5 5t30 2.5t35.5 1q33 0 56 -2t43 -4q19 -2 39.5 -4.5t48.5 -3.5q21 -2 37.5 -1.5t32.5 2t32 4.5t34 8l-17 -92q-22 -5 -38.5 -7t-35.5 -2q-19 -1 -42.5 1
t-59.5 5l-53 -317q-6 -32 9 -41.5t71 -3.5l29 3z" />
    <glyph glyph-name="upsilon" unicode="&#x3c5;" horiz-adv-x="650" 
d="M480 483q51 -23 68 -47t17 -52q0 -17 -4 -43t-11 -57q-6 -32 -14 -67t-16 -69q-17 -66 -35.5 -108.5t-46.5 -67.5q-28 -24 -69 -33.5t-102 -9.5q-91 0 -131 32.5t-40 92.5q0 17 5 42q2 11 5 22t6 23q6 27 14.5 58.5t15.5 62.5q8 30 13.5 55.5t5.5 39.5q0 15 -9.5 26.5
t-39.5 24.5l54 69q51 -21 71 -44.5t20 -58.5q0 -10 -1.5 -24t-4.5 -27q-7 -34 -17 -69.5t-19 -69.5t-15 -64t-6 -52q0 -29 25 -40.5t70 -11.5q34 0 57 10.5t38 33.5q13 19 27 62t25 91q12 47 20.5 90t11.5 63q0 18 -9.5 31t-32.5 29z" />
    <glyph glyph-name="phi" unicode="&#x3c6;" horiz-adv-x="650" 
d="M280 -166h-89q3 16 6.5 33t7.5 34q4 16 7.5 33t7.5 34q-107 14 -153.5 66.5t-46.5 141.5q0 57 18 108.5t52 93.5t82.5 71t109.5 41q-1 -12 -1.5 -23.5t-0.5 -22.5q-1 -11 -1.5 -22.5t-0.5 -22.5q-88 -27 -125.5 -84.5t-37.5 -135.5q0 -30 6 -52t20.5 -37.5t38 -25
t58.5 -14.5q13 63 27 124.5t29 124.5q10 44 24.5 79.5t35.5 60t49 38t64 13.5q72 0 114.5 -53t42.5 -143q0 -44 -8.5 -85t-24.5 -76.5t-38 -64.5t-49 -48q-39 -27 -84.5 -38.5t-109.5 -15.5zM326 51q108 4 152 67q45 62 53 181q3 48 -14 75.5t-47 27.5q-27 0 -48.5 -26
t-30.5 -61q-5 -17 -9 -33t-8 -33z" />
    <glyph glyph-name="chi" unicode="&#x3c7;" horiz-adv-x="650" 
d="M492 -69q-28 0 -47.5 3.5t-33 11t-23 20t-16.5 30.5q-17 31 -30 66q-8 17 -15.5 33.5t-14.5 33.5l-150 -198h-58q-14 0 -28.5 0.5t-28.5 0.5q28 35 57 70.5t58 70.5q28 35 57 70.5t58 71.5q-16 35 -31.5 70t-30.5 71q-9 21 -27.5 31t-41.5 10h-20l-12 75h95
q36 0 56 -13.5t35 -45.5q5 -14 11 -27.5t13 -27.5q6 -14 12.5 -27.5t13.5 -26.5q31 42 63 84t65 84h111q-26 -33 -51.5 -65t-50.5 -64t-50.5 -64t-50.5 -64q5 -11 9 -21.5t9 -21.5l18 -42q9 -22 18.5 -43t18.5 -42q12 -31 33 -39.5t60 -8.5q-2 -9 -3.5 -17t-3.5 -16
q-5 -17 -6 -32q-6 0 -12 -0.5t-12 -0.5h-23z" />
    <glyph glyph-name="psi" unicode="&#x3c8;" horiz-adv-x="650" 
d="M204 -170q2 13 4.5 26t5.5 26q2 13 4.5 26t5.5 27q-66 2 -108.5 13.5t-67.5 31.5q-25 21 -35 50.5t-10 71.5q0 33 4.5 73.5t13.5 80.5q8 42 19.5 79t25.5 64q12 26 24.5 41.5t36.5 34.5q18 -14 35 -26q18 -14 35 -26q-14 -12 -23 -22.5t-15.5 -21.5t-12 -24t-11.5 -31
q-5 -18 -12 -44.5t-13 -56.5q-7 -29 -11.5 -57t-4.5 -49q0 -32 11 -50t31 -28t47 -13.5t58 -4.5q12 64 24 128.5t25 130.5q12 66 24 129.5t25 129.5h89q-13 -66 -25.5 -130.5t-24.5 -130.5t-24.5 -130t-24.5 -130q71 3 101 13q32 10 57 35q33 33 49.5 100.5t16.5 173.5
q0 33 -4.5 52.5t-19.5 45.5q10 3 21 6.5t22 7.5q5 2 10.5 3.5t10.5 3.5l22 8q9 -16 15 -31t10 -32.5t5.5 -38t1.5 -47.5q0 -63 -9 -121t-24 -100q-27 -87 -97 -123q-68 -37 -205 -43q-3 -13 -5.5 -25.5t-4.5 -25.5q-3 -13 -5.5 -25.5t-4.5 -24.5h-88z" />
    <glyph glyph-name="omega" unicode="&#x3c9;" horiz-adv-x="650" 
d="M349 127q-4 -15 -4 -27q0 -36 18 -60.5t46 -24.5q27 0 49.5 18t39.5 50t26.5 75t9.5 92q0 48 -6 76t-17 44t-26.5 24t-34.5 16q5 9 15 30.5t18 39.5q42 -10 69.5 -32t44.5 -52q16 -30 23 -65t7 -70q0 -69 -16 -129t-44 -106q-28 -45 -66.5 -72t-83.5 -27t-76.5 23
t-55.5 80q-30 -57 -59 -78t-68 -21q-66 0 -106 54t-40 147q0 54 14.5 108t43.5 102q28 48 69 84.5t95 54.5q5 -16 12.5 -36.5t13.5 -33.5q-27 -12 -54.5 -40t-49.5 -66q-23 -39 -37 -84.5t-14 -93.5q0 -51 15.5 -78.5t48.5 -27.5q30 0 50 30.5t35 76.5q15 48 26.5 102
t24.5 102h94q-6 -22 -11 -43.5t-10 -42.5q-5 -22 -10 -43.5t-10 -42.5q-2 -5 -3 -9l-2 -8z" />
    <glyph glyph-name="uni0401" unicode="&#x401;" 
d="M612 666q0 -27 -19 -44.5t-43 -17.5t-42 17.5t-18 44.5t18.5 45t43.5 18q24 0 42 -18t18 -45zM410 666q0 -27 -18.5 -44.5t-42.5 -17.5t-42.5 17.5t-18.5 44.5t19 45t43 18t42 -18t18 -45zM700 -66h-496v628h496v-85h-412v-170h356v-86h-356v-204h412v-83z" />
    <glyph glyph-name="uni0410" unicode="&#x410;" 
d="M662 -65l-75 216h-278l-78 -216h-98q33 93 66.5 184.5t67.5 185.5q34 93 67.5 184.5t67.5 185.5h94q33 -94 66 -185.5t66 -184.5q33 -94 66 -185.5t66 -184.5h-98zM560 231l-111 339q-29 -85 -57.5 -169.5t-57.5 -169.5h226z" />
    <glyph glyph-name="uni0411" unicode="&#x411;" 
d="M225 -66v742h399l63 -90l-64 -60q-11 16 -21.5 32.5t-20.5 32.5h-266v-217h159q60 0 95.5 -11.5t64.5 -32.5q36 -27 56.5 -71.5t20.5 -110.5q0 -111 -58.5 -162.5t-167.5 -51.5h-260zM464 18q84 0 120.5 32t36.5 99q0 72 -38.5 105.5t-123.5 33.5h-144v-270h149z" />
    <glyph glyph-name="uni0412" unicode="&#x412;" 
d="M199 -65v740h270q124 0 173 -52q50 -52 50 -138q0 -51 -20 -88t-62 -66q32 -12 54.5 -32.5t36.5 -47.5t19.5 -59t4.5 -66q-6 -94 -63 -142.5t-160 -48.5h-303zM497 367q48 0 79 32.5t31 84.5q0 51 -30 79.5t-85 28.5h-207v-225h212zM494 19q69 0 107.5 32.5t38.5 95.5
t-39.5 99.5t-108.5 36.5h-207v-264h209z" />
    <glyph glyph-name="uni0413" unicode="&#x413;" 
d="M345 -71h-92v668h-50v81h450q3 -5 10 -16.5t16 -26.5q10 -15 20 -32t19 -30q-9 -7 -18 -13.5t-17 -12.5q-9 -7 -18 -13.5t-17 -12.5q-6 9 -11.5 18.5t-10.5 18.5q-6 9 -11.5 18.5t-10.5 19.5h-259v-667z" />
    <glyph glyph-name="uni0414" unicode="&#x414;" 
d="M741 -83q-9 -9 -17.5 -17t-16.5 -16q-9 -8 -17.5 -16t-16.5 -16q-10 10 -19 20t-18 21q-10 10 -19 20t-18 21h-318q-19 -28 -42.5 -47t-55.5 -34q-11 16 -28 36t-32 38q9 5 21.5 12.5t24.5 16.5q13 10 25 22.5t22 28.5q7 16 12 45t9 65q3 36 4.5 74.5t1.5 73.5v323h-42
v87h504v-87h-42v-581zM574 19v569h-242v-335q0 -26 -0.5 -55.5t-2 -60.5t-4.5 -61t-7 -57h256z" />
    <glyph glyph-name="uni0415" unicode="&#x415;" 
d="M699 -65h-497v741h497v-84h-410v-227h354v-84h-354v-263h410v-83z" />
    <glyph glyph-name="uni0416" unicode="&#x416;" 
d="M706 -66q-7 16 -11 38.5t-6 45.5q-3 24 -4 45.5t-2 36.5q-4 42 -8 74t-14 55t-29 35.5t-53 12.5h-85v-342h-85v342h-91q-26 0 -43 -8.5t-28 -28.5q-12 -20 -17.5 -55t-7.5 -87q-2 -37 -3.5 -61.5t-3.5 -42.5t-5.5 -32t-7.5 -27h-103q10 15 17 29t11 33t6.5 44.5t4.5 67.5
q2 51 6.5 91t17.5 69q12 29 34.5 47.5t60.5 27.5q-12 14 -19.5 27t-12.5 27.5t-8 31.5t-6 40q-6 69 -25 91q-20 24 -70 24v90q46 -2 78 -11t53 -29t33 -51.5t18 -79.5q4 -48 10 -76t18 -42q12 -15 31.5 -19.5t51.5 -5.5v314h85v-314q56 3 79 21q24 21 31 73q2 11 2.5 20.5
t1.5 17.5l3 25q1 10 1.5 17t2.5 15q11 57 49 89q39 33 132 36v-90q-26 -3 -43.5 -8t-29.5 -13t-19 -21t-11 -31q-6 -26 -9 -48.5t-6 -42.5q-4 -20 -11 -38.5t-21 -36.5q38 -12 61.5 -27.5t36.5 -42.5q13 -28 18.5 -71t7.5 -110q0 -32 2 -54t6 -40t10.5 -33.5t15.5 -32.5
q-13 0 -25 -0.5t-24 -0.5h-49z" />
    <glyph glyph-name="uni0417" unicode="&#x417;" 
d="M398 272v91h70q57 0 88 30.5t31 85.5q0 54 -36.5 83.5t-108.5 29.5q-160 0 -197 -161h-68v156q5 -4 10.5 -7t10.5 -6t10.5 -6t11.5 -6q43 60 97 87.5t134 27.5q54 0 97.5 -13.5t74 -38.5t47 -61t16.5 -81q0 -54 -19 -91.5t-64 -66.5q54 -27 79.5 -70t25.5 -103
q0 -109 -64 -165t-184 -56q-121 0 -191.5 62t-78.5 200h88q4 -42 15.5 -74.5t33 -54t54.5 -33t81 -11.5q75 0 114 33t39 94q0 60 -37 92.5t-109 32.5h-71z" />
    <glyph glyph-name="uni0418" unicode="&#x418;" 
d="M712 -69h-93v593q-42 -75 -83 -148.5t-83 -148.5t-83 -149t-83 -147h-100v747h92l1 -577l164 288q40 72 81 144.5t83 144.5h104v-747z" />
    <glyph glyph-name="uni0419" unicode="&#x419;" 
d="M603 733q-21 -86 -59 -121.5t-98 -35.5q-57 0 -94 34t-55 123h83q9 -37 25 -53.5t44 -16.5q27 0 43.5 16.5t27.5 53.5h83zM712 -69h-93l-1 482q-43 -60 -85.5 -120.5t-84.5 -120.5q-43 -61 -85.5 -121t-84.5 -120h-91v628h91l1 -485q85 121 168.5 241.5t168.5 243.5h96
v-628z" />
    <glyph glyph-name="uni041A" unicode="&#x41a;" 
d="M647 -65q-25 43 -49 86.5t-49 88.5t-50.5 88.5t-51.5 88.5q-28 -13 -58 -14q-16 0 -36.5 0.5t-48.5 1.5v-340h-92v741h92v-309h76q59 0 82 30q12 16 19.5 40.5t16.5 60.5q10 53 22.5 79t25.5 43q13 18 29 28.5t36.5 16t45 7.5t56.5 4v-92q-33 0 -54.5 -3.5t-34.5 -14.5
q-14 -11 -22 -31.5t-15 -52.5q-8 -35 -14.5 -58t-13.5 -40q-8 -16 -17 -28t-21 -24q28 -51 56.5 -100.5t56.5 -98.5q55 -101 114 -198h-101z" />
    <glyph glyph-name="uni041B" unicode="&#x41b;" 
d="M668 -65h-92v654h-236q-1 -17 -1.5 -41.5t-0.5 -51.5q-1 -27 -1.5 -52t-0.5 -41q-8 -124 -16 -207.5t-26 -140.5q-18 -55 -50 -87t-86 -50q-9 21 -18 43t-18 43q33 9 50 21t28 32q12 23 21 72t15 118t9 155.5t3 186.5h-62v89h546v-89h-64v-654z" />
    <glyph glyph-name="uni041C" unicode="&#x41c;" 
d="M729 -67q-20 138 -39.5 274.5t-38.5 275.5q-2 -4 -4 -9.5t-4 -13.5t-7 -25t-13 -43q-8 -27 -19.5 -67t-27.5 -94q-15 -54 -36 -128t-47 -170h-86q-20 69 -37.5 137.5t-35.5 137.5t-37.5 137t-40.5 137q-20 -139 -39.5 -275t-37.5 -274h-87q12 93 24.5 185t25.5 186
q12 94 24.5 186t25.5 186h102q37 -144 78 -288q20 -72 39.5 -143.5t39.5 -143.5q22 72 42 143t39 143q20 72 39 144t40 145h103q6 -47 12 -93t13 -93l52 -372q7 -47 13 -93t13 -92h-88z" />
    <glyph glyph-name="uni041D" unicode="&#x41d;" 
d="M723 -73h-96v357h-356v-357h-96v756h96v-309h356v309h96v-756z" />
    <glyph glyph-name="uni041E" unicode="&#x41e;" 
d="M656 30q-37 -49 -88.5 -75t-115.5 -26t-115.5 26t-87.5 75t-55.5 117t-19.5 155q0 175 72 276t203 101q64 0 116 -26t89 -74q36 -49 56.5 -117.5t20.5 -156.5t-19.5 -157t-55.5 -118zM453 22q88 0 137.5 74.5t49.5 206.5q0 135 -50 210.5t-138 75.5q-90 0 -139 -74.5
t-49 -207.5q0 -66 13 -119t37 -89.5t59 -56.5t80 -20z" />
    <glyph glyph-name="uni041F" unicode="&#x41f;" 
d="M672 -69h-93v656h-260v-656h-91v656h-75v91h589v-91h-70v-656z" />
    <glyph glyph-name="uni0420" unicode="&#x420;" 
d="M306 -68h-93v746h286q51 0 93 -12t73 -38t48.5 -66.5t18.5 -100.5q0 -64 -20 -105.5t-53 -65.5t-75 -33.5t-85 -9.5q-23 -1 -46 -1h-48h-99v-314zM495 339q69 0 106 31.5t37 91.5t-36 92t-105 32h-191v-247h189z" />
    <glyph glyph-name="uni0421" unicode="&#x421;" 
d="M724 192q-10 -69 -33.5 -119.5t-58.5 -83.5t-81 -48.5t-100 -15.5q-69 0 -124 26t-94 77q-39 49 -59.5 119t-20.5 158q0 116 31.5 190t78.5 116q46 42 97.5 57.5t91.5 15.5q107 0 181 -65q75 -64 90 -188h-94q-1 33 -14.5 63t-36.5 52q-24 22 -55 35t-67 13
q-48 0 -87 -19.5t-66.5 -56.5t-42 -89.5t-14.5 -118.5q0 -131 53 -213q53 -80 154 -80q33 0 61.5 9t51.5 30t39 54.5t24 81.5h95z" />
    <glyph glyph-name="uni0422" unicode="&#x422;" 
d="M496 -69h-92v657h-223v90h534v-90h-219v-657z" />
    <glyph glyph-name="uni0423" unicode="&#x423;" 
d="M421 160q-63 131 -126 260.5t-126 262.5h98q12 -26 24 -52.5t25 -52.5l100 -208q13 -26 25 -51.5t25 -51.5q39 103 79 206.5t80 209.5h95q-63 -161 -124 -320.5t-124 -319.5q-12 -31 -23.5 -55t-25.5 -40q-14 -17 -34 -25.5t-50 -8.5q-18 0 -35.5 2t-44.5 11v101
q28 -9 42.5 -11.5t27.5 -2.5q21 0 32 10t24 43z" />
    <glyph glyph-name="uni0424" unicode="&#x424;" 
d="M492 -72h-86v75q-146 10 -220 92q-72 82 -72 206q0 73 29 137t80 106q18 14 36 24.5t39.5 19t48 14t59.5 8.5v71h86v-71q144 -13 216.5 -94t72.5 -210q0 -131 -73 -213q-72 -83 -216 -90v-75zM492 88q92 6 147 66q26 29 41 67.5t15 83.5t-11.5 82.5t-36 66t-63 46.5
t-92.5 24v-436zM407 522q-102 -8 -153 -66t-51 -150q0 -94 50.5 -150t153.5 -68v434z" />
    <glyph glyph-name="uni0425" unicode="&#x425;" 
d="M640 -69l-48 74t-48 75l-96 150q-25 -38 -50 -75.5t-50 -74.5q-26 -38 -51 -75t-49 -74h-111l64 94q16 23 32 47l32 48q32 48 64 95t65 95q-16 23 -31 46l-30 46l-60 92q-60 91 -120 186h112q22 -36 45 -71.5t47 -70.5q23 -35 46 -70.5t46 -70.5q43 70 90 141
q22 35 45 70.5t46 71.5h111q-30 -48 -60 -93t-59 -91q-30 -46 -60 -91.5t-59 -91.5q31 -48 62.5 -95.5t63.5 -95.5q31 -48 62.5 -95.5t63.5 -95.5h-115z" />
    <glyph glyph-name="uni0426" unicode="&#x426;" 
d="M668 4q10 -12 20.5 -24.5t20.5 -24.5q19 -24 42 -48q-10 -8 -19.5 -16t-18.5 -15q-20 -18 -37 -31q-18 19 -36 42q-9 10 -17.5 20.5t-17.5 21.5h-453v89h62v662h93v-662h269v662h92v-676z" />
    <glyph glyph-name="uni0427" unicode="&#x427;" 
d="M675 -72h-93v298q-37 -33 -77 -47.5t-92 -14.5q-60 1 -100.5 16t-66 44.5t-36.5 74.5t-11 107v275h93v-274q0 -38 6 -65.5t21 -46t40.5 -28t64.5 -10.5q78 0 118 37.5t40 110.5v276h93v-753z" />
    <glyph glyph-name="uni0428" unicode="&#x428;" 
d="M788 -70h-681v90h58v659h94v-659h144v659h96v-659h139v659h96v-659h54v-90z" />
    <glyph glyph-name="uni0429" unicode="&#x429;" 
d="M773 -58q6 -11 12.5 -22t13.5 -22q-19 -13 -37.5 -26t-36.5 -25q-13 21 -26 41.5t-25 41.5h-575v88h47v660h93v-660h165v660h94v-660h160v660h91v-691l6 -12t6 -11z" />
    <glyph glyph-name="uni042A" unicode="&#x42a;" 
d="M248 -69v657h-130v91h219v-296h188q109 0 166 -57.5t57 -169.5t-53.5 -168.5t-159.5 -56.5h-287zM526 17q130 0 130 133q0 69 -33.5 108.5t-94.5 39.5h-191v-281h189z" />
    <glyph glyph-name="uni042B" unicode="&#x42b;" 
d="M747 -72h-93v754h93v-754zM153 -72v754h92v-298h127q103 0 158.5 -61t55.5 -175q0 -106 -57 -163t-160 -57h-216zM355 15q139 0 139 140q0 66 -36 103t-102 37h-111v-280h110z" />
    <glyph glyph-name="uni042C" unicode="&#x42c;" 
d="M214 -71v754h91v-298h186q112 0 169.5 -57.5t57.5 -171.5q0 -111 -53 -169t-170 -58h-281zM464 16q86 0 124 29q37 30 37 113q0 69 -32.5 104.5t-104.5 35.5h-183v-282h159z" />
    <glyph glyph-name="uni042D" unicode="&#x42d;" 
d="M261 184q17 -87 59.5 -126t117.5 -39q61 0 107 29.5t68 83.5q9 26 14.5 55t10.5 77q-27 -18 -43.5 -25.5t-29.5 -7.5q-20 0 -40 9.5t-39 21.5q-19 11 -36.5 21t-31.5 10t-32 -11t-49 -41q-2 5 -4.5 10t-4.5 10l-8 20q-5 9 -9 19t-8 21q42 35 67 48.5t49 13.5
q19 0 40.5 -9.5t42.5 -20.5q20 -11 38 -20t31 -9q11 0 26.5 7.5t39.5 25.5q-8 114 -56 173t-135 59q-75 0 -119 -40.5t-64 -125.5h-87q19 127 92 192t181 65q81 0 145 -41t96 -116q18 -45 27.5 -98t9.5 -107q0 -195 -75.5 -292t-215.5 -97q-110 0 -177 61t-86 194h88z" />
    <glyph glyph-name="uni042E" unicode="&#x42e;" 
d="M188 -61h-90v736h90v-299h102q6 57 25 111.5t52 99.5q34 45 81.5 72t113.5 27q60 0 108.5 -27t83.5 -78q35 -49 54 -118t19 -154q0 -88 -19 -158t-53 -121q-35 -51 -83 -77t-106 -26q-57 0 -104.5 24t-83.5 70q-37 46 -60.5 112.5t-29.5 153.5h-100v-348zM560 16
q78 0 128 78q49 77 49 212q0 139 -48.5 214.5t-133.5 75.5q-38 0 -69.5 -21.5t-55.5 -59.5q-23 -38 -36 -90.5t-13 -115.5q0 -66 13 -120t36 -93q24 -38 57 -59t73 -21z" />
    <glyph glyph-name="uni042F" unicode="&#x42f;" 
d="M691 -69h-89v333h-195q-33 0 -54.5 -7t-34.5 -25t-19.5 -49t-8.5 -79q-2 -38 -4 -62t-5 -43q-3 -18 -8 -33.5t-12 -34.5h-100q10 21 17 39.5t11 38.5t6 44t4 56q1 42 5 73.5t11 51.5q14 41 56 68q-45 25 -67 69.5t-22 104.5q0 94 49.5 148t137.5 54h322v-747zM602 353
v238h-218q-54 0 -83.5 -29t-29.5 -83q0 -58 31 -92t82 -34h218z" />
    <glyph glyph-name="uni0430" unicode="&#x430;" 
d="M578 -58q-14 23 -15 31q-1 6 -1.5 11.5t-0.5 13.5q-39 -37 -80.5 -52t-93.5 -15q-81 0 -127.5 41.5t-46.5 116.5q0 45 14.5 75.5t42.5 50.5q29 20 70.5 31t98.5 18q66 7 89.5 20t23.5 39q0 30 -27 48.5t-75 18.5q-60 0 -89 -22.5t-34 -70.5h-95q6 93 62 137t153 44
q100 0 151 -40t51 -118v-267q0 -18 1 -32.5t4 -26.5t8.5 -24t14.5 -25zM510 50q43 30 45 97q0 8 0.5 16.5t0.5 16.5t0.5 16.5t0.5 17.5q-15 -8 -29 -13t-29 -8.5t-31.5 -5.5t-37.5 -5q-37 -5 -61.5 -12.5t-38.5 -18t-20 -24.5t-6 -32q0 -36 24 -55.5t69 -19.5q70 0 113 30z
" />
    <glyph glyph-name="uni0431" unicode="&#x431;" 
d="M642 571q-30 -16 -46 -21.5t-33 -5.5q-24 0 -43 5t-34 12t-26.5 12.5t-18.5 5.5q-45 0 -70 -47.5t-34 -156.5q25 30 53.5 45t67.5 15q86 0 139 -68q52 -67 52 -179q0 -116 -54 -186q-52 -70 -143 -70q-50 0 -89 23.5t-66 68.5t-41.5 110t-14.5 147q0 29 2.5 61t7.5 69
t13.5 71t21.5 65q26 64 67 100q44 38 108 25q7 -1 21 -8l24 -12q13 -6 26 -11t25 -4q17 0 35.5 5t49.5 20v-91zM495 32q21 12 36 33.5t23.5 51t8.5 65.5q0 75 -29.5 120t-77.5 45q-24 0 -45.5 -12t-37 -33.5t-24.5 -52.5t-9 -68q0 -70 32 -116q33 -44 79 -44q24 0 44 11z
" />
    <glyph glyph-name="uni0432" unicode="&#x432;" 
d="M236 -70v547h264q85 0 127.5 -37.5t42.5 -101.5q0 -39 -17 -69t-52 -49q48 -21 69.5 -53t21.5 -77q0 -160 -197 -160h-259zM478 251q21 0 39 6.5t31.5 17t21 24t7.5 27.5q0 30 -26.5 48.5t-78.5 18.5h-145v-142h151zM482 13q48 0 80.5 19t32.5 58q0 18 -9 32.5
t-24.5 24.5t-35.5 15.5t-41 5.5h-158v-155h155z" />
    <glyph glyph-name="uni0433" unicode="&#x433;" 
d="M358 -69h-95v549h361q15 -27 29 -53.5t29 -53.5q-18 -13 -36 -26.5t-36 -26.5l-10 16q-2 4 -4.5 8t-4.5 8l-10 16q-2 4 -4.5 8t-4.5 9h-214v-454z" />
    <glyph glyph-name="uni0434" unicode="&#x434;" 
d="M635 -2q15 -26 30 -47q15 -26 30 -47q-9 -8 -17.5 -15t-16.5 -14t-16.5 -14t-16.5 -14q-15 21 -31 43t-31 43h-265q-26 -33 -47 -50q-20 -17 -58 -37q-15 19 -26 38q-6 10 -12.5 19.5t-12.5 19.5q50 30 80 67q33 39 43 115q1 9 3.5 27.5t3.5 50.5q2 33 2.5 82.5
t0.5 121.5h-38v88h431v-45q0 -11 0.5 -22t0.5 -21h-37v-389zM551 21v366h-187q0 -63 -1 -109t-2 -80q-2 -34 -4.5 -58t-3.5 -42q-2 -9 -4 -20t-4 -25q-5 -28 -7 -32h213z" />
    <glyph glyph-name="uni0435" unicode="&#x435;" 
d="M675 115q-26 -103 -81 -146.5t-142 -43.5q-112 0 -176 75q-65 77 -65 203q0 63 17 115.5t48 90.5q32 37 76 58t98 21q105 0 168 -81t57 -228h-370q3 -75 38 -118.5t110 -43.5q52 0 81.5 22t42.5 76h98zM582 266q-10 63 -43 96t-91 33t-92.5 -33.5t-46.5 -94.5
q34 0 68 -0.5t68 -0.5h137z" />
    <glyph glyph-name="uni0436" unicode="&#x436;" 
d="M630 -65q-15 52 -18 90t-5 65t-8 44t-27 27q-8 3 -13 4.5t-13 2.5q-7 1 -19 2t-33 3v-238h-88v238q-32 -2 -54 -6t-36 -14t-21 -28t-8 -49q0 -32 -0.5 -53.5t-1.5 -37.5q-2 -15 -4.5 -26.5t-7.5 -23.5h-102q17 31 21.5 55.5t6.5 54.5q1 43 5 72.5t14 49.5q9 21 26 34.5
t44 25.5q-22 18 -29.5 38t-10.5 40q-2 11 -4.5 25.5t-10.5 27.5q-7 13 -21 22t-37 9v94q74 -7 107.5 -35t42.5 -90q4 -27 9 -45.5t13 -28.5q8 -11 22 -15.5t37 -4.5v220h88v-221q28 2 43 10.5t22 21.5q8 12 10.5 29.5t6.5 38.5q4 30 11.5 50.5t22.5 33.5q16 14 43 22.5
t72 14.5v-95q-35 -3 -47.5 -19.5t-18.5 -40.5t-12 -51.5t-27 -51.5q45 -21 63 -53t21 -86q2 -29 3 -47.5t3 -34.5t6 -32t13 -38h-99z" />
    <glyph glyph-name="uni0437" unicode="&#x437;" 
d="M404 166l-2 90q6 0 10.5 -0.5t11.5 -0.5h45q45 0 72 20.5t27 52.5q0 33 -31 53t-88 20q-63 0 -103 -24.5t-58 -78.5h-69v120q12 -5 23 -9.5t23 -8.5q33 48 77.5 69t110.5 21q95 0 153 -43q59 -44 59 -115q0 -37 -15.5 -63.5t-53.5 -50.5q49 -24 69.5 -53t20.5 -74
q0 -39 -16.5 -70t-46 -52t-71.5 -32.5t-93 -11.5q-101 0 -165 47t-79 152h96q13 -60 50 -83t100 -23t96.5 19.5t33.5 55.5q0 32 -31.5 52.5t-85.5 20.5h-70z" />
    <glyph glyph-name="uni0438" unicode="&#x438;" 
d="M676 -69h-88v376q-34 -48 -67.5 -94t-66.5 -94t-66.5 -95t-66.5 -93h-90v545h88v-393l273 393h84v-545z" />
    <glyph glyph-name="uni0439" unicode="&#x439;" 
d="M673 -70h-88v377q-67 -96 -134 -189.5t-133 -187.5h-90v546h89v-394l68 98q17 25 34 49.5t34 49.5l68 98l69 99h83v-546zM609 650q-14 -85 -53.5 -123t-103.5 -38q-31 0 -56.5 8t-45.5 26.5t-33.5 49.5t-20.5 77h84q7 -40 25 -57t48 -17t48 17t26 57h82z" />
    <glyph glyph-name="uni043A" unicode="&#x43a;" 
d="M590 -69q-14 24 -27.5 48.5t-26.5 49.5q-13 24 -26 48.5t-26 49.5q-22 36 -50 36h-90v-232h-89v545h89v-217h80q30 0 46.5 20t32.5 76q10 37 21.5 61t29.5 39q19 14 47 20t73 8v-99q-25 -1 -40 -4t-25 -11t-16 -23t-12 -40q-5 -20 -9 -33t-9.5 -22.5t-12.5 -17.5t-16 -17
q19 -36 38.5 -71.5t39.5 -71.5t39.5 -71.5t39.5 -70.5h-101z" />
    <glyph glyph-name="uni043B" unicode="&#x43b;" 
d="M633 -65h-90v460h-180q0 -109 -6 -183t-22 -128q-17 -54 -46.5 -91t-77.5 -70l-48 84q30 20 51 47t34 67t19.5 95.5t6.5 136.5v42h-65v88h485v-88h-61v-460z" />
    <glyph glyph-name="uni043C" unicode="&#x43c;" 
d="M655 -70q-4 46 -7.5 92t-6.5 94t-6.5 93.5t-6.5 93.5q-18 -48 -35.5 -93.5t-34.5 -93.5q-18 -48 -35 -94l-34 -92h-75q-19 48 -37.5 96t-36.5 96t-36.5 96.5t-36.5 96.5q-4 -48 -7 -96.5t-6 -96.5q-2 -24 -3.5 -48t-3.5 -48l-6 -96h-88q9 138 17 273.5t17 274.5h103
q19 -54 39 -105.5t40 -102.5l80 -208q19 52 38.5 104t38.5 104q20 51 39 102.5t39 105.5h101q9 -139 19 -274.5t21 -273.5h-90z" />
    <glyph glyph-name="uni043D" unicode="&#x43d;" 
d="M672 -71h-91v239h-266v-239h-91v548h91v-213h266v213h91v-548z" />
    <glyph glyph-name="uni043E" unicode="&#x43e;" 
d="M627 8q-32 -37 -76 -57.5t-98 -20.5t-98 21t-76 58q-33 37 -51 87.5t-18 110.5q0 67 20.5 119t53.5 86q34 35 77.5 53t89.5 18q51 0 95 -18.5t77 -53.5q34 -35 53.5 -86.5t19.5 -117.5q0 -60 -18 -111t-51 -88zM452 23q66 0 108 51q42 52 42 134q0 40 -11 73.5t-31 57.5
t-47.5 37.5t-60.5 13.5t-60.5 -13t-47 -36t-30 -56.5t-10.5 -73.5q0 -42 10.5 -76.5t30 -59.5t47 -38.5t60.5 -13.5z" />
    <glyph glyph-name="uni043F" unicode="&#x43f;" 
d="M634 -68h-89v453h-191v-453h-89v453h-54v93h476v-93h-53v-453z" />
    <glyph glyph-name="uni0440" unicode="&#x440;" 
d="M324 -200h-90v679h90v-66q33 38 68.5 55.5t77.5 17.5q91 0 151 -69q28 -34 45 -84.5t17 -116.5q0 -126 -60 -198q-59 -72 -153 -72q-43 0 -78 16t-68 55v-217zM458 39q60 0 96 46.5t36 128.5q0 85 -36 132.5t-96 47.5t-96 -48.5t-36 -129.5q0 -87 34.5 -132t97.5 -45z
" />
    <glyph glyph-name="uni0441" unicode="&#x441;" 
d="M675 135q-13 -94 -68.5 -149t-155.5 -57q-54 0 -98 20t-76 56q-31 36 -48.5 86.5t-17.5 111.5t18 112.5t52 88.5q33 37 78.5 58t102.5 21q89 0 147 -52q57 -52 62 -139h-89q-9 45 -41 69.5t-83 24.5q-69 0 -110.5 -49.5t-41.5 -133.5q0 -85 40 -131.5t109 -46.5
q54 0 84 26t42 84h94z" />
    <glyph glyph-name="uni0442" unicode="&#x442;" 
d="M497 -71h-95v453h-177v97h450v-97h-178v-453z" />
    <glyph glyph-name="uni0443" unicode="&#x443;" 
d="M262 -60q6 -2 20 -6t30 -6q15 -2 29 0.5t22 14.5q3 4 9 18q7 13 27 60q-24 55 -48.5 111t-48.5 113l-96 224h103q36 -82 71.5 -164t71.5 -163l129 327h104q-27 -66 -53.5 -130.5t-52.5 -128.5q-27 -66 -53.5 -129.5t-52.5 -127.5q-17 -42 -30 -67.5t-27 -39.5t-32 -19
t-44 -5q-17 0 -33.5 2.5t-44.5 8.5v107z" />
    <glyph glyph-name="uni0444" unicode="&#x444;" 
d="M404 360q-30 20 -51 28.5t-43 8.5q-60 0 -95 -51t-35 -138q0 -90 34.5 -141t94.5 -51q25 0 46 8.5t49 31.5v304zM492 58q20 -23 40.5 -33t47.5 -10q63 0 101 50t38 137q0 34 -6 68t-21 62q-15 27 -40 45t-64 20q-29 0 -49.5 -8t-46.5 -29v-302zM490 -145h-86v105
q-24 -18 -46.5 -24.5t-48.5 -6.5q-48 0 -86.5 20.5t-67.5 57.5t-45 87t-16 110t16 111t45 87q29 37 69.5 58t88.5 21q27 0 47.5 -7t44.5 -22v103h86v-106q27 18 49 25.5t50 7.5q48 0 87 -20t67 -56q28 -35 44 -84t16 -109q0 -151 -77 -224q-28 -29 -64 -44.5t-75 -15.5
q-28 0 -51 7.5t-47 25.5v-107z" />
    <glyph glyph-name="uni0445" unicode="&#x445;" 
d="M582 -68q-17 24 -33.5 48t-33.5 48t-33.5 48t-32.5 49q-17 -25 -34 -49t-35 -48l-68 -96h-115q24 34 48.5 68.5t49.5 69.5q25 34 49.5 69t49.5 70q-24 33 -47 66t-47 67q-23 33 -46.5 66.5t-46.5 66.5h113q16 -23 32.5 -46t32.5 -46t32.5 -46t33.5 -45q30 45 61 91t63 92
h113q-23 -34 -46 -67.5t-45 -66.5q-23 -34 -46 -67.5t-45 -66.5q48 -71 96 -138q24 -35 48.5 -69t48.5 -68h-117z" />
    <glyph glyph-name="uni0446" unicode="&#x446;" 
d="M694 -100q-9 -8 -18.5 -15t-18.5 -14l-18 -15l-18 -14q-17 23 -28 44l-28 44h-359v96h53v449h89v-449h198v449h91v-479z" />
    <glyph glyph-name="uni0447" unicode="&#x447;" 
d="M645 -70h-95v203q-30 -23 -62.5 -33t-77.5 -10q-112 0 -152 60q-41 61 -41 177v148h94v-176q0 -60 23.5 -86t80.5 -26q61 0 98 23t37 74v191h95v-545z" />
    <glyph glyph-name="uni0448" unicode="&#x448;" 
d="M740 -68h-586v92h48v445h91v-445h110v445h90v-445h110v445h91v-445h46v-92z" />
    <glyph glyph-name="uni0449" unicode="&#x449;" 
d="M678 -156l-51 87h-470v94h56v444h88v-444h109v444h90v-444h111v444h89v-482q12 -24 25 -47.5t26 -47.5q-9 -6 -18.5 -12t-18.5 -12z" />
    <glyph glyph-name="uni044A" unicode="&#x44a;" 
d="M301 -69v456h-127v90h217v-185h136q81 0 128.5 -48t47.5 -133q0 -42 -12.5 -75t-35 -56.5t-54 -36t-68.5 -12.5h-232zM522 22q42 0 65.5 22.5t23.5 62.5q0 42 -24.5 67t-63.5 25h-132v-177h131z" />
    <glyph glyph-name="uni044B" unicode="&#x44b;" 
d="M712 -71h-89v550h89v-550zM185 -71v550h91v-187h126q37 0 68 -13t53.5 -36t34.5 -56.5t12 -73.5q0 -85 -45.5 -134.5t-123.5 -49.5h-216zM383 21q45 0 68.5 23.5t23.5 65.5t-24.5 66.5t-69.5 24.5h-105v-180h107z" />
    <glyph glyph-name="uni044C" unicode="&#x44c;" 
d="M257 -72v552h90v-188h173q78 0 122 -48.5t44 -133.5t-45.5 -133.5t-121.5 -48.5h-262zM500 18q48 0 71 23t23 65q0 45 -24 70.5t-72 25.5h-151v-184h153z" />
    <glyph glyph-name="uni044D" unicode="&#x44d;" 
d="M320 107q21 -49 49 -70t73 -21q63 0 98 36t42 114q-18 -10 -28 -13t-19 -3q-14 0 -28 7t-29 16t-31 17t-34 10q-12 0 -26.5 -9.5t-38.5 -39.5q-4 10 -7.5 20t-6.5 21q-3 10 -6.5 20t-6.5 21q26 26 47.5 39.5t42.5 13.5q15 0 33.5 -7.5t36.5 -15.5q18 -9 34 -16t27 -7
q7 0 17 3.5t26 12.5q-7 69 -44.5 107.5t-98.5 38.5q-92 0 -121 -92h-89q18 88 74 134t132 46q55 0 98.5 -19.5t73.5 -55.5t46 -88t16 -116q0 -66 -15.5 -118.5t-44.5 -89.5t-71 -56.5t-96 -19.5q-39 0 -71.5 9t-59 30t-47.5 55.5t-36 85.5h89z" />
    <glyph glyph-name="uni044E" unicode="&#x44e;" 
d="M244 -71h-89v543h89v-215h112q6 43 22.5 84t44.5 73q27 32 63.5 51.5t84.5 19.5t87.5 -21t68.5 -58q28 -38 44 -89t16 -112q0 -64 -16 -117t-44 -92q-29 -38 -68.5 -59t-87.5 -21q-88 0 -146 65t-70 188h-111v-240zM571 8q55 0 93 54q38 56 38 141q0 42 -10 77t-27 60
t-41.5 39t-52.5 14q-29 0 -52.5 -13.5t-40.5 -38.5t-26.5 -60.5t-9.5 -78.5q0 -91 35.5 -142.5t93.5 -51.5z" />
    <glyph glyph-name="uni044F" unicode="&#x44f;" 
d="M657 -70h-90v227h-168q-38 -2 -53.5 -21.5t-20.5 -50.5q-5 -32 -7 -72.5t-14 -82.5h-102q9 22 13 39t8 43q7 52 10 83.5t9 50.5q5 20 16 31.5t35 25.5q-37 16 -54 46t-17 72q0 81 47 119.5t122 38.5h266v-549zM567 249v139h-177q-36 0 -55.5 -19t-19.5 -52
q0 -31 21 -49.5t56 -18.5h175z" />
    <glyph glyph-name="uni0451" unicode="&#x451;" 
d="M585 588q0 -29 -19 -47t-43 -18q-23 0 -42 19t-19 46q0 28 19 46t43 18q23 0 42 -18t19 -46zM422 588q0 -29 -19.5 -47t-42.5 -18q-24 0 -43 19t-19 46t19 45.5t43 18.5q23 0 42.5 -18.5t19.5 -45.5zM677 114q-24 -100 -80 -145t-144 -45q-57 0 -100.5 19.5t-75.5 55.5
q-31 37 -47.5 88t-16.5 114q0 64 17 116.5t48 89.5q31 38 75.5 58.5t98.5 20.5q57 0 100.5 -23t72.5 -63q28 -42 41.5 -97.5t10.5 -124.5h-370q3 -79 40.5 -120.5t106.5 -41.5q54 0 83 22t42 76h98zM583 265q-18 126 -133 126t-139 -126h272z" />
    <glyph glyph-name="uni2015" unicode="&#x2015;" 
d="M901 286h-900v53h900v-53z" />
    <glyph glyph-name="quoteleft" unicode="&#x2018;" horiz-adv-x="247" 
d="M192 578q0 -27 -17.5 -44t-49.5 -19t-51 17t-19 51q0 55 25.5 103.5t65.5 79.5q17 14 27.5 12t17.5 -11q5 -6 5.5 -13.5t-10.5 -16.5q-13 -11 -28 -28t-21 -32q-5 -14 -2.5 -25t18.5 -15q17 -4 28 -20.5t11 -38.5z" />
    <glyph glyph-name="quoteright" unicode="&#x2019;" horiz-adv-x="247" 
d="M166 521q-25 -48 -65 -79q-17 -14 -27.5 -12t-17.5 11q-5 6 -5.5 13.5t10.5 16.5q13 11 28 28t21 32q5 14 2.5 25t-18.5 15q-17 4 -28 20.5t-11 38.5q0 27 17.5 44t49.5 19t51 -17t19 -51q0 -55 -26 -104z" />
    <glyph glyph-name="quotedblleft" unicode="&#x201c;" horiz-adv-x="457" 
d="M402 578q0 -27 -17.5 -44t-49.5 -19t-51 17t-19 51q0 55 25.5 103.5t65.5 79.5q17 14 27.5 12t17.5 -11q5 -6 5.5 -13.5t-10.5 -16.5q-13 -11 -28 -28t-21 -32q-5 -14 -2.5 -25t18.5 -15q17 -4 28 -20.5t11 -38.5zM192 578q0 -27 -17.5 -44t-49.5 -19t-51 17t-19 51
q0 55 25.5 103.5t65.5 79.5q17 14 27.5 12t17.5 -11q5 -6 5.5 -13.5t-10.5 -16.5q-13 -11 -28 -28t-21 -32q-5 -14 -2.5 -25t18.5 -15q17 -4 28 -20.5t11 -38.5z" />
    <glyph glyph-name="quotedblright" unicode="&#x201d;" horiz-adv-x="457" 
d="M166 521q-25 -48 -65 -79q-17 -14 -27.5 -12t-17.5 11q-5 6 -5.5 13.5t10.5 16.5q13 11 28 28t21 32q5 14 2.5 25t-18.5 15q-17 4 -28 20.5t-11 38.5q0 27 17.5 44t49.5 19t51 -17t19 -51q0 -55 -26 -104zM376 521q-25 -48 -65 -79q-17 -14 -27.5 -12t-17.5 11
q-5 6 -5.5 13.5t10.5 16.5q13 11 28 28t21 32q5 14 2.5 25t-18.5 15q-17 4 -28 20.5t-11 38.5q0 27 17.5 44t49.5 19t51 -17t19 -51q0 -55 -26 -104z" />
    <glyph glyph-name="dagger" unicode="&#x2020;" 
d="M491 -136h-80v554h-213v77h213v238h80v-238h211v-77h-211v-554z" />
    <glyph glyph-name="daggerdbl" unicode="&#x2021;" 
d="M490 -133h-79v504h-196v76h196v85h-214v76h214v128h79v-128h217v-76h-217v-85h199v-76h-199v-504z" />
    <glyph glyph-name="twodotenleader" unicode="&#x2025;" 
d="M740 324q0 -33 -21 -53t-54 -20q-30 0 -50 20.5t-20 52.5t20.5 52t54.5 20q29 0 49.5 -21t20.5 -51zM305 324q0 -33 -21 -53t-54 -20q-30 0 -50 20.5t-20 52.5t20.5 52t54.5 20q30 0 50 -21t20 -51z" />
    <glyph glyph-name="ellipsis" unicode="&#x2026;" 
d="M801 329q0 -28 -17 -45t-46 -17q-27 0 -44 17.5t-17 44.5t17.5 44.5t47.5 17.5q26 0 42.5 -17.5t16.5 -44.5zM512 329q0 -28 -17.5 -45t-46.5 -17q-27 0 -44 17.5t-17 44.5t17.5 44.5t47.5 17.5q26 0 43 -17.5t17 -44.5zM223 329q0 -28 -18 -45t-47 -17q-26 0 -43 17.5
t-17 44.5t17.5 44.5t46.5 17.5q26 0 43.5 -17.5t17.5 -44.5z" />
    <glyph glyph-name="perthousand" unicode="&#x2030;" 
d="M141 319q-29 2 -51 19q-23 16 -33 42t-9 57t13 64t33 63t49 51.5t58 31.5q29 11 58 9.5t52 -16.5q23 -16 33 -42t9 -57q-1 -32 -12.5 -65.5t-31.5 -63.5q-21 -30 -49.5 -51.5t-58.5 -32.5q-30 -10 -60 -9zM84 -77h-75l559 751h75zM117 405q4 -14 15 -20q20 -14 54 2.5
t67 64.5q30 45 35 84t-15 54q-21 14 -56.5 -2.5t-67.5 -62.5q-15 -23 -23.5 -45t-10.5 -41t2 -34zM369 -71q-29 1 -51 18q-23 16 -33 42t-9 57t13 64t33 63t49 51.5t58 31.5q29 11 58 9.5t52 -16.5q23 -16 33 -42t9 -57q-1 -32 -12.5 -65.5t-31.5 -63.5q-21 -30 -49.5 -51.5
t-58.5 -32.5q-30 -10 -60 -8zM345 14q4 -14 15 -20q20 -14 54 2.5t67 64.5q30 45 35 84t-15 54q-21 14 -56.5 -2.5t-67.5 -62.5q-15 -23 -23.5 -45t-10.5 -41t2 -34zM681 -71q-29 1 -51 18q-23 16 -33 42t-9 57t13 64t33 63t49 51.5t58 31.5q29 11 58 9.5t52 -16.5
q23 -16 33 -42t9 -57q-1 -32 -12.5 -65.5t-31.5 -63.5q-21 -30 -49.5 -51.5t-58.5 -32.5q-30 -10 -60 -8zM657 14q4 -14 15 -20q20 -14 54 2.5t67 64.5q30 45 35 84t-15 54q-21 14 -56.5 -2.5t-67.5 -62.5q-15 -23 -23.5 -45t-10.5 -41t2 -34z" />
    <glyph glyph-name="minute" unicode="&#x2032;" horiz-adv-x="450" 
d="M145 578q0 2 2 6q7 19 14.5 38t15.5 39q7 19 14.5 38t15.5 39q5 12 17 21.5t25 9.5q18 0 27.5 -14t9.5 -24q0 -11 -5 -23.5t-12 -24.5q-8 -14 -23.5 -35.5t-31.5 -42.5q-17 -20 -31.5 -35t-20.5 -15q-7 0 -12 4.5t-5 13.5v5z" />
    <glyph glyph-name="second" unicode="&#x2033;" horiz-adv-x="450" 
d="M246 541q-11 -16 -27 -8q-15 8 -7 25l68 167q7 18 27.5 26.5t36.5 -1.5q18 -11 21 -32.5t-9 -36.5zM113 560q-11 -16 -27 -8q-15 8 -7 25l67 167q3 9 10.5 16t16.5 11t19 4t19 -6q18 -10 20 -32t-11 -37z" />
    <glyph glyph-name="uni203B" unicode="&#x203b;" 
d="M822 320q0 -29 -19.5 -47.5t-48.5 -18.5q-27 0 -46.5 18.5t-19.5 46.5q0 27 18.5 47t47.5 20q28 0 48 -19t20 -47zM211 320q0 -29 -19.5 -47.5t-46.5 -18.5q-29 0 -48.5 18.5t-19.5 46.5q0 27 19 47t49 20q26 0 46 -19t20 -47zM497 578q-18 -19 -47 -19q-28 0 -48 19
t-20 48q0 27 19 47t49 20q27 0 46.5 -20t19.5 -47q0 -29 -19 -48zM497 -34q-18 -19 -47 -19q-28 0 -48 19t-20 48q0 27 19 46.5t49 19.5q27 0 46.5 -19t19.5 -46q0 -30 -19 -49zM812 4l-48 -47l-314 314l-316 -314l-47 47l313 316l-313 315l47 48l316 -314l314 314l48 -48
l-314 -315z" />
    <glyph glyph-name="uni2074" unicode="&#x2074;" horiz-adv-x="450" 
d="M199 500h-43v51h-131v44q33 46 66.5 92t67.5 94h40v-190h44v-40h-44v-51zM156 591v121q-11 -15 -22 -30.5t-22 -30.5l-22 -30l-21 -30h87z" />
    <glyph glyph-name="uni207F" unicode="&#x207f;" horiz-adv-x="450" 
d="M237 489h-42v161q0 45 -14 61t-41 16q-26 0 -50 -26q-11 -11 -18.5 -25.5t-7.5 -29.5v-157h-42v270h40v-31q16 18 39 29t50 11q22 0 38 -10t27 -24q10 -14 15.5 -31t5.5 -32v-182z" />
    <glyph glyph-name="uni2081" unicode="&#x2081;" horiz-adv-x="450" 
d="M157 -90h-42v211h-60v32q25 0 46 9t21 39h35v-291z" />
    <glyph glyph-name="uni2082" unicode="&#x2082;" horiz-adv-x="450" 
d="M225 -86h-205q0 33 16 62t59 57l46 30q15 10 25 23t10 29q0 21 -12.5 34t-36.5 13q-32 0 -42.5 -16.5t-10.5 -39.5h-45q0 33 24 65q24 31 74 31q48 0 72 -27t24 -60q0 -18 -6 -31t-14.5 -23t-18.5 -17t-19 -13q-11 -7 -24.5 -15.5t-26.5 -17.5q-13 -10 -24 -21t-15 -23
h150v-40z" />
    <glyph glyph-name="uni2083" unicode="&#x2083;" horiz-adv-x="450" 
d="M68 3q0 -21 13 -38t46 -17q25 0 40 15.5t15 36.5t-18.5 32t-39.5 11h-22v40q36 0 54 9.5t18 33.5q0 15 -12.5 25.5t-36.5 10.5t-38 -12t-13 -36h-45q0 43 27.5 65.5t69.5 22.5q19 0 36.5 -5.5t30.5 -15.5t20.5 -24t7.5 -31q0 -23 -11 -38.5t-20 -21.5q17 -10 28.5 -26.5
t11.5 -40.5q0 -39 -28.5 -65.5t-74.5 -26.5q-45 0 -75 25.5t-30 65.5v5h46z" />
    <glyph glyph-name="uni2084" unicode="&#x2084;" horiz-adv-x="450" 
d="M199 -80h-43v52h-131v43q33 46 66.5 92t67.5 94h40v-190h44v-39h-44v-52zM156 11v121q-11 -15 -22 -30.5t-22 -30.5l-22 -30l-21 -30h87z" />
    <glyph glyph-name="Euro" unicode="&#x20ac;" 
d="M521 127h-187q22 -79 75.5 -119t134.5 -40q48 0 80 10.5t59 29.5q10 -15 21 -30t22 -29q-33 -25 -86 -40.5t-108 -15.5q-107 0 -189 60t-115 174h-112v81h96q-3 33 -3 66.5t4 68.5h-96v81h112q31 116 115 185q82 67 191 67q54 0 102 -14t73 -35q-11 -15 -21.5 -32
t-21.5 -31q-26 17 -56 26.5t-75 9.5q-78 0 -130.5 -42.5t-76.5 -133.5h222v-81h-235q-3 -33 -2.5 -66.5t3.5 -68.5h204v-81z" />
    <glyph glyph-name="uni2103" unicode="&#x2103;" 
d="M791 25q-14 -24 -35 -49.5t-50 -46.5t-66 -34.5t-82 -13.5q-69 0 -125 26t-98 74q-40 48 -62 116.5t-22 155.5q0 85 21.5 154t60.5 120t93.5 79t120.5 28q45 0 83.5 -13t68.5 -32q30 -20 51 -43.5t33 -45.5q-16 -9 -32.5 -18t-31.5 -17q-24 31 -63 60q-39 30 -100 30
q-47 0 -84.5 -20t-64.5 -58.5t-41.5 -93t-14.5 -123.5t14 -124.5t41 -94t65.5 -59t86.5 -20.5q31 0 57 8.5t47 22t37 31t28 35.5q7 -5 15 -9t17 -8q4 -2 8 -4.5t8 -4.5zM241 533q-34 -34 -81 -34q-48 0 -82 34t-34 82q0 47 34 81t82 34q47 0 81 -34q35 -35 35 -81
q0 -47 -35 -82zM203 571q18 17 18 44q0 26 -17.5 43t-43.5 17q-27 0 -44 -17t-17 -43q0 -27 17 -44t44 -17q26 0 43 17z" />
    <glyph glyph-name="uni2109" unicode="&#x2109;" 
d="M731 218h-314v-301h-83v684h439v-80h-356v-222h314v-81zM246 533q-34 -34 -81 -34q-48 0 -82 34t-34 82q0 47 34 81t82 34q47 0 81 -34t34 -81q0 -48 -34 -82zM206 572q18 17 18 43q0 24 -17.5 41.5t-41.5 17.5q-26 0 -43 -17.5t-17 -41.5q0 -26 17 -43t43 -17
q24 0 41 17z" />
    <glyph glyph-name="uni2113" unicode="&#x2113;" 
d="M634 4q-24 -48 -50.5 -73t-60.5 -35t-75 9t-73 68q-17 -10 -46 -19t-53 -10l-27 79q15 1 41 5t47 15q-30 69 -39 147t-6 163q2 73 16 136t38 111q23 48 54.5 75.5t67.5 30.5q39 2 66 -25t42 -76t18 -116.5t-6 -145.5q-9 -65 -23.5 -117t-33 -93.5t-39.5 -71.5t-42 -50
q16 -27 34.5 -33t34.5 3q32 14 55 73zM382 445q-8 -47 -9 -93q-2 -39 0.5 -79.5t6.5 -76.5q5 -37 12 -67t16 -47q39 42 65.5 111t35.5 157q4 45 5.5 94t-2.5 89q-4 39 -15 64.5t-31 25.5q-19 -2 -35 -27t-29 -64q-12 -39 -20 -87z" />
    <glyph glyph-name="uni2116" unicode="&#x2116;" 
d="M891 -6q0 -24 -16 -40t-37 -16t-36.5 16t-15.5 40q0 21 15.5 39t36.5 18t37 -18t16 -39zM462 282q12 44 34 77q23 32 55.5 51.5t75.5 19.5q42 0 74.5 -19.5t55.5 -51.5q22 -33 34 -76.5t12 -92.5q0 -51 -12 -94t-34 -75q-23 -33 -55.5 -51.5t-74.5 -18.5
q-43 0 -75.5 18.5t-55.5 51.5q-22 32 -33.5 75t-11.5 94q0 49 11 92zM418 -41h-81l-235 555v-555h-68v690h82l235 -554v554h67v-690zM672 33q21 13 35.5 35.5t22 54t7.5 67.5q0 71 -30 121q-29 50 -80 50q-52 0 -81 -50q-28 -49 -28 -121q0 -36 7 -67.5t21 -54t34 -35.5
t47 -13q25 0 45 13z" />
    <glyph glyph-name="uni2121" unicode="&#x2121;" 
d="M846 -47h-72v638h72v-638zM708 71q-8 -25 -22 -48.5t-36 -41.5q-22 -19 -52 -30t-70 -11q-45 0 -80 17t-60 47q-26 30 -39.5 70.5t-13.5 86.5q0 45 13.5 85.5t38.5 70.5t60 48t80 18q40 0 75.5 -15.5t61.5 -45.5q26 -31 41.5 -76t15.5 -105h-314q1 -32 12 -58t28 -44
q36 -38 81 -38t70.5 20.5t34.5 49.5h75zM279 -48h-72v574h-178v64h427v-64h-177v-574zM645 201q-4 53 -37 87.5t-81 34.5q-45 0 -78 -32.5t-39 -89.5h235z" />
    <glyph glyph-name="trademark" unicode="&#x2122;" 
d="M776 279h-54l-1 273l-96 -273h-44l-99 266v-266h-54v361h76l98 -263l91 263h83v-361zM273 279h-58v314h-122v47h300v-47h-120v-314z" />
    <glyph glyph-name="Omega" unicode="&#x2126;" 
d="M677 -69h-174q-21 0 -26 14t-5 31v103q0 27 7 40t18 17q63 18 100 76t37 157q0 108 -53 173t-139 65q-43 0 -78 -17.5t-60 -49.5t-38.5 -76t-13.5 -98q0 -91 31.5 -146.5t97.5 -83.5q15 -3 22 -13t10 -22q3 -11 3 -21v-13q0 -1 -0.5 -12t-0.5 -27t-0.5 -34.5t-0.5 -32.5
q0 -12 -6.5 -21t-21.5 -9h-169v74h125v58q-38 13 -69.5 39.5t-55 65t-36.5 87.5t-13 109q-1 66 19.5 124.5t57.5 103.5q36 45 86.5 70.5t110.5 25.5t110 -24.5t86 -67.5t56.5 -101t20.5 -127q0 -57 -14 -106t-38 -88q-23 -39 -54 -67t-65 -41v-61h133v-74z" />
    <glyph glyph-name="uni212B" unicode="&#x212b;" 
d="M331 665q0 46 33 81q34 34 82 34q47 0 81 -34q35 -35 35 -81q0 -47 -35 -82q-35 -33 -81 -33q-24 0 -45 9t-36.5 24.5t-24.5 36.5t-9 45zM736 -99h-87l-61 153h-286l-61 -153h-86l246 622h89zM487 622q18 17 18 43q0 25 -17.5 42t-41.5 17q-25 0 -42 -17t-17 -42
q0 -26 17 -42.5t42 -16.5q24 0 41 16zM560 128l-114 295l-115 -295h229z" />
    <glyph glyph-name="onethird" unicode="&#x2153;" 
d="M115 -145l-54 40l669 816l54 -38zM586 -34q-3 -33 18.5 -57t66.5 -24q39 0 61 20.5t23 52.5q1 22 -14.5 40t-39.5 24q-8 1 -16.5 2t-16.5 1q-4 1 -8 1h-8h-15v57q17 0 35 1.5t31 7.5q37 17 41 59q0 23 -18.5 42t-54.5 19q-42 0 -59 -22t-16 -50h-68q-3 60 40 94
q44 35 103 35q61 0 102 -35q40 -34 40 -83q0 -20 -5.5 -35.5t-14 -27t-18 -20t-17.5 -12.5q28 -13 49 -39.5t21 -59.5q0 -55 -44 -93t-112 -38t-114 39q-45 39 -42 101h70zM277 329h-69v290h-93v57q21 0 41 4.5t35 14.5q11 7 20 21.5t9 32.5h57v-420z" />
    <glyph glyph-name="twothirds" unicode="&#x2154;" 
d="M130 -145l-54 40l670 816l52 -38zM675 21q-4 1 -8 1h-8h-32v57q18 0 35.5 2t30.5 8q18 8 28.5 22.5t11.5 36.5t-17.5 41.5t-54.5 19.5q-42 0 -59 -22.5t-15 -49.5l-69 -1q-3 60 40 94q44 35 104 35q61 0 102 -35q40 -34 40 -82q0 -20 -5.5 -35.5t-14 -27.5t-18 -20
t-18.5 -12q29 -13 49 -39.5t20 -59.5q0 -29 -11.5 -53t-32 -41t-49 -27t-61.5 -10q-68 0 -114 39q-45 39 -43 101l70 -1q-3 -33 19 -56.5t67 -23.5q38 0 60.5 20.5t24.5 52.5q0 22 -16 39.5t-40 24.5zM351 327h-300q0 45 22 92t79 83l75 48q21 14 37.5 34t16.5 49
q0 30 -18.5 51t-54.5 21q-43 0 -62 -26t-18 -59h-69q0 25 9 50.5t28 45.5t46.5 33t65.5 13q35 0 61.5 -10.5t44.5 -28.5t27.5 -41.5t9.5 -49.5q0 -52 -28 -81q-14 -14 -27.5 -26t-27.5 -21q-4 -3 -16.5 -11t-27.5 -18t-28.5 -20t-19.5 -14q-17 -13 -28.5 -28t-14.5 -29h218
v-57z" />
    <glyph glyph-name="oneeighth" unicode="&#x215b;" 
d="M274 328h-69v290h-92v57q21 0 41 4.5t35 14.5q11 7 19.5 21t8.5 32h57v-419zM521 12q20 28 59 47q-63 37 -63 93q0 47 43 80t106 33t107 -33t44 -80q0 -55 -63 -92q78 -43 78 -107q0 -26 -13 -48.5t-35 -39.5q-48 -37 -118 -37q-72 0 -117 37q-22 17 -34.5 39.5
t-12.5 48.5q0 32 19 59zM723 104q21 17 21 44q0 25 -20.5 42.5t-57.5 17.5q-38 0 -57 -17.5t-19 -42.5q0 -27 19 -44t57 -17q37 0 57 17zM734 -95q25 20 25 51q0 30 -25 51t-68 21q-42 0 -66 -21t-24 -51q0 -31 24 -51t66 -20q43 0 68 20zM144 -145l-54 40l670 816l53 -38z
" />
    <glyph glyph-name="threeeighths" unicode="&#x215c;" 
d="M521 12q20 28 59 47q-63 37 -63 93q0 47 43 80t106 33t107 -33t44 -80q0 -55 -63 -92q78 -43 78 -107q0 -26 -13 -48.5t-35 -39.5q-48 -37 -118 -37q-72 0 -117 37q-22 17 -34.5 39.5t-12.5 48.5q0 32 19 59zM144 -145l-54 40l670 816l53 -38zM241 515q-4 1 -8 1h-8h-31
v58q17 0 34.5 1t30.5 7q36 18 40 59q0 24 -18 43.5t-54 19.5q-41 0 -58 -23t-15 -50h-68q-3 58 39 93q43 35 103 35t100 -35q40 -34 40 -83q0 -20 -5.5 -35.5t-13.5 -27t-17.5 -19.5t-18.5 -12q29 -13 49 -39.5t20 -59.5q0 -29 -11.5 -53t-31.5 -41t-48.5 -27t-61.5 -10
q-67 0 -113 39q-45 39 -42 100h69q-3 -33 19.5 -56.5t65.5 -23.5q38 0 60 20t23 52q0 23 -15.5 41t-38.5 24zM734 -95q25 20 25 51q0 30 -25 51t-68 21q-42 0 -66 -21t-24 -51q0 -31 24 -51t66 -20q43 0 68 20zM723 104q21 17 21 44q0 25 -20.5 42.5t-57.5 17.5
q-38 0 -57 -17.5t-19 -42.5q0 -27 19 -44t57 -17q37 0 57 17z" />
    <glyph glyph-name="fiveeighths" unicode="&#x215d;" 
d="M132 448q3 -27 25 -46t58 -19q35 0 57.5 24t25.5 63q2 39 -21 65t-59 26q-26 0 -44.5 -9t-28.5 -24l-73 -1l36 225h241v-59h-184l-18 -99q21 12 50.5 17t54.5 1q18 -4 38 -13t37 -25q17 -17 28.5 -42t11.5 -59q0 -36 -13.5 -63.5t-35.5 -46.5t-49 -28.5t-54 -9.5
q-35 0 -62 10.5t-47 28.5q-39 38 -44 88zM521 12q20 28 59 47q-63 37 -63 93q0 47 43 80t106 33t107 -33t44 -80q0 -55 -63 -92q78 -43 78 -107q0 -26 -13 -48.5t-35 -39.5q-48 -37 -118 -37q-72 0 -117 37q-22 17 -34.5 39.5t-12.5 48.5q0 32 19 59zM723 104q21 17 21 44
q0 25 -20.5 42.5t-57.5 17.5q-38 0 -57 -17.5t-19 -42.5q0 -27 19 -44t57 -17q37 0 57 17zM734 -95q25 20 25 51q0 30 -25 51t-68 21q-42 0 -66 -21t-24 -51q0 -31 24 -51t66 -20q43 0 68 20zM144 -145l-54 40l670 816l53 -38z" />
    <glyph glyph-name="seveneighths" unicode="&#x215e;" 
d="M158 333q2 30 15 77t43 104q27 52 59.5 94t53.5 64h-238v64h299v-65q-18 -16 -44.5 -50t-52.5 -88q-14 -27 -24.5 -55.5t-18 -54.5t-11 -49t-3.5 -41h-78zM521 12q20 28 59 47q-63 37 -63 93q0 47 43 80t106 33t107 -33t44 -80q0 -55 -63 -92q78 -43 78 -106
q0 -26 -13 -48.5t-35 -39.5q-48 -37 -118 -37q-72 0 -117 37q-22 17 -34.5 39.5t-12.5 48.5q0 31 19 58zM80 -105l669 816q6 -5 12.5 -10t13.5 -10q13 -11 27 -18q-85 -103 -167.5 -204.5t-166.5 -204.5q-85 -103 -167.5 -204t-166.5 -204zM723 104q21 17 21 44
q0 25 -20.5 42.5t-57.5 17.5q-38 0 -57 -17.5t-19 -42.5q0 -27 19 -44t57 -17q37 0 57 17zM734 -94q25 20 25 50q0 31 -25 51.5t-68 20.5q-42 0 -66 -20.5t-24 -51.5q0 -30 24 -50.5t66 -20.5q43 0 68 21z" />
    <glyph glyph-name="uni2160" unicode="&#x2160;" 
d="M493 -62h-86v745h86v-745z" />
    <glyph glyph-name="uni2161" unicode="&#x2161;" 
d="M647 -62h-85v746h85v-746zM337 -62h-85v746h85v-746z" />
    <glyph glyph-name="uni2162" unicode="&#x2162;" 
d="M690 -62h-85v746h85v-746zM493 -62h-86v746h86v-746zM294 -62h-85v746h85v-746z" />
    <glyph glyph-name="uni2163" unicode="&#x2163;" 
d="M472 -62q-27 94 -53 186.5t-52 186.5q-27 94 -53 186.5t-52 186.5h94l171 -636l168 636h94q-27 -94 -53.5 -186.5t-52.5 -186.5t-52.5 -186.5t-52.5 -186.5h-106zM226 -62h-86v746h86v-746z" />
    <glyph glyph-name="uni2164" unicode="&#x2164;" 
d="M404 -62q-34 94 -67.5 186.5t-66.5 186.5q-34 94 -67.5 186.5t-66.5 186.5h94q28 -81 56.5 -161.5t56.5 -161.5t56.5 -161.5t57.5 -161.5q28 81 56.5 161.5t57.5 161.5q28 81 56.5 161.5t57.5 161.5h94q-34 -94 -67.5 -186.5t-66.5 -186.5q-34 -94 -67.5 -186.5
t-66.5 -186.5h-107z" />
    <glyph glyph-name="uni2165" unicode="&#x2165;" 
d="M426 -62h-105q-27 94 -53 186.5t-52 186.5q-27 94 -53 186.5t-51 186.5h93l84 -318q21 -80 42 -159t43 -159l168 636h93q-14 -48 -27 -94t-26 -93l-52 -186q-13 -48 -26 -94t-26 -93zM761 -62h-85v746h85v-746z" />
    <glyph glyph-name="uni2166" unicode="&#x2166;" 
d="M249 -62q-23 94 -45.5 186.5t-45.5 186.5l-46 186q-11 47 -22.5 93t-22.5 94h95q17 -81 34.5 -159.5t35.5 -159.5q17 -81 34.5 -160t35.5 -158q17 79 34.5 158t35.5 160t35.5 159.5t35.5 159.5h93q-23 -94 -45.5 -186.5t-45.5 -186.5t-45.5 -186.5t-44.5 -186.5h-106z
M802 -62h-79v746h79v-746zM654 -62h-79v746h79v-746z" />
    <glyph glyph-name="uni2167" unicode="&#x2167;" 
d="M854 -62h-75v745h75v-745zM717 -62h-75v745h75v-745zM579 -62h-75v745h75v-745zM304 -62h-104q-21 94 -41.5 186t-40.5 186q-21 94 -41.5 186.5t-40.5 186.5h87l129 -639l129 639h86q-21 -94 -41.5 -186.5t-40.5 -186.5z" />
    <glyph glyph-name="uni2168" unicode="&#x2168;" 
d="M708 -64q-23 37 -46 74.5t-46 75.5q-24 37 -47 74.5t-45 75.5q-24 -38 -47 -75.5t-45 -74.5q-23 -38 -46 -75.5t-46 -74.5h-97q28 48 57 96t59 96l116 192q-28 45 -56 90.5t-55 91.5q-28 46 -56 91.5t-55 91.5h99q14 -26 37 -64.5t48 -80.5t47.5 -80t37.5 -62l174 287h98
q-28 -46 -55.5 -92t-55.5 -91q-28 -46 -55.5 -92t-54.5 -91l116 -192q29 -48 58 -95.5t59 -95.5h-98zM202 -64h-83v749h83v-749z" />
    <glyph glyph-name="uni2169" unicode="&#x2169;" 
d="M653 -64l-198 312l-99 -156q-25 -39 -49.5 -78t-48.5 -78h-95q30 48 60.5 96.5t60.5 97.5q31 48 61.5 96.5t61.5 97.5q-59 90 -114 180q-28 45 -56.5 90.5t-56.5 90.5h96q22 -36 44.5 -71.5t44.5 -70.5q22 -36 44.5 -71.5t45.5 -70.5q22 35 44.5 70.5t45.5 71.5
q22 35 44.5 70.5t45.5 71.5h95q-29 -46 -57.5 -91t-56.5 -90q-29 -45 -57.5 -90.5t-56.5 -90.5q16 -26 48 -75.5t68 -106.5t71 -112.5t59 -92.5h-95z" />
    <glyph glyph-name="uni2170" unicode="&#x2170;" 
d="M496 595h-88v91h88v-91zM495 -60h-86v542h86v-542z" />
    <glyph glyph-name="uni2171" unicode="&#x2171;" 
d="M639 593h-87v91h87v-91zM349 593h-86v91h86v-91zM638 -62h-85v542h85v-542zM348 -62h-84v542h84v-542z" />
    <glyph glyph-name="uni2172" unicode="&#x2172;" 
d="M685 593h-87v91h87v-91zM495 593h-88v91h88v-91zM303 593h-87v91h87v-91zM684 -62h-85v542h85v-542zM494 -62h-86v542h86v-542zM302 -62h-85v542h85v-542z" />
    <glyph glyph-name="uni2173" unicode="&#x2173;" 
d="M658 78q-13 -34 -25.5 -67t-25.5 -67h-111q-26 67 -51.5 134t-51.5 134q-53 133 -102 270h98q20 -55 40.5 -110t40.5 -110q21 -55 41 -110t41 -109q20 54 40 109t41 110l40 110q10 28 20 55t21 55h99q-26 -69 -52 -136t-51 -134zM246 -60h-85v542h85v-542zM248 595h-88
v92h88v-92z" />
    <glyph glyph-name="uni2174" unicode="&#x2174;" 
d="M400 -66l-51 138l-50 138q-25 69 -50 138.5t-50 138.5h91q20 -57 40 -113.5t40 -113.5t40 -113t41 -113q20 57 40.5 113t41.5 113q20 57 40.5 113.5t41.5 113.5h92q-26 -69 -51.5 -138.5t-51.5 -138.5q-53 -138 -102 -276h-102z" />
    <glyph glyph-name="uni2175" unicode="&#x2175;" 
d="M319 -57q-26 67 -51 134t-51 134q-25 67 -50.5 134t-50.5 136h96q19 -55 39 -110t41 -110l40 -110q10 -28 20 -55l20 -54q10 27 19.5 54t19.5 55l120 330h98q-51 -136 -102 -269.5t-102 -268.5h-106zM767 -61h-85v542h85v-542zM768 594h-87v92h87v-92z" />
    <glyph glyph-name="uni2176" unicode="&#x2176;" 
d="M249 -58q-23 67 -46 134.5t-46 134.5l-46 134t-45 136h94q8 -28 17 -55t18 -55l36 -110q34 -110 71 -219q18 54 35.5 109t35.5 110t35.5 110t35.5 110h93q-23 -69 -45.5 -136t-45.5 -134t-46 -134.5t-45 -134.5h-106zM659 -61h-78v542h78v-542zM805 -61h-77v542h77v-542z
M660 594h-81v91h81v-91zM806 594h-80v91h80v-91z" />
    <glyph glyph-name="uni2177" unicode="&#x2177;" 
d="M856 594h-77v92h77v-92zM719 594h-78v92h78v-92zM581 594h-77v92h77v-92zM189 -57q-21 67 -42.5 134t-42.5 134q-42 133 -84 270h93q16 -57 32.5 -112t32.5 -110q31 -113 66 -222q16 55 32.5 110t32.5 112q31 109 66 222h94q-43 -136 -86 -269.5t-85 -268.5h-109z
M855 -61h-75v542h75v-542zM718 -61h-76v542h76v-542zM581 -61h-76v542h76v-542z" />
    <glyph glyph-name="uni2178" unicode="&#x2178;" 
d="M681 -62l-36 50q-9 13 -18 25t-17 25q-18 24 -36 49t-35 51q-18 -26 -36 -51t-36 -49q-18 -25 -35.5 -50t-35.5 -50h-106q48 69 97 138.5t100 138.5q-24 33 -47.5 66t-46.5 66q-24 33 -47.5 66.5t-46.5 66.5h105l135 -189q16 23 33 46.5t34 47.5q16 24 33 47.5t34 47.5
h105q-24 -33 -47.5 -66.5t-46.5 -66.5q-24 -33 -47.5 -66t-46.5 -66q24 -35 49 -69.5t50 -69.5q24 -35 49 -69.5t50 -68.5h-107zM255 -61h-85v541h85v-541zM257 594h-88v91h88v-91z" />
    <glyph glyph-name="uni2179" unicode="&#x2179;" 
d="M601 -63l-147 207l-147 -207h-102l98 140t98 142q-48 66 -94 133t-92 136h103q33 -49 67 -97.5t69 -96.5q16 24 33 48t35 49l34 48q8 12 17 24t17 25h103q-48 -69 -93.5 -136t-93.5 -133q49 -72 98 -142l98 -140h-101z" />
    <glyph glyph-name="arrowleft" unicode="&#x2190;" 
d="M883 268h-579l30 -94l-332 129l332 124l-30 -94h579v-65z" />
    <glyph glyph-name="arrowup" unicode="&#x2191;" 
d="M482 -153h-64v631l-95 -30l127 332l126 -332l-94 30v-631z" />
    <glyph glyph-name="arrowright" unicode="&#x2192;" 
d="M901 303l-331 -129l30 93h-580v65h580l-30 95z" />
    <glyph glyph-name="arrowdown" unicode="&#x2193;" 
d="M450 -179l-127 332l94 -30v632h65v-631l94 30z" />
    <glyph glyph-name="arrowboth" unicode="&#x2194;" 
d="M908 300l-289 -165l30 132h-400l30 -132l-288 165l288 164l-30 -131h400l-30 131z" />
    <glyph glyph-name="arrowupdn" unicode="&#x2195;" 
d="M448 -189l-163 288l132 -30v461l-132 -30l163 288l166 -288l-132 30v-461l132 30z" />
    <glyph glyph-name="uni2196" unicode="&#x2196;" 
d="M833 -128l-640 640l-29 -90l-152 318l317 -153l-90 -29l639 -640z" />
    <glyph glyph-name="uni2197" unicode="&#x2197;" 
d="M738 422l-29 90l-639 -640l-46 46l639 640l-90 29l317 153z" />
    <glyph glyph-name="uni2198" unicode="&#x2198;" 
d="M885 -135l-316 153l88 29l-638 639l46 46l638 -639l31 89z" />
    <glyph glyph-name="uni2199" unicode="&#x2199;" 
d="M334 18l-317 -153l152 317l29 -89l639 639l46 -46l-639 -639z" />
    <glyph glyph-name="arrowdblright" unicode="&#x21d2;" 
d="M887 299l-276 -274l-45 42l113 110h-630v58h688l66 64l-66 64h-688v58h630l-113 110l45 42z" />
    <glyph glyph-name="arrowdblboth" unicode="&#x21d4;" 
d="M886 299l-278 -274l-43 42l113 110h-456l113 -110l-44 -42l-278 274l278 274l44 -42l-113 -110h456l-113 110l43 42zM801 299l-66 64h-570l-67 -64l67 -64h570z" />
    <glyph glyph-name="universal" unicode="&#x2200;" 
d="M505 -70h-106l-268 748h90l68 -188h325l69 186h90zM452 35l134 371h-268z" />
    <glyph glyph-name="partialdiff" unicode="&#x2202;" horiz-adv-x="450" 
d="M95 588q22 54 64.5 90.5t105.5 40.5q72 0 118 -58q47 -58 47 -151q0 -39 -8.5 -88.5t-22.5 -103.5t-33 -104t-40 -92q-31 -57 -72.5 -87t-86.5 -30q-38 0 -72 16.5t-54 43.5q-12 18 -19 42t-7 56q0 58 16.5 108.5t44.5 87.5q27 38 63.5 60t76.5 23q68 1 115 -76
q7 33 11.5 56t6.5 41q3 17 4 30.5t1 27.5q0 48 -23 82t-63 34q-58 0 -95 -91zM97 233q-9 -33 -6 -58q0 -39 19 -65.5t54 -26.5q50 0 82 63q15 30 26 62t11 61q0 18 -5 35.5t-14 31t-22 22t-29 8.5q-26 -1 -49 -21t-40 -49q-17 -30 -27 -63z" />
    <glyph glyph-name="existential" unicode="&#x2203;" 
d="M706 -69h-468v84h381v236h-366v83h366v257h-392v85h479v-745z" />
    <glyph glyph-name="gradient" unicode="&#x2207;" 
d="M891 675q-112 -193 -221 -382.5t-220 -380.5q-112 191 -221.5 380.5t-220.5 382.5h883zM450 24q43 75 86 149t86 149q42 75 84.5 149.5t87.5 149.5h-689z" />
    <glyph glyph-name="element" unicode="&#x2208;" 
d="M804 13h-419q-73 0 -130.5 21.5t-97.5 60.5q-40 38 -61 90t-21 115q0 60 21 112.5t61 91.5q40 38 97.5 60.5t130.5 22.5h419v-64h-432q-58 0 -100 -19.5t-70 -47.5q-28 -29 -42.5 -62t-16.5 -61h660v-66h-660q2 -29 16.5 -62t42.5 -62q28 -28 70 -47t100 -19h432v-64z
" />
    <glyph glyph-name="suchthat" unicode="&#x220b;" 
d="M526 77q58 0 100 19t70 47q28 29 42.5 62t16.5 62h-659v66h659q-2 27 -16.5 60.5t-42.5 61.5q-28 29 -70 48.5t-100 19.5h-431v64h419q72 0 129.5 -22.5t97.5 -60.5q40 -39 61.5 -91.5t21.5 -112.5q0 -63 -21.5 -115t-61.5 -90q-40 -39 -97.5 -60.5t-129.5 -21.5h-419v64
h431z" />
    <glyph glyph-name="product" unicode="&#x220f;" 
d="M635 -44h-83v600h-203v-600h-83v600h-143v90h657v-90h-145v-600z" />
    <glyph glyph-name="summation" unicode="&#x2211;" 
d="M667 -9h-525l18 78l295 295l-179 245l23 80h475l-13 -89h-385l184 -246l-287 -275h416z" />
    <glyph glyph-name="radical" unicode="&#x221a;" 
d="M275 -105l-160 409l-53 -57l-23 37l118 124l127 -324l215 694h341v-51h-300z" />
    <glyph glyph-name="proportional" unicode="&#x221d;" 
d="M818 141q-37 -24 -65.5 -33.5t-63.5 -9.5q-42 0 -74 12.5t-55 30.5q-24 18 -40.5 39t-25.5 38q-10 -17 -26.5 -37.5t-40.5 -39.5q-24 -18 -55 -30.5t-70 -12.5q-43 0 -81 15.5t-66 43.5q-28 27 -44 64t-16 79t16 78.5t44 64.5q28 27 66 43t81 16q39 0 70 -13t55 -32
t40.5 -40t26.5 -36q10 15 26.5 36t40.5 40t55 32t73 13q34 0 64 -10t63 -34l-39 -58q-26 18 -44 24t-44 6q-40 0 -68 -17t-46 -39q-19 -22 -29 -43.5t-13 -30.5q3 -10 13 -31.5t29 -43.5q18 -22 46 -38.5t68 -16.5q24 0 43.5 6t43.5 23zM364 186q27 17 46 39t30 43.5
t16 31.5q-5 9 -16 30.5t-30 43.5t-46 39t-62 17q-56 0 -96 -38q-39 -38 -39 -92q0 -56 39 -93q38 -37 96 -37q35 0 62 16z" />
    <glyph glyph-name="infinity" unicode="&#x221e;" 
d="M472 201q-15 20 -22 34q-8 -14 -23 -34t-37 -38t-52 -31t-68 -13q-39 0 -73 14t-59 39q-26 24 -40.5 57t-14.5 71q0 37 14.5 70t40.5 58q25 24 59 38.5t73 14.5q38 0 68 -13.5t52 -31.5t37 -38t23 -33q7 13 22 33t37 38t51.5 31.5t67.5 13.5t72.5 -14.5t59.5 -38.5
q26 -25 41 -58t15 -70q0 -38 -15 -71t-41 -57q-25 -25 -59.5 -39t-72.5 -14t-67.5 13t-51.5 31t-37 38zM326 197q24 15 41 36q16 20 26 39.5t13 27.5q-3 7 -13 26.5t-26 39.5q-17 20 -41 36t-56 16q-51 0 -86 -35t-35 -83q0 -49 35 -84q34 -34 86 -34q32 0 56 15zM714 216
q36 34 36 84q0 48 -36 83q-37 35 -86 35q-32 0 -56 -16t-41 -36t-26.5 -39.5t-12.5 -26.5q3 -8 12.5 -27.5t26.5 -39.5q17 -21 41 -36t56 -15q51 0 86 34z" />
    <glyph glyph-name="angle" unicode="&#x2220;" 
d="M819 -33h-702q-30 1 -32 20.5t22 40.5l607 613l51 -48l-557 -560h611v-66z" />
    <glyph glyph-name="uni2225" unicode="&#x2225;" 
d="M583 -192h-62v980h62v-980zM377 -192h-61v980h61v-980z" />
    <glyph glyph-name="logicaland" unicode="&#x2227;" 
d="M739 -62q-36 75 -72.5 148.5t-72.5 148.5l-72 148l-36 74t-36 75l-291 -594q-9 4 -17 8.5t-16 9.5q-8 4 -16 8.5t-16 9.5q20 41 39.5 81t39.5 82l80 164q40 81 79.5 162.5t81.5 165.5q3 6 13.5 18t22.5 12t21 -10.5t15 -19.5q39 -84 79 -165.5t80 -162.5l80 -164
q20 -42 40 -82t40 -81z" />
    <glyph glyph-name="logicalor" unicode="&#x2228;" 
d="M565 136q-20 -42 -39.5 -82t-39.5 -81q-6 -10 -15 -20t-21 -10t-22.5 12t-13.5 18q-163 327 -320 655q8 4 16 8.5t16 9.5q8 4 16 8.5t17 9.5q72 -150 145 -297.5t146 -297.5l144 297q36 75 72.5 149t72.5 149l66 -36z" />
    <glyph glyph-name="intersection" unicode="&#x2229;" 
d="M748 -69h-76v446q0 61 -21 105t-54 72t-73 41.5t-79 13.5q-36 0 -74.5 -13.5t-70.5 -41.5q-31 -28 -51.5 -72t-20.5 -105v-446h-77v435q0 73 22 132.5t64 101.5q40 42 94.5 65t118.5 23q63 0 117 -23t94 -65t63.5 -101.5t23.5 -132.5v-435z" />
    <glyph glyph-name="union" unicode="&#x222a;" 
d="M734 234q0 -75 -23.5 -134.5t-63.5 -101.5t-94 -64.5t-117 -22.5q-64 0 -118.5 22.5t-94.5 64.5q-42 42 -64 101.5t-22 134.5v434h76v-445q0 -63 21 -107.5t54 -73.5q33 -28 73.5 -41t79.5 -11q34 0 72.5 13t69.5 41q32 28 53 72t21 107v445h77v-434z" />
    <glyph glyph-name="integral" unicode="&#x222b;" 
d="M579 679q0 21 -19 21q-15 0 -28.5 -14t-23.5 -37q-10 -22 -15.5 -52t-4.5 -61q0 -57 5 -120t7 -129q3 -66 -0.5 -128.5t-19.5 -114.5q-18 -56 -68 -97q-51 -41 -118 -40q-42 0 -64 19t-22 50q0 19 14 33t38 14q22 0 36.5 -14.5t16.5 -40.5q0 -14 3 -19t15 -5
q20 0 38.5 16t32.5 43q14 26 22 60t8 70q-1 32 -3.5 69.5t-5.5 77.5q-3 42 -5.5 84t-2.5 84q0 76 11.5 130t32.5 87.5t52 49t70 15.5q46 0 73 -19t27 -47q0 -24 -15.5 -39t-38.5 -15q-48 0 -48 49v20z" />
    <glyph glyph-name="uni222C" unicode="&#x222c;" 
d="M380 -14q11 12 29 12q17 -1 25.5 -9.5t12.5 -18.5q5 -10 8.5 -18.5t11.5 -8.5q15 -2 28.5 24t23.5 63q10 36 15.5 75.5t5.5 65.5q-2 42 -3 82.5t-1 82.5q-1 42 -2 83t-2 83q0 45 13 86.5t35 72.5q22 32 51 50.5t62 18.5q27 0 45.5 -17t18.5 -39q0 -19 -14 -32t-35 -13
q-20 0 -31.5 10.5t-17.5 22.5q-6 13 -9.5 22t-6.5 6q-10 -9 -18.5 -26.5t-14.5 -37.5q-7 -21 -10 -43t-2 -40q0 -16 0.5 -37t1 -45t1 -49.5t0.5 -49.5q1 -49 1.5 -87t0.5 -45q0 -80 -13.5 -140.5t-36.5 -101.5t-55.5 -62t-69.5 -21q-27 0 -43 14.5t-16 36.5q0 18 11 30z
M389 233q0 -75 -11.5 -133.5t-33.5 -100.5q-21 -40 -61 -66q-39 -27 -74 -27q-24 0 -39.5 14.5t-15.5 35.5q0 4 3 11.5t8.5 15t13 12.5t16.5 5q17 -1 25 -10t12 -19q5 -11 8.5 -20t13.5 -9q15 -2 28 23t22 63t14.5 81.5t5.5 80.5q0 36 -1 71.5t-2 71.5q-2 36 -2.5 73
t-0.5 79q0 60 13.5 105.5t36.5 76.5q22 31 51 47t59 16q25 0 42.5 -17t17.5 -39q0 -20 -13.5 -33t-31.5 -12q-20 0 -31 10t-17 22q-6 11 -9 20t-6 9q-6 -2 -14 -16t-16 -36q-7 -21 -12 -46.5t-5 -47.5q3 -101 4.5 -156.5t1.5 -85.5v-69z" />
    <glyph glyph-name="uni222E" unicode="&#x222e;" 
d="M574 197q-33 -37 -96 -49q-6 -69 -12 -102q-3 -17 -7.5 -31t-9.5 -27q-41 -102 -147 -102q-40 0 -62.5 15.5t-22.5 46.5q0 22 13.5 36.5t35.5 14.5q21 0 35 -11.5t18 -31.5q1 -7 1.5 -13t2.5 -10q4 -10 14 -10q13 0 31.5 19.5t28.5 55.5q4 18 7 37t5 38q1 19 2 39t3 40
q-54 15 -82.5 50t-28.5 89q0 55 32 91t93 54q5 43 10 73t14 55q21 69 61 108.5t95 39.5q33 0 53.5 -17t20.5 -47q0 -24 -13 -36t-35 -12q-23 0 -33 9.5t-11 21.5q-2 5 -2.5 12t-2.5 13q-5 14 -16 14q-11 -1 -17.5 -7.5t-15.5 -24.5q-11 -24 -17 -45t-10 -44q-4 -24 -6.5 -52
t-5.5 -64q57 -18 84 -52.5t27 -88.5q0 -57 -34 -95zM557 351q-16 23 -62 49q-2 -22 -4.5 -48t-4.5 -55q-2 -28 -3.5 -58t-1.5 -58q48 15 70 43t22 70q0 35 -16 57zM357 232q19 -24 59 -42q0 34 0.5 61t2.5 51q1 24 2.5 48t4.5 52q-45 -20 -66 -46.5t-21 -63.5q0 -36 18 -60z
" />
    <glyph glyph-name="therefore" unicode="&#x2234;" 
d="M525 521q0 -32 -21.5 -52.5t-50.5 -20.5q-31 0 -52.5 20.5t-21.5 52.5q0 30 21 51.5t53 21.5q29 0 50.5 -21.5t21.5 -51.5zM791 84q0 -32 -21 -52.5t-51 -20.5q-31 0 -52 20.5t-21 52.5q0 30 21 51.5t51 21.5t51.5 -21.5t21.5 -51.5zM252 83q0 -31 -22 -52t-51 -21
q-31 0 -52.5 21t-21.5 52q0 30 21.5 52t52.5 22q29 0 50.5 -22t21.5 -52h1z" />
    <glyph glyph-name="uni2235" unicode="&#x2235;" 
d="M791 525q0 -31 -21.5 -52.5t-52.5 -21.5q-29 0 -50.5 21.5t-21.5 52.5q0 30 21.5 51.5t50.5 21.5q31 0 52.5 -21.5t21.5 -51.5zM524 84q0 -31 -21.5 -52t-51.5 -21t-51.5 21t-21.5 52t21.5 52t51.5 21t51.5 -21t21.5 -52zM254 525q0 -31 -22 -52.5t-52 -21.5t-51 21.5
t-21 52.5q0 30 21 51.5t51 21.5t52 -21.5t22 -51.5z" />
    <glyph glyph-name="similar" unicode="&#x223c;" 
d="M502 348q5 -3 10.5 -6t10.5 -5q21 -13 44 -13q50 -4 92 14q40 18 54 35q6 9 17.5 14.5t22.5 6.5q10 1 17.5 -5t6.5 -20q-4 -24 -33.5 -59t-75.5 -62q-38 -22 -80.5 -27t-90.5 13q-15 5 -27 10t-21 11q-10 5 -17.5 9.5t-13.5 9.5q-58 37 -103 30q-46 -8 -86 -33
q-9 -6 -18.5 -14.5t-20.5 -14.5q-10 -7 -21 -11.5t-22 -2.5q-18 2 -20.5 16t8.5 32q7 13 26.5 35.5t47.5 44.5t63 37.5t73 14.5q45 -3 78.5 -18t58.5 -30z" />
    <glyph glyph-name="uni223D" unicode="&#x223d;" 
d="M556 209q2 -2 11 -7.5t23 -11.5q14 -7 31.5 -11.5t36.5 -4.5q49 0 84 33q33 33 35 76q0 60 -33 98t-90 41q-35 1 -61 -11t-46 -33q-21 -21 -36 -48t-28 -53q-9 -18 -26.5 -48.5t-46.5 -59.5q-28 -28 -68.5 -48t-94.5 -17q-36 2 -71 16t-63 39q-27 26 -44 63t-15 86
q1 35 15 68.5t40 59.5q25 27 61 43t81 16q55 0 88 -18q32 -18 44 -26l-34 -59q-1 0 -10 5.5t-23 11.5q-15 6 -33 11t-36 5q-60 0 -91 -39q-30 -38 -30 -84q-2 -47 30 -87q31 -40 96 -43q37 -2 65.5 16t50.5 46q23 28 41 60.5t34 59.5q35 59 84 100q49 40 129 39
q36 -2 71 -15t63 -39q27 -25 44 -63t16 -87q-5 -79 -55 -132q-26 -25 -61.5 -40t-80.5 -15q-28 0 -50 5t-39 13q-16 7 -27 14.5t-16 11.5z" />
    <glyph glyph-name="uni2252" unicode="&#x2252;" 
d="M799 348h-699v70h699v-70zM799 182h-699v69h699v-69zM313 508q-21 -21 -53 -21q-31 0 -52 21.5t-21 52.5t21 53t52 22q32 0 53 -22t21 -53t-21 -53zM714 39q0 -31 -22.5 -53t-52.5 -22q-31 0 -52 22t-21 53q0 30 21 52.5t52 22.5q30 0 52.5 -22.5t22.5 -52.5z" />
    <glyph glyph-name="notequal" unicode="&#x2260;" 
d="M783 167h-398q-20 -25 -39 -49.5t-37 -48.5q-19 -24 -38 -48.5t-38 -48.5q-15 9 -30 23q-4 2 -7.5 5t-7.5 6l-14 12q14 18 28.5 37t28.5 37q14 19 28.5 37.5t29.5 37.5h-171v71h227q15 19 29.5 38t29.5 38l30 38l30 39h-346v71h401q16 21 32.5 42.5t33.5 42.5t33.5 42.5
t33.5 43.5l14 -12l15 -12q12 -11 29 -23q-24 -32 -48 -63t-48 -61h169v-71h-224q-30 -39 -59.5 -77t-58.5 -76h342v-71z" />
    <glyph glyph-name="equivalence" unicode="&#x2261;" 
d="M793 435h-686v64h686v-64zM793 268h-687v64h687v-64zM793 101h-687v64h687v-64z" />
    <glyph glyph-name="lessequal" unicode="&#x2264;" 
d="M687 148l-517 265q-3 1 -12.5 7.5t-9.5 9.5t9 8.5t13 7.5l504 263l37 -73l-378 -205l393 -211zM752 -8h-610v81h610v-81z" />
    <glyph glyph-name="greaterequal" unicode="&#x2265;" 
d="M722 446q4 -2 14 -7.5t10 -8.5t-10.5 -9.5t-13.5 -7.5l-516 -265l-40 72l394 211l-378 205l37 73zM752 -8h-611v81h611v-81z" />
    <glyph glyph-name="uni226A" unicode="&#x226a;" 
d="M817 -85q-75 51 -139 97t-125 89t-120.5 84.5t-122.5 84.5q-7 5 -13.5 12t-6.5 18t9 19.5t18 14.5l501 351l44 -60l-469 -325l472 -328zM578 -85q-75 51 -139.5 97t-125.5 89t-120.5 84.5t-122.5 84.5q-7 5 -13.5 12t-6.5 18t9 19.5t18 14.5l502 351l44 -60l-469 -325
l472 -328z" />
    <glyph glyph-name="uni226B" unicode="&#x226b;" 
d="M589 272q-1 -1 -1.5 -1t-1.5 -1t-3 -2t-3 -2l-501 -351l-48 57l471 328l-468 325l44 60l502 -351q3 -3 8 -6.5t9 -7.5q11 -11 11 -20t-5.5 -15t-9.5 -9zM819 334q8 -6 18 -14.5t10 -19.5q0 -9 -5.5 -15t-8.5 -9t-7 -5.5t-7 -4.5l-500 -351l-48 57l472 328l-469 325l44 60
z" />
    <glyph glyph-name="propersubset" unicode="&#x2282;" 
d="M815 4h-428v-1q-76 0 -135.5 22.5t-101.5 62.5q-42 39 -64 93.5t-22 118.5q0 63 21.5 117t63.5 94t101 63t134 23h431v-78h-444q-60 0 -103 -21t-70 -52q-28 -32 -40.5 -69.5t-12.5 -71.5v-10q0 -35 12.5 -72.5t40.5 -68.5q27 -32 70 -52t103 -20h444v-78z" />
    <glyph glyph-name="propersuperset" unicode="&#x2283;" 
d="M755 305q0 34 -13.5 71.5t-40.5 68.5q-28 32 -70 52.5t-102 20.5h-445v79h431q73 0 132 -23t101 -63t64.5 -94t22.5 -117q0 -64 -22.5 -118t-64.5 -94t-101 -62t-132 -22l-431 -1v78h445q60 0 102 20.5t70 51.5q27 32 40.5 69.5t13.5 72.5v10z" />
    <glyph glyph-name="reflexsubset" unicode="&#x2286;" 
d="M815 123h-428v-1q-84 0 -144 19.5t-100 54.5t-59.5 82t-19.5 101t19.5 101t59.5 82q40 34 100 54.5t141 20.5h431v-79h-445q-63 0 -105.5 -16t-69.5 -42q-27 -25 -39 -57t-12 -64q0 -33 12 -65t39 -57q27 -26 69.5 -41t105.5 -15h445v-78zM835 -37h-771v80h771v-80z" />
    <glyph glyph-name="reflexsuperset" unicode="&#x2287;" 
d="M529 200q61 0 104 15t71 41q27 25 39.5 57t12.5 66q0 32 -12.5 63.5t-39.5 57.5q-28 25 -71 41t-104 16h-445v80h431q81 0 140.5 -20.5t99.5 -54.5q40 -35 60 -82t20 -101t-19.5 -101t-59.5 -81q-40 -35 -100 -54.5t-141 -19.5l-431 -1v78h445zM835 -37h-771v80h771v-80z
" />
    <glyph glyph-name="uni2299" unicode="&#x2299;" 
d="M834 133q-31 -76 -86 -131q-57 -57 -131.5 -88t-162.5 -31q-91 0 -167.5 31t-133.5 88t-89 132t-32 165q0 88 32 162.5t89 131.5q57 55 134 87t168 32q88 0 162.5 -32t129.5 -87q57 -57 88 -131.5t31 -162.5q0 -90 -32 -166zM593 -44q66 28 115 79t78 117t29 144t-29 145
t-80 118t-118 80.5t-143 29.5q-75 0 -139.5 -30t-113.5 -81t-77.5 -118.5t-28.5 -143.5q0 -78 28 -144t79 -117q49 -51 116 -79t143 -28q75 0 141 28zM634 221q-15 -36 -42 -62q-26 -26 -62.5 -40t-78.5 -14q-88 0 -142 54q-27 25 -41.5 61t-14.5 79q0 42 14.5 77.5
t40.5 60.5q56 54 143 54q86 0 142 -54q56 -53 56 -137q0 -43 -15 -79z" />
    <glyph glyph-name="perpendicular" unicode="&#x22a5;" 
d="M794 -24h-688v65h311v564h66v-564h311v-65z" />
    <glyph glyph-name="uni2312" unicode="&#x2312;" 
d="M732 554q-10 42 -36.5 76.5t-65.5 59.5q-39 24 -87 37.5t-100 13.5q-54 0 -102.5 -13.5t-86.5 -37.5t-64.5 -58.5t-35.5 -77.5h-69q10 52 41.5 96t79.5 76t108 50t129 18q67 0 127.5 -18t108.5 -50t79.5 -76t42.5 -96h-69z" />
    <glyph glyph-name="uni2460" unicode="&#x2460;" 
d="M758 -8q-60 -60 -138.5 -93.5t-169.5 -33.5t-170 33.5t-139 93.5t-93.5 139t-33.5 170t34 169.5t94 138.5t138.5 93.5t169.5 33.5q90 0 168.5 -33.5t138.5 -93.5t94.5 -138.5t34.5 -169.5t-34 -170t-94 -139zM606 -70q73 31 128 86q54 55 86 127.5t32 157.5t-32.5 157.5
t-86.5 127.5q-55 54 -128 85.5t-155 31.5q-84 0 -157 -31.5t-127 -85.5q-55 -55 -87 -127.5t-32 -157.5t31.5 -157.5t86.5 -127.5t127.5 -86.5t157.5 -31.5q84 0 156 32zM492 41h-69v383h-82v50q34 6 59 20q25 15 40 66h52v-519z" />
    <glyph glyph-name="uni2461" unicode="&#x2461;" 
d="M758 -8q-60 -60 -138.5 -93.5t-169.5 -33.5t-170 33.5t-139 93.5t-93.5 139t-33.5 170t34 170t94 139t138.5 93.5t169.5 33.5q90 0 168.5 -33.5t138.5 -93.5t94.5 -139t34.5 -170t-34 -170t-94 -139zM603 41h-308q2 35 9.5 62t21.5 51q13 23 32.5 45.5t46.5 48.5
q24 24 47.5 40.5t42.5 34.5q18 17 29.5 39t11.5 58q0 24 -7 42t-17.5 30t-23.5 18t-25 6q-30 0 -47 -16t-26 -37q-8 -22 -10.5 -43.5t-2.5 -33.5h-70q2 37 11 71t27 60t46.5 41.5t70.5 15.5q23 0 48 -8t46 -26q20 -18 33.5 -47t13.5 -72q0 -59 -25 -96q-26 -39 -84 -83
q-35 -29 -55.5 -49.5t-31.5 -36.5q-12 -17 -17 -30.5t-9 -26.5h222v-58zM819 458q-32 73 -86 128q-55 54 -128 85.5t-155 31.5q-84 0 -157 -31.5t-127 -85.5q-55 -55 -87 -127.5t-32 -157.5t31.5 -157.5t86.5 -127.5q55 -54 127.5 -85.5t157.5 -31.5q84 0 156.5 31.5
t127.5 85.5q54 55 86 127.5t32 157.5t-33 157z" />
    <glyph glyph-name="uni2462" unicode="&#x2462;" 
d="M758 -8q-60 -60 -138.5 -93.5t-169.5 -33.5t-170 33.5t-139 93.5t-93.5 139t-33.5 170t34 170t94 139t138.5 93.5t169.5 33.5q90 0 168.5 -33.5t138.5 -93.5t94.5 -139t34.5 -170t-34 -170t-94 -139zM363 205q0 -16 2.5 -37t10.5 -39q9 -19 26 -31.5t48 -12.5q29 0 58 24
t29 84q0 45 -22 71.5t-67 26.5h-30v51q24 0 43.5 3.5t33.5 13.5t22 26.5t8 43.5q0 43 -22.5 65t-48.5 22q-41 0 -57 -33q-16 -30 -19 -69h-67q5 86 46 123q43 37 98 37q30 0 55 -9.5t43.5 -27t29 -43t10.5 -56.5q0 -33 -8.5 -54.5t-20.5 -34.5q-11 -13 -22.5 -19t-17.5 -9
q8 -4 21.5 -10.5t26.5 -19.5q13 -14 22.5 -37t9.5 -59q0 -38 -11.5 -68.5t-31.5 -53t-49 -34.5t-63 -12q-69 0 -110 45t-44 133h68zM819 458q-32 73 -86 128q-55 54 -128 85.5t-155 31.5q-84 0 -157 -31.5t-127 -85.5q-55 -55 -87 -127.5t-32 -157.5t31.5 -157.5
t86.5 -127.5q55 -54 127.5 -85.5t157.5 -31.5q84 0 156.5 31.5t127.5 85.5q54 55 86 127.5t32 157.5t-33 157z" />
    <glyph glyph-name="uni2463" unicode="&#x2463;" 
d="M758 -8q-60 -60 -138.5 -93.5t-169.5 -33.5t-170 33.5t-139 93.5t-93.5 139t-33.5 170t34 170t94 139t138.5 93.5t169.5 33.5q90 0 168.5 -33.5t138.5 -93.5t94.5 -139t34.5 -170t-34 -170t-94 -139zM819 458q-32 73 -86 128q-55 54 -128 85.5t-155 31.5
q-84 0 -157 -31.5t-127 -85.5q-55 -55 -87 -127.5t-32 -157.5t31.5 -157.5t86.5 -127.5q55 -54 127.5 -85.5t157.5 -31.5q84 0 156.5 31.5t127.5 85.5q54 55 86 127.5t32 157.5t-33 157zM530 53h-67v122h-190v59l48 84l24 42t25 42q24 42 48 84.5t49 85.5h63v-338h54v-59
h-54v-122zM463 234v222l-32 -56q-8 -14 -16 -27.5t-16 -27.5q-17 -28 -33 -56t-31 -55h128z" />
    <glyph glyph-name="uni2464" unicode="&#x2464;" 
d="M758 -8q-60 -60 -138.5 -93.5t-169.5 -33.5t-170 33.5t-139 93.5t-93.5 139t-33.5 170t34 170t94 139t138.5 93.5t169.5 33.5q90 0 168.5 -33.5t138.5 -93.5t94.5 -139t34.5 -170t-34 -170t-94 -139zM606 -70q73 31 128 86q54 55 86 127.5t32 157.5t-32.5 157.5
t-86.5 127.5q-55 54 -128 85.5t-155 31.5q-84 0 -157 -31.5t-127 -85.5q-55 -55 -87 -127.5t-32 -157.5t31.5 -157.5t86.5 -127.5t127.5 -86.5t157.5 -31.5q84 0 156 32zM365 178q2 -15 6.5 -31t12.5 -30t22 -23t37 -9q24 0 41.5 12t28.5 30q11 19 16.5 42t5.5 45
q0 17 -4.5 37t-14.5 37t-25 28.5t-37 11.5q-8 0 -33 -9q-24 -7 -39 -38h-70l37 279h232v-58h-170l-20 -152q6 6 23 19t53 13q63 0 100 -47t37 -125q0 -84 -44 -133.5t-116 -49.5q-45 0 -72.5 16.5t-43.5 40.5q-17 24 -24 50t-8 44h69z" />
    <glyph glyph-name="uni2465" unicode="&#x2465;" 
d="M758 -8q-60 -60 -138.5 -93.5t-169.5 -33.5t-170 33.5t-139 93.5t-93.5 139t-33.5 170t34 170t94 139t138.5 93.5t169.5 33.5q90 0 168.5 -33.5t138.5 -93.5t94.5 -139t34.5 -170t-34 -170t-94 -139zM606 -70q73 31 128 86q54 55 86 127.5t32 157.5t-32.5 157.5
t-86.5 127.5q-55 54 -128 85.5t-155 31.5q-84 0 -157 -31.5t-127 -85.5q-55 -55 -87 -127.5t-32 -157.5t31.5 -157.5t86.5 -127.5t127.5 -86.5t157.5 -31.5q84 0 156 32zM528 440q-12 75 -67 75q-34 0 -53 -22.5t-29 -53.5q-10 -32 -12.5 -66t-2.5 -58q4 8 11 19.5t19 21.5
q12 11 29 18.5t43 7.5q20 0 44 -8t45 -27q21 -20 35 -52.5t14 -81.5q0 -89 -45 -138q-44 -48 -103 -48q-48 0 -79 25t-50 64q-18 39 -25 85.5t-7 89.5q0 52 9.5 108t31.5 96q28 49 64 64t61 15q27 0 50.5 -10.5t41.5 -28.5t29.5 -42.5t14.5 -52.5h-69zM453 85q31 0 56 30
t25 94q0 43 -18 81q-18 37 -61 37q-33 0 -58 -29.5t-25 -86.5q0 -16 3 -37.5t12 -41.5t24.5 -33.5t41.5 -13.5z" />
    <glyph glyph-name="uni2466" unicode="&#x2466;" 
d="M758 -8q-60 -60 -138.5 -93.5t-169.5 -33.5t-170 33.5t-139 93.5t-93.5 139t-33.5 170t34 170t94 139t138.5 93.5t169.5 33.5q90 0 168.5 -33.5t138.5 -93.5t94.5 -139t34.5 -170t-34 -170t-94 -139zM606 -70q73 31 128 86q54 55 86 127.5t32 157.5t-32.5 157.5
t-86.5 127.5q-55 54 -128 85.5t-155 31.5q-84 0 -157 -31.5t-127 -85.5q-55 -55 -87 -127.5t-32 -157.5t31.5 -157.5t86.5 -127.5t127.5 -86.5t157.5 -31.5q84 0 156 32zM368 22q6 95 43 213q37 121 120 246h-228v59h300v-59q-49 -69 -79.5 -131.5t-48.5 -119.5
q-18 -58 -26 -110t-11 -98h-70z" />
    <glyph glyph-name="uni2467" unicode="&#x2467;" 
d="M552 342q-12 -13 -30 -21q8 -5 21.5 -13t27.5 -24q13 -16 23 -40t10 -60q0 -34 -10 -63t-29.5 -50t-48.5 -32.5t-66 -11.5q-38 0 -67 12t-48.5 33t-29.5 50t-10 62t9 57t22 40q13 15 27 24.5t25 15.5q-37 16 -52 49t-15 66q0 28 9 53.5t26.5 44t43.5 29.5t60 11
q33 0 58.5 -11t43.5 -29.5t27 -44t9 -53.5q0 -16 -3.5 -33t-11.5 -32.5t-21 -28.5zM487 351q14 10 21 24t9.5 28.5t2.5 24.5q-1 40 -19 64t-51 24q-21 0 -35 -8.5t-21 -21.5q-8 -13 -11 -28.5t-3 -29.5q0 -40 18 -63.5t52 -23.5q23 0 37 10zM490 94q17 10 26 25
q10 15 14.5 33.5t4.5 35.5q0 42 -21.5 74t-63.5 32q-40 0 -62.5 -30.5t-22.5 -75.5q0 -18 4 -36t14 -33q9 -15 25.5 -24.5t41.5 -9.5q24 0 40 9zM758 -8q-60 -60 -138.5 -93.5t-169.5 -33.5t-170 33.5t-139 93.5t-93.5 139t-33.5 170t34 170t94 139t138.5 93.5t169.5 33.5
q90 0 168.5 -33.5t138.5 -93.5t94.5 -139t34.5 -170t-34 -170t-94 -139zM606 -70q73 31 128 86q54 55 86 127.5t32 157.5t-32.5 157.5t-86.5 127.5q-55 54 -128 85.5t-155 31.5q-84 0 -157 -31.5t-127 -85.5q-55 -55 -87 -127.5t-32 -157.5t31.5 -157.5t86.5 -127.5
t127.5 -86.5t157.5 -31.5q84 0 156 32z" />
    <glyph glyph-name="uni2468" unicode="&#x2468;" 
d="M758 -8q-60 -60 -138.5 -93.5t-169.5 -33.5t-170 33.5t-139 93.5t-93.5 139t-33.5 170t34 170t94 139t138.5 93.5t169.5 33.5q90 0 168.5 -33.5t138.5 -93.5t94.5 -139t34.5 -170t-34 -170t-94 -139zM606 -70q73 31 128 86q54 55 86 127.5t32 157.5t-32.5 157.5
t-86.5 127.5q-55 54 -128 85.5t-155 31.5q-84 0 -157 -31.5t-127 -85.5q-55 -55 -87 -127.5t-32 -157.5t31.5 -157.5t86.5 -127.5t127.5 -86.5t157.5 -31.5q84 0 156 32zM372 161q5 -39 22 -56.5t44 -17.5q33 0 52 21.5t28 52.5q10 31 12.5 65t4.5 60q-4 -8 -11 -19t-19 -22
t-29.5 -18.5t-41.5 -7.5q-21 0 -45.5 7.5t-45.5 27.5q-21 19 -34.5 51t-13.5 83q0 86 44 136t104 50q48 0 78.5 -25.5t48.5 -64.5q19 -39 26.5 -85.5t7.5 -88.5q0 -54 -10 -109.5t-31 -94.5q-29 -50 -66 -65q-37 -14 -59 -14q-57 0 -93 38.5t-43 95.5h70zM443 274
q35 0 59.5 31t24.5 85q0 15 -3.5 36.5t-12.5 41.5t-24.5 34t-40.5 14q-33 0 -57 -30t-24 -93q0 -57 21.5 -88t56.5 -31z" />
    <glyph glyph-name="uni2469" unicode="&#x2469;" 
d="M703 126q-17 -39 -46 -63.5t-75 -24.5q-48 0 -76.5 25t-44.5 64q-16 38 -21.5 84.5t-5.5 89.5q0 42 5.5 88.5t21.5 85.5q16 38 44.5 63.5t76.5 25.5q46 0 75 -25.5t46 -64.5q16 -38 22 -84.5t6 -88.5q0 -45 -6 -91t-22 -84zM582 93q26 0 42 19.5t25 49.5t12 67t3 72
q0 34 -3 70.5t-12 66.5t-25 49.5t-42 19.5t-42 -19t-25 -48q-10 -30 -13 -66.5t-3 -72.5q0 -19 1 -54t9 -69q8 -35 24.5 -60t48.5 -25zM758 -8q-60 -60 -138.5 -93.5t-169.5 -33.5t-170 33.5t-139 93.5t-93.5 139t-33.5 170t34 170t94 139t138.5 93.5t169.5 33.5
q90 0 168.5 -33.5t138.5 -93.5t94.5 -139t34.5 -170t-34 -170t-94 -139zM324 51h-67v369h-79v47q30 4 56 18q25 13 39 65h51v-499zM819 458q-32 73 -86 128q-55 54 -128 85.5t-155 31.5q-84 0 -157 -31.5t-127 -85.5q-55 -55 -87 -127.5t-32 -157.5t31.5 -157.5t86.5 -127.5
q55 -54 127.5 -85.5t157.5 -31.5q84 0 156.5 31.5t127.5 85.5q54 55 86 127.5t32 157.5t-33 157z" />
    <glyph glyph-name="uni246A" unicode="&#x246a;" 
d="M758 -8q-60 -60 -138.5 -93.5t-169.5 -33.5t-170 33.5t-139 93.5t-93.5 139t-33.5 170t34 170t94 139t138.5 93.5t169.5 33.5q90 0 168.5 -33.5t138.5 -93.5t94.5 -139t34.5 -170t-34 -170t-94 -139zM325 51h-67v369h-79v47q16 3 30.5 6.5t26 12.5t21 24t17.5 40h51v-499
zM658 51h-68v369h-79v47q16 3 30.5 6.5t26.5 12.5t21.5 24t16.5 40h52v-499zM819 458q-32 73 -86 128q-55 54 -128 85.5t-155 31.5q-84 0 -157 -31.5t-127 -85.5q-55 -55 -87 -127.5t-32 -157.5t31.5 -157.5t86.5 -127.5q55 -54 127.5 -85.5t157.5 -31.5q84 0 156.5 31.5
t127.5 85.5q54 55 86 127.5t32 157.5t-33 157z" />
    <glyph glyph-name="uni246B" unicode="&#x246b;" 
d="M758 -8q-60 -60 -138.5 -93.5t-169.5 -33.5t-170 33.5t-139 93.5t-93.5 139t-33.5 170t34 170t94 139t138.5 93.5t169.5 33.5q90 0 168.5 -33.5t138.5 -93.5t94.5 -139t34.5 -170t-34 -170t-94 -139zM312 51h-67v369h-79v47q16 3 30.5 6.5t26.5 12.5t21.5 24t16.5 40h51
v-499zM718 51h-297q3 34 10.5 60t19.5 48q13 23 31.5 44.5t43.5 46.5q24 22 47 38.5t40 33.5q18 17 28.5 38.5t10.5 54.5q0 45 -22.5 68.5t-46.5 23.5q-29 0 -45.5 -15.5t-25.5 -36.5q-8 -21 -10.5 -42t-2.5 -31h-66q1 36 10 69t26 58q18 25 45.5 40t67.5 15q23 0 47 -8
t44 -25q19 -18 32 -45.5t13 -69.5q0 -56 -24 -93q-23 -34 -80 -79q-35 -27 -55 -46.5t-31 -35.5t-16 -29t-9 -26h215v-56zM819 458q-32 73 -86 128q-55 54 -128 85.5t-155 31.5q-84 0 -157 -31.5t-127 -85.5q-55 -55 -87 -127.5t-32 -157.5t31.5 -157.5t86.5 -127.5
q55 -54 127.5 -85.5t157.5 -31.5q84 0 156.5 31.5t127.5 85.5q54 55 86 127.5t32 157.5t-33 157z" />
    <glyph glyph-name="uni246C" unicode="&#x246c;" 
d="M758 -8q-60 -60 -138.5 -93.5t-169.5 -33.5t-170 33.5t-139 93.5t-93.5 139t-33.5 170t34 170t94 139t138.5 93.5t169.5 33.5q90 0 168.5 -33.5t138.5 -93.5t94.5 -139t34.5 -170t-34 -170t-94 -139zM312 51h-67v369h-79v47q16 3 30.5 6.5t26.5 12.5t21.5 24t16.5 40h51
v-499zM486 208q0 -17 2.5 -37.5t10.5 -37.5q9 -17 25.5 -28.5t45.5 -11.5q12 0 27 4.5t27 15.5q13 12 22 32t9 52q0 43 -21 69t-64 26h-30v48q22 0 41 3.5t33 12.5t21.5 25.5t7.5 43.5q0 42 -18.5 62t-49.5 20q-39 0 -55 -31q-16 -30 -19 -67h-64q3 40 14.5 69.5t30 48.5
t43 28t51.5 9q57 0 94.5 -36t37.5 -96q0 -32 -8 -52t-18 -32q-11 -13 -22 -19t-18 -9q8 -3 21 -9t25 -19q13 -13 22 -35.5t9 -57.5q0 -36 -10.5 -65.5t-30 -51t-47.5 -33t-62 -11.5q-69 0 -106.5 44.5t-40.5 125.5h64zM819 458q-32 73 -86 128q-55 54 -128 85.5t-155 31.5
q-84 0 -157 -31.5t-127 -85.5q-55 -55 -87 -127.5t-32 -157.5t31.5 -157.5t86.5 -127.5q55 -54 127.5 -85.5t157.5 -31.5q84 0 156.5 31.5t127.5 85.5q54 55 86 127.5t32 157.5t-33 157z" />
    <glyph glyph-name="uni246D" unicode="&#x246d;" 
d="M668 51h-64v118h-183v57q46 79 93 162q23 40 46.5 80t47.5 82h60v-324h52v-57h-52v-118zM604 226v212q-32 -54 -63 -106t-61 -106h124zM758 -8q-60 -60 -138.5 -93.5t-169.5 -33.5t-170 33.5t-139 93.5t-93.5 139t-33.5 170t34 170t94 139t138.5 93.5t169.5 33.5
q90 0 168.5 -33.5t138.5 -93.5t94.5 -139t34.5 -170t-34 -170t-94 -139zM312 51h-67v369h-79v47q16 3 30.5 6.5t26.5 12.5t21.5 24t16.5 40h51v-499zM819 458q-32 73 -86 128q-55 54 -128 85.5t-155 31.5q-84 0 -157 -31.5t-127 -85.5q-55 -55 -87 -127.5t-32 -157.5
t31.5 -157.5t86.5 -127.5q55 -54 127.5 -85.5t157.5 -31.5q84 0 156.5 31.5t127.5 85.5q54 55 86 127.5t32 157.5t-33 157z" />
    <glyph glyph-name="uni246E" unicode="&#x246e;" 
d="M758 -8q-60 -60 -138.5 -93.5t-169.5 -33.5t-170 33.5t-139 93.5t-93.5 139t-33.5 170t34 170t94 139t138.5 93.5t169.5 33.5q90 0 168.5 -33.5t138.5 -93.5t94.5 -139t34.5 -170t-34 -170t-94 -139zM606 -70q73 31 128 86q54 55 86 127.5t32 157.5t-32.5 157.5
t-86.5 127.5q-55 54 -128 85.5t-155 31.5q-84 0 -157 -31.5t-127 -85.5q-55 -55 -87 -127.5t-32 -157.5t31.5 -157.5t86.5 -127.5t127.5 -86.5t157.5 -31.5q84 0 156 32zM487 182q3 -15 7.5 -31t12.5 -29t21.5 -21t34.5 -8q24 0 41.5 11.5t27.5 29.5q11 18 16 40t5 43
q0 18 -5.5 37t-15.5 36q-10 16 -24.5 26.5t-32.5 10.5q-5 0 -13.5 -1.5t-18.5 -6.5t-20.5 -14t-17.5 -24h-66q1 17 6 54.5t10 79.5t10 80t7 55h225v-56h-165q-2 -9 -4.5 -29.5t-5.5 -43.5q-3 -24 -5.5 -44.5t-3.5 -28.5q6 8 22.5 19.5t50.5 11.5q30 0 55 -12.5t42 -34
t26.5 -52t9.5 -66.5q0 -39 -11 -71.5t-31 -55.5t-49 -36t-65 -13q-46 0 -73.5 18t-42.5 43q-14 24 -19 48t-6 35h65zM312 51h-67v369h-79v47q16 3 30.5 6.5t26.5 12.5t21.5 24t16.5 40h51v-499z" />
    <glyph glyph-name="uni2474" unicode="&#x2474;" 
d="M497 12h-76v426h-90v56q34 4 63 21q30 17 46 74h57v-577zM723 -116q13 21 34 59.5t41 92.5t35 120.5t15 144.5t-15 144t-36 120q-20 54 -41.5 92.5t-34.5 60.5h37q63 -94 96.5 -199.5t33.5 -217.5q0 -115 -33.5 -219t-96.5 -198h-35zM143 -116q-64 94 -97 198t-33 219
q0 112 33 217.5t97 199.5h36q-14 -22 -35 -60.5t-42 -92.5q-20 -54 -34.5 -120t-14.5 -144t14.5 -144.5t34.5 -120.5q21 -54 42 -92.5t35 -59.5h-36z" />
    <glyph glyph-name="uni2475" unicode="&#x2475;" 
d="M617 12h-336q3 39 11.5 69.5t23.5 56.5q14 26 35 50.5t50 53.5q24 24 49.5 43.5t45.5 40.5q21 21 34.5 46t13.5 61q0 38 -20 73q-19 34 -59 34q-33 0 -51.5 -18t-28.5 -42q-9 -24 -12 -48t-3 -37h-76q2 36 11 73.5t28 67.5q20 30 51 49.5t79 19.5q26 0 53 -9t50 -29
q22 -20 36.5 -52.5t14.5 -80.5q0 -33 -6.5 -58.5t-20.5 -48.5t-36.5 -45.5t-54.5 -47.5q-39 -31 -61.5 -54t-34.5 -41q-13 -18 -18.5 -32.5t-9.5 -29.5h242v-65zM723 -116q13 21 34 59.5t41 92.5t35 120.5t15 144.5t-15 144t-36 120q-20 54 -41.5 92.5t-34.5 60.5h37
q63 -94 96.5 -199.5t33.5 -217.5q0 -115 -33.5 -219t-96.5 -198h-35zM143 -116q-64 94 -97 198t-33 219q0 112 33 217.5t97 199.5h36q-14 -22 -35 -60.5t-42 -92.5q-20 -54 -34.5 -120t-14.5 -144t14.5 -144.5t34.5 -120.5q21 -54 42 -92.5t35 -59.5h-36z" />
    <glyph glyph-name="uni2476" unicode="&#x2476;" 
d="M355 194q1 -18 3.5 -41t11.5 -44q10 -20 28.5 -34t52.5 -14q15 0 32 5.5t30 19.5q14 14 23 37t9 57q0 51 -23.5 81t-72.5 30h-33v55h26q43 0 67 28.5t24 70.5q0 39 -21 66t-54 27q-6 0 -19 -3t-27 -14t-26 -33.5t-15 -62.5h-72q2 49 16 83.5t35 55.5t48.5 31t57.5 10
q33 0 60.5 -10.5t47.5 -30.5t31 -48t11 -63q0 -28 -7 -50t-17.5 -38t-24 -26t-26.5 -15q9 -5 23.5 -12t29.5 -22q14 -15 24.5 -41t10.5 -66q0 -42 -12.5 -76.5t-34.5 -58.5t-53.5 -37.5t-68.5 -13.5q-34 0 -58.5 8t-40.5 20q-17 12 -27.5 26.5t-16.5 27.5q-17 33 -21.5 63
t-4.5 52h74zM723 -116q13 21 34 59.5t41 92.5t35 120.5t15 144.5t-15 144t-36 120q-20 54 -41.5 92.5t-34.5 60.5h37q63 -94 96.5 -199.5t33.5 -217.5q0 -115 -33.5 -219t-96.5 -198h-35zM143 -116q-64 94 -97 198t-33 219q0 112 33 217.5t97 199.5h36q-14 -22 -35 -60.5
t-42 -92.5q-20 -54 -34.5 -120t-14.5 -144t14.5 -144.5t34.5 -120.5q21 -54 42 -92.5t35 -59.5h-36z" />
    <glyph glyph-name="uni2477" unicode="&#x2477;" 
d="M541 12h-74v136h-208v66l213 375h69v-375h57v-66h-57v-136zM467 214v246q-18 -31 -35.5 -62t-34.5 -61q-18 -31 -35.5 -62t-34.5 -61h140zM723 -116q13 21 34 59.5t41 92.5t35 120.5t15 144.5t-15 144t-36 120q-20 54 -41.5 92.5t-34.5 60.5h37q63 -94 96.5 -199.5
t33.5 -217.5q0 -115 -33.5 -219t-96.5 -198h-35zM143 -116q-64 94 -97 198t-33 219q0 112 33 217.5t97 199.5h36q-14 -22 -35 -60.5t-42 -92.5q-20 -54 -34.5 -120t-14.5 -144t14.5 -144.5t34.5 -120.5q21 -54 42 -92.5t35 -59.5h-36z" />
    <glyph glyph-name="uni2478" unicode="&#x2478;" 
d="M357 164q2 -15 6.5 -33t13.5 -34q10 -15 25.5 -25.5t40.5 -10.5q27 0 46 13.5t31 34.5t17.5 46t5.5 49q0 20 -5.5 42.5t-15.5 40.5q-11 19 -27.5 31t-39.5 12q-20 0 -42.5 -12.5t-36.5 -39.5h-75q2 19 4.5 38t4.5 39l30 234h254v-64h-186q-6 -43 -11.5 -85t-10.5 -84
q3 4 9 10t15.5 12t23.5 10t33 4q35 0 63 -14.5t48 -40t30.5 -60.5t10.5 -77q0 -93 -49 -148q-48 -55 -126 -55q-53 0 -84 20.5t-48 48.5t-23 55.5t-7 42.5h75zM723 -116q13 21 34 59.5t41 92.5t35 120.5t15 144.5t-15 144t-36 120q-20 54 -41.5 92.5t-34.5 60.5h37
q63 -94 96.5 -199.5t33.5 -217.5q0 -115 -33.5 -219t-96.5 -198h-35zM143 -116q-64 94 -97 198t-33 219q0 112 33 217.5t97 199.5h36q-14 -22 -35 -60.5t-42 -92.5q-20 -54 -34.5 -120t-14.5 -144t14.5 -144.5t34.5 -120.5q21 -54 42 -92.5t35 -59.5h-36z" />
    <glyph glyph-name="uni2479" unicode="&#x2479;" 
d="M536 456q-6 42 -25.5 62.5t-48.5 20.5q-37 0 -57.5 -25t-31.5 -60q-10 -35 -13 -73t-3 -64q4 7 11.5 20t20.5 25q13 13 32.5 22t46.5 9q21 0 47 -9t49 -31q23 -21 39 -58t16 -92q0 -51 -13.5 -89.5t-36.5 -64.5q-22 -26 -51.5 -39.5t-60.5 -13.5q-52 0 -86 28t-54 71
t-28 95t-8 100q0 28 2.5 59t8.5 60.5t14.5 57t20.5 50.5q30 55 69 71q40 17 66 17q61 0 100 -45q40 -43 49 -104h-75zM453 61q34 0 61 32.5t27 104.5q0 22 -4 45.5t-14 42.5t-26 31.5t-41 12.5q-18 0 -34 -8t-29 -24.5t-20.5 -40.5t-7.5 -55q0 -19 3.5 -43.5t13.5 -45.5
q10 -22 27 -37t44 -15zM723 -116q13 21 34 59.5t41 92.5t35 120.5t15 144.5t-15 144t-36 120q-20 54 -41.5 92.5t-34.5 60.5h37q63 -94 96.5 -199.5t33.5 -217.5q0 -115 -33.5 -219t-96.5 -198h-35zM143 -116q-64 94 -97 198t-33 219q0 112 33 217.5t97 199.5h36
q-14 -22 -35 -60.5t-42 -92.5q-20 -54 -34.5 -120t-14.5 -144t14.5 -144.5t34.5 -120.5q21 -54 42 -92.5t35 -59.5h-36z" />
    <glyph glyph-name="uni247A" unicode="&#x247a;" 
d="M364 0q4 57 16 119.5t34 128t53.5 132.5t75.5 133h-248v64h326v-64q-34 -49 -64 -104t-54 -116q-33 -83 -45 -150q-6 -34 -10.5 -69.5t-6.5 -73.5h-77zM723 -116q13 21 34 59.5t41 92.5t35 120.5t15 144.5t-15 144t-36 120q-20 54 -41.5 92.5t-34.5 60.5h37
q63 -94 96.5 -199.5t33.5 -217.5q0 -115 -33.5 -219t-96.5 -198h-35zM143 -116q-64 94 -97 198t-33 219q0 112 33 217.5t97 199.5h36q-14 -22 -35 -60.5t-42 -92.5q-20 -54 -34.5 -120t-14.5 -144t14.5 -144.5t34.5 -120.5q21 -54 42 -92.5t35 -59.5h-36z" />
    <glyph glyph-name="uni247B" unicode="&#x247b;" 
d="M344 305q16 11 27 17q-10 5 -22.5 14.5t-23.5 25.5q-11 15 -18.5 37t-7.5 52q0 60 38 107q39 47 114 47q72 0 111 -46q39 -45 39 -108q0 -18 -4 -37.5t-12.5 -37t-22.5 -31.5t-33 -23q8 -5 23 -12.5t30 -24.5q15 -16 26 -44t11 -71q0 -38 -11.5 -69.5t-33 -54.5t-53 -36
t-70.5 -13q-42 0 -73.5 13t-53 36t-32.5 54.5t-11 69.5q0 36 10 62t24 44t29 29zM410 529q-15 -11 -23 -27q-9 -15 -11 -31.5t-2 -27.5q0 -45 20 -71.5t57 -26.5q25 0 40 11t23 27q7 16 9.5 32.5t2.5 27.5q0 42 -18.5 69.5t-56.5 27.5q-26 0 -41 -11zM361 134q5 -20 16 -36
q10 -17 28.5 -27t45.5 -10q26 0 43.5 10.5t28.5 26.5q10 17 15 37t5 39q0 47 -24 83q-22 37 -68 37q-45 0 -69.5 -34.5t-24.5 -85.5q0 -20 4 -40zM723 -116q13 21 34 59.5t41 92.5t35 120.5t15 144.5t-15 144t-36 120q-20 54 -41.5 92.5t-34.5 60.5h37q63 -94 96.5 -199.5
t33.5 -217.5q0 -115 -33.5 -219t-96.5 -198h-35zM143 -116q-64 94 -97 198t-33 219q0 112 33 217.5t97 199.5h36q-14 -22 -35 -60.5t-42 -92.5q-20 -54 -34.5 -120t-14.5 -144t14.5 -144.5t34.5 -120.5q21 -54 42 -92.5t35 -59.5h-36z" />
    <glyph glyph-name="uni247C" unicode="&#x247c;" 
d="M364 145q12 -83 74 -83q36 0 56.5 24.5t31.5 59.5q10 35 13 73t4 65q-4 -8 -12 -21t-21 -25t-32 -20.5t-45 -8.5q-23 0 -49.5 8.5t-49.5 30.5t-38 57.5t-15 92.5q0 49 13 88t35 65q48 54 114 54q51 0 85 -28.5t54 -71.5q20 -45 28.5 -95.5t8.5 -98.5q0 -30 -2.5 -61
t-8.5 -61t-14.5 -57t-20.5 -48q-32 -56 -70 -72t-65 -16q-30 0 -55 11t-44.5 30.5t-32.5 47t-17 60.5h75zM443 271q38 0 65 34.5t27 94.5q0 17 -4 41t-14 46t-27 37.5t-43 15.5q-36 0 -62.5 -34t-26.5 -104q0 -60 22.5 -95.5t62.5 -35.5zM723 -116q13 21 34 59.5t41 92.5
t35 120.5t15 144.5t-15 144t-36 120q-20 54 -41.5 92.5t-34.5 60.5h37q63 -94 96.5 -199.5t33.5 -217.5q0 -115 -33.5 -219t-96.5 -198h-35zM143 -116q-64 94 -97 198t-33 219q0 112 33 217.5t97 199.5h36q-14 -22 -35 -60.5t-42 -92.5q-20 -54 -34.5 -120t-14.5 -144
t14.5 -144.5t34.5 -120.5q21 -54 42 -92.5t35 -59.5h-36z" />
    <glyph glyph-name="uni247D" unicode="&#x247d;" 
d="M727 106q-18 -43 -49.5 -70.5t-82.5 -27.5q-52 0 -83.5 27.5t-49.5 70.5q-17 43 -23 95t-6 100t6 99.5t23 94.5q18 43 49.5 71t83.5 28q51 0 82.5 -28.5t49.5 -71.5q17 -43 23.5 -94t6.5 -99q0 -49 -6.5 -101t-23.5 -94zM596 69q27 0 44.5 21t27.5 55q10 33 14 74.5
t4 81.5q0 39 -4 80t-13 75q-10 33 -28 54.5t-46 21.5q-29 0 -46.5 -21.5t-27.5 -55.5q-10 -33 -13 -74t-3 -80q0 -21 1 -60t10 -77q8 -38 26.5 -66.5t53.5 -28.5zM316 23h-73v410h-87v53q32 6 61 21q28 16 43 72h56v-556zM723 -116q13 21 34 59.5t41 92.5t35 120.5t15 144.5
t-15 144t-36 120q-20 54 -41.5 92.5t-34.5 60.5h37q63 -94 96.5 -199.5t33.5 -217.5q0 -115 -33.5 -219t-96.5 -198h-35zM143 -116q-64 94 -97 198t-33 219q0 112 33 217.5t97 199.5h36q-14 -22 -35 -60.5t-42 -92.5q-20 -54 -34.5 -120t-14.5 -144t14.5 -144.5t34.5 -120.5
q21 -54 42 -92.5t35 -59.5h-36z" />
    <glyph glyph-name="uni247E" unicode="&#x247e;" 
d="M674 23h-73v410h-87v54q31 4 61 20q28 16 43 72h56v-556zM317 23h-73v410h-87v54q31 4 61 20q30 17 43 72h56v-556zM723 -116q13 21 34 59.5t41 92.5t35 120.5t15 144.5t-15 144t-36 120q-20 54 -41.5 92.5t-34.5 60.5h37q63 -94 96.5 -199.5t33.5 -217.5
q0 -115 -33.5 -219t-96.5 -198h-35zM143 -116q-64 94 -97 198t-33 219q0 112 33 217.5t97 199.5h36q-14 -22 -35 -60.5t-42 -92.5q-20 -54 -34.5 -120t-14.5 -144t14.5 -144.5t34.5 -120.5q21 -54 42 -92.5t35 -59.5h-36z" />
    <glyph glyph-name="uni247F" unicode="&#x247f;" 
d="M316 23h-73v410h-87v53q32 6 61 21q28 16 43 72h56v-556zM755 23h-324q3 37 10.5 66t21.5 54t34.5 49t49.5 52q25 25 50 43t44 37q20 19 32 42.5t12 61.5q0 16 -5 34t-14 34q-10 15 -24.5 25.5t-33.5 10.5q-32 0 -50 -17t-27 -40t-12 -46.5t-3 -36.5h-72q2 40 11.5 76.5
t28.5 64.5t48.5 44.5t74.5 16.5q25 0 51.5 -9t47.5 -28q21 -20 35 -51t14 -76q0 -59 -26 -102q-13 -21 -35 -43.5t-53 -47.5q-38 -30 -59.5 -52t-33.5 -39t-17.5 -31.5t-9.5 -29.5h234v-62zM723 -116q13 21 34 59.5t41 92.5t35 120.5t15 144.5t-15 144t-36 120
q-20 54 -41.5 92.5t-34.5 60.5h37q63 -94 96.5 -199.5t33.5 -217.5q0 -115 -33.5 -219t-96.5 -198h-35zM143 -116q-64 94 -97 198t-33 219q0 112 33 217.5t97 199.5h36q-14 -22 -35 -60.5t-42 -92.5q-20 -54 -34.5 -120t-14.5 -144t14.5 -144.5t34.5 -120.5q21 -54 42 -92.5
t35 -59.5h-36z" />
    <glyph glyph-name="uni2480" unicode="&#x2480;" 
d="M316 23h-73v410h-87v53q32 6 61 21q28 16 43 72h56v-556zM498 197q0 -17 2.5 -39.5t11.5 -41.5q9 -20 27.5 -33.5t50.5 -13.5q14 0 30.5 5t30.5 19q13 13 22.5 35.5t9.5 56.5q0 48 -23 77t-71 29h-32v53h25q42 0 65 27t23 69q0 46 -23.5 69t-50.5 23t-43 -13.5t-25 -31.5
q-8 -19 -11 -37.5t-3 -28.5h-70q3 49 18 82t36 53q22 20 48 29t51 9q31 0 58 -10.5t46 -29.5t30 -46t11 -60q0 -35 -9 -58t-21 -37t-24 -20.5t-19 -9.5q8 -4 22.5 -11t27.5 -22q14 -15 24 -39.5t10 -63.5q0 -41 -11.5 -74t-33 -56t-52 -36t-67.5 -13q-72 0 -115 47.5
t-46 141.5h70zM723 -116q13 21 34 59.5t41 92.5t35 120.5t15 144.5t-15 144t-36 120q-20 54 -41.5 92.5t-34.5 60.5h37q63 -94 96.5 -199.5t33.5 -217.5q0 -115 -33.5 -219t-96.5 -198h-35zM143 -116q-64 94 -97 198t-33 219q0 112 33 217.5t97 199.5h36q-14 -22 -35 -60.5
t-42 -92.5q-20 -54 -34.5 -120t-14.5 -144t14.5 -144.5t34.5 -120.5q21 -54 42 -92.5t35 -59.5h-36z" />
    <glyph glyph-name="uni2481" unicode="&#x2481;" 
d="M694 23h-71v131h-200v62l204 363h67v-363h56v-62h-56v-131zM623 216v238q-34 -60 -68 -119t-67 -119h135zM316 23h-73v410h-87v53q32 6 61 21q28 16 43 72h56v-556zM723 -116q13 21 34 59.5t41 92.5t35 120.5t15 144.5t-15 144t-36 120q-20 54 -41.5 92.5t-34.5 60.5h37
q63 -94 96.5 -199.5t33.5 -217.5q0 -115 -33.5 -219t-96.5 -198h-35zM143 -116q-64 94 -97 198t-33 219q0 112 33 217.5t97 199.5h36q-14 -22 -35 -60.5t-42 -92.5q-20 -54 -34.5 -120t-14.5 -144t14.5 -144.5t34.5 -120.5q21 -54 42 -92.5t35 -59.5h-36z" />
    <glyph glyph-name="uni2482" unicode="&#x2482;" 
d="M505 168q2 -15 6.5 -32.5t13.5 -32.5q8 -15 23 -24.5t39 -9.5q26 0 44.5 13t30.5 33t17.5 45t5.5 48q0 19 -5 40.5t-15 39.5q-11 18 -27 30t-38 12q-10 0 -35 -9q-27 -9 -43 -42h-72l38 300h245v-62h-180q-2 -10 -5 -33.5t-6 -48.5q-3 -26 -6 -49t-4 -32l9 9q7 7 15 11
q10 6 23.5 10t33.5 4q33 0 60 -13.5t45.5 -38t29 -58.5t10.5 -74q0 -44 -12 -80t-34.5 -61.5t-54 -40t-70.5 -14.5q-51 0 -80.5 19.5t-44.5 46.5q-16 27 -22 53.5t-7 40.5h72zM316 23h-73v410h-87v53q32 6 61 21q28 16 43 72h56v-556zM723 -116q13 21 34 59.5t41 92.5
t35 120.5t15 144.5t-15 144t-36 120q-20 54 -41.5 92.5t-34.5 60.5h37q63 -94 96.5 -199.5t33.5 -217.5q0 -115 -33.5 -219t-96.5 -198h-35zM143 -116q-64 94 -97 198t-33 219q0 112 33 217.5t97 199.5h36q-14 -22 -35 -60.5t-42 -92.5q-20 -54 -34.5 -120t-14.5 -144
t14.5 -144.5t34.5 -120.5q21 -54 42 -92.5t35 -59.5h-36z" />
    <glyph glyph-name="uni249C" unicode="&#x249c;" 
d="M697 -105q63 94 88.5 196.5t25.5 208.5q0 103 -25 207t-89 198h42q21 -28 44.5 -66.5t43.5 -89.5q19 -51 32.5 -112.5t13.5 -136.5q0 -76 -13.5 -138.5t-33.5 -113.5t-43.5 -89t-43.5 -64h-42zM161 -105q-21 26 -44.5 64t-43.5 89t-33 113.5t-13 138.5q0 75 13 136.5
t33 112.5q19 51 43 89.5t45 66.5h41q-64 -94 -88.5 -198t-24.5 -207q0 -106 25 -208.5t88 -196.5h-41zM576 71q-14 26 -14 58q-11 -14 -26.5 -27t-36 -24t-44 -17.5t-48.5 -6.5q-30 0 -55.5 8t-44 24.5t-29.5 41.5t-11 59q0 39 12.5 64.5t33.5 41.5q20 16 46.5 24t54.5 13
t54.5 8t46.5 10q21 6 34 17.5t13 32.5q0 13 -5 26t-16.5 23.5t-30 17t-45.5 6.5q-19 0 -37 -4.5t-32 -14.5q-14 -9 -22 -25t-5 -38h-79q-3 34 10 62.5t37 48.5q48 43 128 43q73 0 123 -39q24 -19 38.5 -46t14.5 -60v-256q0 -30 7 -50t8 -21h-80zM562 303q-8 -11 -27 -17.5
t-43 -10.5q-23 -4 -46 -7.5t-38 -8.5q-28 -11 -44 -27.5t-16 -41.5q0 -32 22 -45.5t51 -13.5q32 0 58 11t44 28q19 16 29 36t10 37v60z" />
    <glyph glyph-name="uni249D" unicode="&#x249d;" 
d="M697 -105q63 94 88.5 196.5t25.5 208.5q0 103 -25 207t-89 198h42q21 -28 44.5 -66.5t43.5 -89.5q19 -51 32.5 -112.5t13.5 -136.5q0 -76 -13.5 -138.5t-33.5 -113.5t-43.5 -89t-43.5 -64h-42zM161 -105q-21 26 -44.5 64t-43.5 89t-33 113.5t-13 138.5q0 75 13 136.5
t33 112.5q19 51 43 89.5t45 66.5h41q-64 -94 -88.5 -198t-24.5 -207q0 -106 25 -208.5t88 -196.5h-41zM346 -15h-79v625h79v-215q24 29 57 45.5t73 16.5q42 0 75.5 -18.5t58.5 -50.5q24 -32 37.5 -76.5t13.5 -98.5t-13.5 -99t-37.5 -77q-51 -68 -134 -68q-40 0 -73 16.5
t-57 45.5v-46zM510 59q22 13 37 35t23 52.5t8 66.5t-8 67t-23 53t-36.5 34.5t-48.5 12.5t-48.5 -12.5t-36.5 -34.5t-23 -53t-8 -67q0 -73 30.5 -119.5t85.5 -46.5q27 0 48 12z" />
    <glyph glyph-name="uni249E" unicode="&#x249e;" 
d="M161 -105q-21 26 -44.5 64t-43.5 89t-33 113.5t-13 138.5q0 75 13 136.5t33 112.5q19 51 43 89.5t45 66.5h41q-64 -94 -88.5 -198t-24.5 -207q0 -106 25 -208.5t88 -196.5h-41zM697 -105q63 94 88.5 196.5t25.5 208.5q0 103 -25 207t-89 198h42q21 -28 44.5 -66.5
t43.5 -89.5q19 -51 32.5 -112.5t13.5 -136.5q0 -76 -13.5 -138.5t-33.5 -113.5t-43.5 -89t-43.5 -64h-42zM646 210q-8 -30 -23 -58t-38 -50t-54.5 -34.5t-71.5 -12.5q-48 0 -84 19t-62 52q-25 33 -38.5 77.5t-13.5 95.5t13.5 95t38.5 77q26 33 62 52.5t84 19.5
q40 0 72.5 -14.5t56.5 -36.5q23 -22 38 -49.5t20 -54.5h-87q-6 23 -29 51q-22 28 -70 28q-54 0 -86 -50q-31 -49 -31 -118t31 -118t86 -49q42 0 66.5 24t32.5 54h87z" />
    <glyph glyph-name="uni249F" unicode="&#x249f;" 
d="M697 -105q63 94 88.5 196.5t25.5 208.5q0 103 -25 207t-89 198h42q21 -28 44.5 -66.5t43.5 -89.5q19 -51 32.5 -112.5t13.5 -136.5q0 -76 -13.5 -138.5t-33.5 -113.5t-43.5 -89t-43.5 -64h-42zM161 -105q-21 26 -44.5 64t-43.5 89t-33 113.5t-13 138.5q0 75 13 136.5
t33 112.5q19 51 43 89.5t45 66.5h41q-64 -94 -88.5 -198t-24.5 -207q0 -106 25 -208.5t88 -196.5h-41zM632 -12h-80v47q-24 -30 -57 -46.5t-72 -16.5q-42 0 -76.5 18t-58.5 50q-51 66 -51 176q0 109 51 175q24 32 58.5 50.5t76.5 18.5q39 0 72 -16t57 -45v215h80v-626z
M437 50q55 0 85 46.5t30 119.5q0 36 -7.5 67t-22.5 53t-36.5 34.5t-48.5 12.5q-28 0 -49.5 -12.5t-36.5 -34.5t-22.5 -53t-7.5 -67q0 -73 29.5 -119.5t86.5 -46.5z" />
    <glyph glyph-name="uni24A0" unicode="&#x24a0;" 
d="M161 -105q-21 26 -44.5 64t-43.5 89t-33 113.5t-13 138.5q0 75 13 136.5t33 112.5q19 51 43 89.5t45 66.5h41q-64 -94 -88.5 -198t-24.5 -207q0 -106 25 -208.5t88 -196.5h-41zM697 -105q63 94 88.5 196.5t25.5 208.5q0 103 -25 207t-89 198h42q21 -28 44.5 -66.5
t43.5 -89.5q19 -51 32.5 -112.5t13.5 -136.5q0 -76 -13.5 -138.5t-33.5 -113.5t-43.5 -89t-43.5 -64h-42zM633 192q-7 -24 -20.5 -49t-35.5 -44q-22 -20 -53 -32.5t-73 -12.5q-45 0 -81.5 19t-63.5 52t-41.5 77.5t-14.5 95.5t14 95t40 78q26 33 62.5 52.5t82.5 19.5
q40 0 77 -17t64 -51q28 -35 43.5 -86t13.5 -120h-312q0 -27 9 -51.5t25 -44.5q15 -19 35.5 -30.5t44.5 -11.5q21 0 37.5 5.5t28 14.5t19 20t10.5 21h89zM561 341q-5 50 -34 87q-29 38 -78 38q-48 0 -77 -35.5t-35 -89.5h224z" />
    <glyph glyph-name="uni24A1" unicode="&#x24a1;" 
d="M697 -105q63 94 88.5 196.5t25.5 208.5q0 103 -25 207t-89 198h42q21 -28 44.5 -66.5t43.5 -89.5q19 -51 32.5 -112.5t13.5 -136.5q0 -76 -13.5 -138.5t-33.5 -113.5t-43.5 -89t-43.5 -64h-42zM485 -11h-79v382h-51v71h51v51q0 118 87 118h49v-71q-36 0 -46.5 -14.5
t-10.5 -45.5v-38h57v-71h-57v-382zM161 -105q-21 26 -44.5 64t-43.5 89t-33 113.5t-13 138.5q0 75 13 136.5t33 112.5q19 51 43 89.5t45 66.5h41q-64 -94 -88.5 -198t-24.5 -207q0 -106 25 -208.5t88 -196.5h-41z" />
    <glyph glyph-name="uni24A2" unicode="&#x24a2;" 
d="M641 177q0 -54 -17 -89.5t-44 -57.5q-28 -22 -62 -31t-68 -9q-43 0 -77 12t-58 33q-24 20 -37.5 47t-14.5 56h80q1 -30 27.5 -53.5t80.5 -23.5t82.5 29.5t28.5 83.5v59q-51 -62 -130 -62q-40 0 -74 17t-59 48q-25 30 -39 70.5t-14 88.5q0 46 13.5 87t37.5 71
q25 30 59 47.5t76 17.5q39 0 72 -16t58 -43v43h79v-425zM697 -105q63 94 88.5 196.5t25.5 208.5q0 103 -25 207t-89 198h42q21 -28 44.5 -66.5t43.5 -89.5q19 -51 32.5 -112.5t13.5 -136.5q0 -76 -13.5 -138.5t-33.5 -113.5t-43.5 -89t-43.5 -64h-42zM161 -105
q-21 26 -44.5 64t-43.5 89t-33 113.5t-13 138.5q0 75 13 136.5t33 112.5q19 51 43 89.5t45 66.5h41q-64 -94 -88.5 -198t-24.5 -207q0 -106 25 -208.5t88 -196.5h-41zM445 248q52 0 84.5 40.5t32.5 106.5t-32.5 106t-84.5 40q-54 0 -84.5 -40t-30.5 -106t30.5 -106.5
t84.5 -40.5z" />
    <glyph glyph-name="uni24A3" unicode="&#x24a3;" 
d="M697 -105q63 94 88.5 196.5t25.5 208.5q0 103 -25 207t-89 198h42q21 -28 44.5 -66.5t43.5 -89.5q19 -51 32.5 -112.5t13.5 -136.5q0 -76 -13.5 -138.5t-33.5 -113.5t-43.5 -89t-43.5 -64h-42zM161 -105q-21 26 -44.5 64t-43.5 89t-33 113.5t-13 138.5q0 75 13 136.5
t33 112.5q19 51 43 89.5t45 66.5h41q-64 -94 -88.5 -198t-24.5 -207q0 -106 25 -208.5t88 -196.5h-41zM630 -14h-79v278q0 57 -20.5 83t-65.5 26q-23 0 -42 -9.5t-33 -26t-22 -38.5t-8 -48v-265h-79v626h79v-218q20 22 52 42.5t77 20.5q37 0 63.5 -14.5t43.5 -37.5
q17 -22 25.5 -49.5t8.5 -52.5v-317z" />
    <glyph glyph-name="uni24A4" unicode="&#x24a4;" 
d="M161 -105q-21 26 -44.5 64t-43.5 89t-33 113.5t-13 138.5q0 75 13 136.5t33 112.5q19 51 43 89.5t45 66.5h41q-64 -94 -88.5 -198t-24.5 -207q0 -106 25 -208.5t88 -196.5h-41zM697 -105q63 94 88.5 196.5t25.5 208.5q0 103 -25 207t-89 198h42q21 -28 44.5 -66.5
t43.5 -89.5q19 -51 32.5 -112.5t13.5 -136.5q0 -76 -13.5 -138.5t-33.5 -113.5t-43.5 -89t-43.5 -64h-42zM489 -13h-79v456h79v-456zM489 525h-79v88h79v-88z" />
    <glyph glyph-name="uni24A5" unicode="&#x24a5;" 
d="M161 -105q-21 26 -44.5 64t-43.5 89t-33 113.5t-13 138.5q0 75 13 136.5t33 112.5q19 51 43 89.5t45 66.5h41q-64 -94 -88.5 -198t-24.5 -207q0 -106 25 -208.5t88 -196.5h-41zM697 -105q63 94 88.5 196.5t25.5 208.5q0 103 -25 207t-89 198h42q21 -28 44.5 -66.5
t43.5 -89.5q19 -51 32.5 -112.5t13.5 -136.5q0 -76 -13.5 -138.5t-33.5 -113.5t-43.5 -89t-43.5 -64h-42zM503 600h-80v88h80v-88zM503 32q0 -33 -5 -54t-15 -34q-12 -14 -30.5 -22.5t-42.5 -8.5h-44v72q5 0 11 -0.5t12 0.5t11.5 3t10.5 7q8 8 10 21q1 6 1.5 13t0.5 16v469
h80v-482z" />
    <glyph glyph-name="uni24A6" unicode="&#x24a6;" 
d="M554 -12l-40 56q-10 14 -20 28.5t-20 28.5q-20 28 -40 56.5t-40 57.5l-47 -47v-180h-79v625h79v-345q21 21 42.5 43t42.5 44t42.5 44t43.5 44h95l-165 -171q24 -36 48.5 -71.5t49.5 -71.5q24 -35 48.5 -70.5t49.5 -70.5h-90zM697 -105q63 94 88.5 196.5t25.5 208.5
q0 103 -25 207t-89 198h42q21 -28 44.5 -66.5t43.5 -89.5q19 -51 32.5 -112.5t13.5 -136.5q0 -76 -13.5 -138.5t-33.5 -113.5t-43.5 -89t-43.5 -64h-42zM161 -105q-21 26 -44.5 64t-43.5 89t-33 113.5t-13 138.5q0 75 13 136.5t33 112.5q19 51 43 89.5t45 66.5h41
q-64 -94 -88.5 -198t-24.5 -207q0 -106 25 -208.5t88 -196.5h-41z" />
    <glyph glyph-name="uni24A7" unicode="&#x24a7;" 
d="M697 -105q63 94 88.5 196.5t25.5 208.5q0 103 -25 207t-89 198h42q21 -28 44.5 -66.5t43.5 -89.5q19 -51 32.5 -112.5t13.5 -136.5q0 -76 -13.5 -138.5t-33.5 -113.5t-43.5 -89t-43.5 -64h-42zM489 -13h-79v626h79v-626zM161 -105q-21 26 -44.5 64t-43.5 89t-33 113.5
t-13 138.5q0 75 13 136.5t33 112.5q19 51 43 89.5t45 66.5h41q-64 -94 -88.5 -198t-24.5 -207q0 -106 25 -208.5t88 -196.5h-41z" />
    <glyph glyph-name="uni24A8" unicode="&#x24a8;" 
d="M697 -105q63 94 88.5 196.5t25.5 208.5q0 103 -25 207t-89 198h42q21 -28 44.5 -66.5t43.5 -89.5q19 -51 32.5 -112.5t13.5 -136.5q0 -76 -13.5 -138.5t-33.5 -113.5t-43.5 -89t-43.5 -64h-42zM717 63h-79v290q0 48 -11.5 75t-49.5 27q-42 0 -65 -30.5t-23 -85.5v-276
h-79v290q0 48 -11 75t-49 27q-40 0 -64.5 -30.5t-24.5 -85.5v-276h-78v456h78v-51q9 10 19.5 22t24 22t31 16.5t40.5 6.5q33 0 59 -18t41 -53q6 8 15.5 20t23.5 23q14 12 33.5 20t46.5 8q34 0 57 -13t38 -34q14 -21 20.5 -49t6.5 -58v-318zM161 -105q-21 26 -44.5 64
t-43.5 89t-33 113.5t-13 138.5q0 75 13 136.5t33 112.5q19 51 43 89.5t45 66.5h41q-64 -94 -88.5 -198t-24.5 -207q0 -106 25 -208.5t88 -196.5h-41z" />
    <glyph glyph-name="uni24A9" unicode="&#x24a9;" 
d="M697 -105q63 94 88.5 196.5t25.5 208.5q0 103 -25 207t-89 198h42q21 -28 44.5 -66.5t43.5 -89.5q19 -51 32.5 -112.5t13.5 -136.5q0 -76 -13.5 -138.5t-33.5 -113.5t-43.5 -89t-43.5 -64h-42zM161 -105q-21 26 -44.5 64t-43.5 89t-33 113.5t-13 138.5q0 75 13 136.5
t33 112.5q19 51 43 89.5t45 66.5h41q-64 -94 -88.5 -198t-24.5 -207q0 -106 25 -208.5t88 -196.5h-41zM624 62h-79v279q0 57 -21.5 83t-64.5 26q-23 0 -42.5 -9.5t-33.5 -26t-22 -39t-8 -47.5v-266h-79v457h79v-49q20 24 52.5 44t77.5 20q36 0 63 -15t44 -38t25.5 -50.5
t8.5 -51.5v-317z" />
    <glyph glyph-name="uni24AA" unicode="&#x24aa;" 
d="M161 -105q-21 26 -44.5 64t-43.5 89t-33 113.5t-13 138.5q0 75 13 136.5t33 112.5q19 51 43 89.5t45 66.5h41q-64 -94 -88.5 -198t-24.5 -207q0 -106 25 -208.5t88 -196.5h-41zM697 -105q63 94 88.5 196.5t25.5 208.5q0 103 -25 207t-89 198h42q21 -28 44.5 -66.5
t43.5 -89.5q19 -51 32.5 -112.5t13.5 -136.5q0 -76 -13.5 -138.5t-33.5 -113.5t-43.5 -89t-43.5 -64h-42zM595 125q-26 -33 -62.5 -52t-82.5 -19q-48 0 -84 19t-62 52t-39.5 77.5t-13.5 95.5t13.5 95t39.5 78q26 33 62 52.5t84 19.5q46 0 82.5 -19.5t62.5 -52.5
q26 -34 40 -78t14 -95t-14 -95.5t-40 -77.5zM450 131q53 0 84 49q32 50 32 118t-32 118t-84 50q-53 0 -85 -50q-31 -49 -31 -118t31 -118t85 -49z" />
    <glyph glyph-name="uni24AB" unicode="&#x24ab;" 
d="M354 -3h-79v605h79v-46q24 29 57.5 45.5t72.5 16.5q42 0 76 -18.5t58 -50.5q25 -32 38.5 -76.5t13.5 -98.5t-13.5 -99t-38.5 -77q-24 -32 -58 -50t-76 -18q-80 0 -130 62v-195zM697 -105q63 94 88.5 196.5t25.5 208.5q0 103 -25 207t-89 198h42q21 -28 44.5 -66.5
t43.5 -89.5q19 -51 32.5 -112.5t13.5 -136.5q0 -76 -13.5 -138.5t-33.5 -113.5t-43.5 -89t-43.5 -64h-42zM161 -105q-21 26 -44.5 64t-43.5 89t-33 113.5t-13 138.5q0 75 13 136.5t33 112.5q19 51 43 89.5t45 66.5h41q-64 -94 -88.5 -198t-24.5 -207q0 -106 25 -208.5
t88 -196.5h-41zM471 208q54 0 84.5 45.5t30.5 120.5q0 36 -8 67t-22.5 53t-36 34.5t-48.5 12.5t-49 -12.5t-37 -34.5t-23 -53t-8 -67q0 -75 31 -120.5t86 -45.5z" />
    <glyph glyph-name="uni24AC" unicode="&#x24ac;" 
d="M622 -3h-79v195q-24 -30 -57 -46t-72 -16q-42 0 -76.5 18t-59.5 50q-51 66 -51 176q0 109 51 175q25 32 59.5 50.5t76.5 18.5q79 0 129 -62v46h79v-605zM697 -105q63 94 88.5 196.5t25.5 208.5q0 103 -25 207t-89 198h42q21 -28 44.5 -66.5t43.5 -89.5
q19 -51 32.5 -112.5t13.5 -136.5q0 -76 -13.5 -138.5t-33.5 -113.5t-43.5 -89t-43.5 -64h-42zM161 -105q-21 26 -44.5 64t-43.5 89t-33 113.5t-13 138.5q0 75 13 136.5t33 112.5q19 51 43 89.5t45 66.5h41q-64 -94 -88.5 -198t-24.5 -207q0 -106 25 -208.5t88 -196.5h-41z
M427 208q54 0 85 45.5t31 120.5q0 36 -8 67t-23 53t-36.5 34.5t-48.5 12.5t-48.5 -12.5t-36.5 -34.5t-23 -53t-8 -67q0 -75 30.5 -120.5t85.5 -45.5z" />
    <glyph glyph-name="uni24AD" unicode="&#x24ad;" 
d="M440 72h-79v456h79v-68q15 26 31 42t43 29q18 9 37.5 11t21.5 2v-88q-63 0 -98 -40.5t-35 -118.5v-225zM697 -105q63 94 88.5 196.5t25.5 208.5q0 103 -25 207t-89 198h42q21 -28 44.5 -66.5t43.5 -89.5q19 -51 32.5 -112.5t13.5 -136.5q0 -76 -13.5 -138.5t-33.5 -113.5
t-43.5 -89t-43.5 -64h-42zM161 -105q-21 26 -44.5 64t-43.5 89t-33 113.5t-13 138.5q0 75 13 136.5t33 112.5q19 51 43 89.5t45 66.5h41q-64 -94 -88.5 -198t-24.5 -207q0 -106 25 -208.5t88 -196.5h-41z" />
    <glyph glyph-name="uni24AE" unicode="&#x24ae;" 
d="M697 -105q63 94 88.5 196.5t25.5 208.5q0 103 -25 207t-89 198h42q21 -28 44.5 -66.5t43.5 -89.5q19 -51 32.5 -112.5t13.5 -136.5q0 -76 -13.5 -138.5t-33.5 -113.5t-43.5 -89t-43.5 -64h-42zM161 -105q-21 26 -44.5 64t-43.5 89t-33 113.5t-13 138.5q0 75 13 136.5
t33 112.5q19 51 43 89.5t45 66.5h41q-64 -94 -88.5 -198t-24.5 -207q0 -106 25 -208.5t88 -196.5h-41zM623 194q-2 -30 -16 -55t-36 -44t-51 -29.5t-62 -10.5q-54 0 -88.5 16.5t-55.5 41.5q-21 24 -30 51.5t-9 48.5h78q3 -35 27.5 -57.5t73.5 -22.5q42 0 64.5 18.5
t22.5 46.5q-1 23 -21 38t-48 24q-28 10 -57 17t-46 15q-36 15 -57 42.5t-21 69.5q0 25 9.5 49.5t29.5 44.5t49 32.5t71 12.5q40 0 70 -13.5t50 -33.5q20 -21 30 -46t10 -48h-77q0 9 -4 20t-13 21q-10 9 -26 16t-41 7q-43 0 -61 -18t-19 -36q0 -19 10.5 -31.5t28.5 -20.5
q18 -9 41 -15.5t47 -13.5q23 -7 46 -16.5t41 -24.5t29 -36.5t11 -52.5v-7z" />
    <glyph glyph-name="uni24AF" unicode="&#x24af;" 
d="M697 -105q63 94 88.5 196.5t25.5 208.5q0 103 -25 207t-89 198h42q21 -28 44.5 -66.5t43.5 -89.5q19 -51 32.5 -112.5t13.5 -136.5q0 -76 -13.5 -138.5t-33.5 -113.5t-43.5 -89t-43.5 -64h-42zM161 -105q-21 26 -44.5 64t-43.5 89t-33 113.5t-13 138.5q0 75 13 136.5
t33 112.5q19 51 43 89.5t45 66.5h41q-64 -94 -88.5 -198t-24.5 -207q0 -106 25 -208.5t88 -196.5h-41zM542 2h-49q-39 0 -63 28t-24 91v265h-50v72h50v138h79v-138h57v-72h-57v-252q0 -33 13 -46.5t44 -13.5v-72z" />
    <glyph glyph-name="uni24B0" unicode="&#x24b0;" 
d="M161 -105q-21 26 -44.5 64t-43.5 89t-33 113.5t-13 138.5q0 75 13 136.5t33 112.5q19 51 43 89.5t45 66.5h41q-64 -94 -88.5 -198t-24.5 -207q0 -106 25 -208.5t88 -196.5h-41zM697 -105q63 94 88.5 196.5t25.5 208.5q0 103 -25 207t-89 198h42q21 -28 44.5 -66.5
t43.5 -89.5q19 -51 32.5 -112.5t13.5 -136.5q0 -76 -13.5 -138.5t-33.5 -113.5t-43.5 -89t-43.5 -64h-42zM625 79h-79v53q-18 -27 -52.5 -48.5t-79.5 -20.5q-55 0 -97 42q-41 43 -41 118v312h80v-280q0 -58 23 -85t66 -24q43 2 72 33.5t29 91.5v264h79v-456z" />
    <glyph glyph-name="uni24B1" unicode="&#x24b1;" 
d="M697 -105q63 94 88.5 196.5t25.5 208.5q0 103 -25 207t-89 198h42q21 -28 44.5 -66.5t43.5 -89.5q19 -51 32.5 -112.5t13.5 -136.5q0 -76 -13.5 -138.5t-33.5 -113.5t-43.5 -89t-43.5 -64h-42zM404 72q-19 57 -38 113.5t-38 113.5t-38 113.5t-37 113.5h84l114 -354
l114 354h84q-20 -57 -39 -113.5t-37 -113.5q-19 -57 -38 -113.5t-38 -113.5h-93zM161 -105q-21 26 -44.5 64t-43.5 89t-33 113.5t-13 138.5q0 75 13 136.5t33 112.5q19 51 43 89.5t45 66.5h41q-64 -94 -88.5 -198t-24.5 -207q0 -106 25 -208.5t88 -196.5h-41z" />
    <glyph glyph-name="uni24B2" unicode="&#x24b2;" 
d="M525 70q-19 78 -37.5 156t-36.5 156q-5 -20 -9.5 -39t-9.5 -39l-18 -78q-5 -20 -9.5 -39t-9.5 -39l-18 -78h-87q-14 57 -28 113t-28 113q-15 57 -29 113.5t-27 113.5h79q9 -42 18.5 -82t19.5 -82t19.5 -82t19.5 -82l18 82q5 20 9.5 41t9.5 41l18 82q5 20 9.5 41t9.5 41
h86l18 -82q5 -20 9.5 -41t9.5 -41l18 -82q5 -20 9.5 -41t9.5 -41q9 42 18.5 82t19.5 82t19.5 82t19.5 82h79q-15 -57 -29 -113.5t-28 -113.5t-28 -113t-28 -113h-86zM697 -105q63 94 88.5 196.5t25.5 208.5q0 103 -25 207t-89 198h42q21 -28 44.5 -66.5t43.5 -89.5
q19 -51 32.5 -112.5t13.5 -136.5q0 -76 -13.5 -138.5t-33.5 -113.5t-43.5 -89t-43.5 -64h-42zM161 -105q-21 26 -44.5 64t-43.5 89t-33 113.5t-13 138.5q0 75 13 136.5t33 112.5q19 51 43 89.5t45 66.5h41q-64 -94 -88.5 -198t-24.5 -207q0 -106 25 -208.5t88 -196.5h-41z
" />
    <glyph glyph-name="uni24B3" unicode="&#x24b3;" 
d="M697 -105q63 94 88.5 196.5t25.5 208.5q0 103 -25 207t-89 198h42q21 -28 44.5 -66.5t43.5 -89.5q19 -51 32.5 -112.5t13.5 -136.5q0 -76 -13.5 -138.5t-33.5 -113.5t-43.5 -89t-43.5 -64h-42zM161 -105q-21 26 -44.5 64t-43.5 89t-33 113.5t-13 138.5q0 75 13 136.5
t33 112.5q19 51 43 89.5t45 66.5h41q-64 -94 -88.5 -198t-24.5 -207q0 -106 25 -208.5t88 -196.5h-41zM553 70q-26 40 -51.5 80.5t-50.5 80.5q-26 -40 -51.5 -80.5t-50.5 -80.5h-92q18 29 36.5 58t37.5 58q18 30 36.5 59t37.5 58q-36 55 -71 110.5t-70 110.5h92
q12 -19 23.5 -37.5t23.5 -36.5q12 -19 24 -37.5t24 -36.5q12 18 23.5 36.5t23.5 37.5q12 18 24 36.5t24 37.5h91q-36 -55 -71 -110.5t-70 -110.5q18 -29 36.5 -58t37.5 -59q19 -29 37.5 -58t37.5 -58h-92z" />
    <glyph glyph-name="uni24B4" unicode="&#x24b4;" 
d="M697 -105q63 94 88.5 196.5t25.5 208.5q0 103 -25 207t-89 198h42q21 -28 44.5 -66.5t43.5 -89.5q19 -51 32.5 -112.5t13.5 -136.5q0 -76 -13.5 -138.5t-33.5 -113.5t-43.5 -89t-43.5 -64h-42zM161 -105q-21 26 -44.5 64t-43.5 89t-33 113.5t-13 138.5q0 75 13 136.5
t33 112.5q19 51 43 89.5t45 66.5h41q-64 -94 -88.5 -198t-24.5 -207q0 -106 25 -208.5t88 -196.5h-41zM312 -8v72h39q15 0 25.5 8.5t16.5 21.5q7 13 11 27t8 26q-40 115 -80 229t-79 229h83q14 -43 28.5 -86t28.5 -85q14 -43 28.5 -86t29.5 -85q14 42 28.5 85t29.5 86
q14 42 28.5 85t29.5 86h81q-48 -135 -93.5 -267.5t-90.5 -267.5q-10 -27 -24 -42.5t-31 -23.5q-16 -8 -33 -10t-32 -2h-32z" />
    <glyph glyph-name="uni24B5" unicode="&#x24b5;" 
d="M631 71h-348v72q14 20 29 39t30 39l60 78q29 39 59 78.5t60 78.5h-217v72h313v-72q-60 -78 -119.5 -156.5t-119.5 -156.5h253v-72zM697 -105q63 94 88.5 196.5t25.5 208.5q0 103 -25 207t-89 198h42q21 -28 44.5 -66.5t43.5 -89.5q19 -51 32.5 -112.5t13.5 -136.5
q0 -76 -13.5 -138.5t-33.5 -113.5t-43.5 -89t-43.5 -64h-42zM161 -105q-21 26 -44.5 64t-43.5 89t-33 113.5t-13 138.5q0 75 13 136.5t33 112.5q19 51 43 89.5t45 66.5h41q-64 -94 -88.5 -198t-24.5 -207q0 -106 25 -208.5t88 -196.5h-41z" />
    <glyph glyph-name="uni24D0" unicode="&#x24d0;" 
d="M748 -3q-57 -58 -133.5 -91.5t-164.5 -33.5t-165 33.5t-135 91.5t-91 135.5t-33 167.5q0 88 33 166t91 136t135 92t165 34t164.5 -34t133.5 -92q58 -58 91.5 -136t33.5 -166q0 -90 -33.5 -167.5t-91.5 -135.5zM596 -53q68 30 119 82q51 51 80.5 120.5t29.5 150.5
q0 79 -29.5 148.5t-80.5 121.5t-119 82.5t-146 30.5t-146.5 -30.5t-119.5 -82.5t-80 -121.5t-29 -148.5q0 -81 29 -150.5t80 -120.5q51 -52 119.5 -82t146.5 -30t146 30zM621 166q0 -28 7 -45q6 -17 7 -18h-78q-4 5 -6.5 11t-4.5 12q-3 13 -3 28q-21 -24 -60.5 -45
t-90.5 -21q-57 0 -96.5 29t-39.5 89q0 34 12 57t32 37q21 14 46.5 21t52.5 11q27 5 52.5 8t46.5 9q20 5 32.5 15t12.5 29q0 12 -5 23.5t-16.5 21t-29.5 15.5t-43 6q-14 0 -31.5 -3.5t-32.5 -11.5t-23.5 -22t-5.5 -36h-77q-3 32 10.5 57.5t37.5 43.5t56 27.5t67 9.5
q34 0 65 -9.5t54 -26.5q24 -17 38 -41t14 -53v-228zM543 308q-8 -9 -26.5 -14t-41.5 -8q-22 -4 -44.5 -7t-37.5 -8q-27 -9 -42 -24.5t-15 -36.5q0 -30 21 -42.5t51 -12.5q31 0 56 10t42 25q18 15 27.5 32.5t9.5 32.5v53z" />
    <glyph glyph-name="uni24D1" unicode="&#x24d1;" 
d="M596 -53q68 30 119 82q51 51 80.5 120.5t29.5 150.5q0 79 -29.5 148.5t-80.5 121.5t-119 82.5t-146 30.5t-146.5 -30.5t-119.5 -82.5t-80 -121.5t-29 -148.5q0 -81 29 -150.5t80 -120.5q51 -52 119.5 -82t146.5 -30t146 30zM368 21h-78v558h78v-193q23 26 55 40.5
t71 14.5q82 0 131 -61q50 -61 50 -156t-50 -156q-50 -60 -131 -60q-78 0 -126 54v-41zM480 76q54 0 83.5 41t29.5 107t-29.5 107t-83.5 41t-83 -41t-29 -107t29 -107t83 -41zM748 -3q-57 -58 -133.5 -91.5t-164.5 -33.5t-165 33.5t-135 91.5t-91 135.5t-33 167.5
q0 88 33 166t91 136t135 92t165 34t164.5 -34t133.5 -92q58 -58 91.5 -136t33.5 -166q0 -90 -33.5 -167.5t-91.5 -135.5z" />
    <glyph glyph-name="uni24D2" unicode="&#x24d2;" 
d="M748 -4q-57 -58 -133.5 -91.5t-164.5 -33.5t-165 33.5t-135 91.5t-91 136t-33 168q0 88 33 166t91 136t135 92t165 34t164.5 -34t133.5 -92q58 -58 91.5 -136t33.5 -166q0 -90 -33.5 -168t-91.5 -136zM596 -53q68 30 119 82q51 51 80.5 120.5t29.5 150.5
q0 79 -29.5 148.5t-80.5 121.5t-119 82.5t-146 30.5t-146.5 -30.5t-119.5 -82.5t-80 -121.5t-29 -148.5q0 -81 29 -150.5t80 -120.5q51 -52 119.5 -82t146.5 -30t146 30zM638 220q-13 -53 -59 -97q-45 -42 -123 -42q-45 0 -81 17t-61 47q-26 29 -39 69t-13 85t13 84t39 69
q25 29 61 46.5t81 17.5q39 0 70.5 -13t54.5 -33q24 -20 38 -45t19 -49h-84q-5 20 -29 47q-22 25 -69 25q-52 0 -83 -45q-31 -43 -31 -104q0 -32 8 -59t23 -47.5t36 -32t47 -11.5q42 0 65.5 22t31.5 49h85z" />
    <glyph glyph-name="uni24D3" unicode="&#x24d3;" 
d="M748 -4q-57 -58 -133.5 -91.5t-164.5 -33.5t-165 33.5t-135 91.5t-91 136t-33 168q0 88 33 166t91 136t135 92t165 34t164.5 -34t133.5 -92q58 -58 91.5 -136t33.5 -166q0 -90 -33.5 -168t-91.5 -136zM596 -53q68 30 119 82q51 51 80.5 120.5t29.5 150.5
q0 79 -29.5 148.5t-80.5 121.5t-119 82.5t-146 30.5t-146.5 -30.5t-119.5 -82.5t-80 -121.5t-29 -148.5q0 -81 29 -150.5t80 -120.5q51 -52 119.5 -82t146.5 -30t146 30zM610 22h-77v41q-24 -26 -56 -40.5t-70 -14.5q-84 0 -133 60q-49 61 -49 157q0 95 49 156t133 61
q38 0 70 -14.5t56 -39.5v191h77v-557zM420 77q54 0 83.5 41t29.5 107t-29.5 107t-83.5 41t-83.5 -41t-29.5 -107t29.5 -107t83.5 -41z" />
    <glyph glyph-name="uni24D4" unicode="&#x24d4;" 
d="M748 -4q-57 -58 -133.5 -91.5t-164.5 -33.5t-165 33.5t-135 91.5t-91 136t-33 168q0 88 33 166t91 136t135 92t165 34t164.5 -34t133.5 -92q58 -58 91.5 -136t33.5 -166q0 -90 -33.5 -168t-91.5 -136zM596 -53q68 30 119 82q51 51 80.5 120.5t29.5 150.5
q0 79 -29.5 148.5t-80.5 121.5t-119 82.5t-146 30.5t-146.5 -30.5t-119.5 -82.5t-80 -121.5t-29 -148.5q0 -81 29 -150.5t80 -120.5q51 -52 119.5 -82t146.5 -30t146 30zM630 203q-7 -22 -20 -43.5t-34 -39.5q-22 -17 -51.5 -28t-71.5 -11q-45 0 -80.5 17t-61.5 47
q-26 29 -40 69t-14 85t13.5 84t38.5 69q26 29 61.5 46.5t80.5 17.5q39 0 75 -15.5t63 -45.5t42 -76t13 -107h-305q0 -24 9 -46t24 -39t35 -27.5t44 -10.5q21 0 36.5 5t27 13t18.5 17.5t10 18.5h87zM560 336q-2 22 -10.5 42.5t-22.5 36t-33 24.5t-43 9q-46 0 -75 -31.5
t-35 -80.5h219z" />
    <glyph glyph-name="uni24D5" unicode="&#x24d5;" 
d="M596 -53q68 30 119 82q51 51 80.5 120.5t29.5 150.5q0 79 -29.5 148.5t-80.5 121.5t-119 82.5t-146 30.5t-146.5 -30.5t-119.5 -82.5t-80 -121.5t-29 -148.5q0 -81 29 -150.5t80 -120.5q51 -52 119.5 -82t146.5 -30t146 30zM476 18h-77v340h-48v64h48v46q0 51 22.5 78
t62.5 27h48v-64q-33 1 -44.5 -10.5t-11.5 -43.5v-33h56v-64h-56v-340zM748 -3q-57 -58 -133.5 -91.5t-164.5 -33.5t-165 33.5t-135 91.5t-91 135.5t-33 167.5q0 88 33 166t91 136t135 92t165 34t164.5 -34t133.5 -92q58 -58 91.5 -136t33.5 -166q0 -90 -33.5 -167.5
t-91.5 -135.5z" />
    <glyph glyph-name="uni24D6" unicode="&#x24d6;" 
d="M748 -4q-57 -58 -133.5 -91.5t-164.5 -33.5t-165 33.5t-135 91.5t-91 136t-33 168q0 88 33 166t91 136t135 92t165 34t164.5 -34t133.5 -92q58 -58 91.5 -136t33.5 -166q0 -90 -33.5 -168t-91.5 -136zM596 -53q68 30 119 82q51 51 80.5 120.5t29.5 150.5
q0 79 -29.5 148.5t-80.5 121.5t-119 82.5t-146 30.5t-146.5 -30.5t-119.5 -82.5t-80 -121.5t-29 -148.5q0 -81 29 -150.5t80 -120.5q51 -52 119.5 -82t146.5 -30t146 30zM625 186q0 -48 -16.5 -80.5t-43.5 -51.5q-26 -20 -59 -28t-66 -8q-85 0 -132 40q-48 40 -51 93h77
q2 -26 29 -47t78 -21q52 0 79.5 25.5t27.5 74.5v53q-25 -27 -57.5 -41.5t-68.5 -14.5q-39 0 -72.5 15.5t-57.5 42.5q-25 27 -38.5 63t-13.5 78t13 78t37 63t57 42.5t75 15.5q37 0 69.5 -14t56.5 -39v39h77v-378zM435 250q51 0 82 35.5t31 93.5t-31 94t-82 36t-82 -36
t-31 -94t31 -93.5t82 -35.5z" />
    <glyph glyph-name="uni24D7" unicode="&#x24d7;" 
d="M748 -4q-57 -58 -133.5 -91.5t-164.5 -33.5t-165 33.5t-135 91.5t-91 136t-33 168q0 88 33 166t91 136t135 92t165 34t164.5 -34t133.5 -92q58 -58 91.5 -136t33.5 -166q0 -90 -33.5 -168t-91.5 -136zM596 -53q68 30 119 82q51 51 80.5 120.5t29.5 150.5
q0 79 -29.5 148.5t-80.5 121.5t-119 82.5t-146 30.5t-146.5 -30.5t-119.5 -82.5t-80 -121.5t-29 -148.5q0 -81 29 -150.5t80 -120.5q51 -52 119.5 -82t146.5 -30t146 30zM620 20h-78v249q0 97 -83 97q-22 0 -41 -8.5t-32.5 -23.5t-21 -35t-7.5 -42v-237h-79v557h79v-193
q21 22 57.5 41t88.5 14q30 -3 52 -17.5t36 -33.5q15 -20 22 -43t7 -43v-282z" />
    <glyph glyph-name="uni24D8" unicode="&#x24d8;" 
d="M748 -4q-57 -58 -133.5 -91.5t-164.5 -33.5t-165 33.5t-135 91.5t-91 136t-33 168q0 88 33 166t91 136t135 92t165 34t164.5 -34t133.5 -92q58 -58 91.5 -136t33.5 -166q0 -90 -33.5 -168t-91.5 -136zM596 -53q68 30 119 82q51 51 80.5 120.5t29.5 150.5
q0 79 -29.5 148.5t-80.5 121.5t-119 82.5t-146 30.5t-146.5 -30.5t-119.5 -82.5t-80 -121.5t-29 -148.5q0 -81 29 -150.5t80 -120.5q51 -52 119.5 -82t146.5 -30t146 30zM488 20h-75v406h75v-406zM488 499h-75v78h75v-78z" />
    <glyph glyph-name="uni24D9" unicode="&#x24d9;" 
d="M748 -4q-57 -58 -133.5 -91.5t-164.5 -33.5t-165 33.5t-135 91.5t-91 136t-33 168q0 88 33 166t91 136t135 92t165 34t164.5 -34t133.5 -92q58 -58 91.5 -136t33.5 -166q0 -90 -33.5 -168t-91.5 -136zM596 -53q68 30 119 82q51 51 80.5 120.5t29.5 150.5
q0 79 -29.5 148.5t-80.5 121.5t-119 82.5t-146 30.5t-146.5 -30.5t-119.5 -82.5t-80 -121.5t-29 -148.5q0 -81 29 -150.5t80 -120.5q51 -52 119.5 -82t146.5 -30t146 30zM504 551h-78v79h78v-79zM504 74q0 -30 -6 -48.5t-16 -29.5q-10 -12 -28 -20t-41 -8h-43v64
q5 0 10.5 -0.5t11.5 0.5t11.5 3t10.5 7q9 8 10.5 18t1.5 26v392h78v-404z" />
    <glyph glyph-name="uni24DA" unicode="&#x24da;" 
d="M748 -3q-57 -58 -133.5 -91.5t-164.5 -33.5t-165 33.5t-135 91.5t-91 135.5t-33 167.5q0 88 33 166t91 136t135 92t165 34t164.5 -34t133.5 -92q58 -58 91.5 -136t33.5 -166q0 -90 -33.5 -167.5t-91.5 -135.5zM596 -53q68 30 119 82q51 51 80.5 120.5t29.5 150.5
q0 79 -29.5 148.5t-80.5 121.5t-119 82.5t-146 30.5t-146.5 -30.5t-119.5 -82.5t-80 -121.5t-29 -148.5q0 -81 29 -150.5t80 -120.5q51 -52 119.5 -82t146.5 -30t146 30zM555 21l-156 204l-22 -22q-4 -3 -12 -11l-10 -10v-161h-77v557h77v-307l165 156h94q-21 -20 -41 -39
t-40 -37q-11 -10 -21 -19t-20 -19l-40 -38q11 -16 23 -32l24 -32l48 -64q48 -65 96 -126h-88z" />
    <glyph glyph-name="uni24DB" unicode="&#x24db;" 
d="M596 -53q68 30 119 82q51 51 80.5 120.5t29.5 150.5q0 79 -29.5 148.5t-80.5 121.5t-119 82.5t-146 30.5t-146.5 -30.5t-119.5 -82.5t-80 -121.5t-29 -148.5q0 -81 29 -150.5t80 -120.5q51 -52 119.5 -82t146.5 -30t146 30zM487 21h-75v558h75v-558zM748 -3
q-57 -58 -133.5 -91.5t-164.5 -33.5t-165 33.5t-135 91.5t-91 135.5t-33 167.5q0 88 33 166t91 136t135 92t165 34t164.5 -34t133.5 -92q58 -58 91.5 -136t33.5 -166q0 -90 -33.5 -167.5t-91.5 -135.5z" />
    <glyph glyph-name="uni24DC" unicode="&#x24dc;" 
d="M596 -53q68 30 119 82q51 51 80.5 120.5t29.5 150.5q0 79 -29.5 148.5t-80.5 121.5t-119 82.5t-146 30.5t-146.5 -30.5t-119.5 -82.5t-80 -121.5t-29 -148.5q0 -81 29 -150.5t80 -120.5q51 -52 119.5 -82t146.5 -30t146 30zM712 93h-79v258q0 42 -11 66.5t-47 24.5
q-40 0 -64 -27.5t-24 -76.5v-245h-74v258q0 42 -11.5 66.5t-49.5 24.5q-39 0 -62 -26.5t-23 -77.5v-245h-78v406h78v-45q7 9 17 19.5t23 19t30 14.5t38 6q31 0 58.5 -15.5t41.5 -48.5q5 7 14.5 18t23.5 21t33.5 17.5t46.5 7.5q66 0 92 -42q27 -41 27 -95v-283zM748 -3
q-57 -58 -133.5 -91.5t-164.5 -33.5t-165 33.5t-135 91.5t-91 135.5t-33 167.5q0 88 33 166t91 136t135 92t165 34t164.5 -34t133.5 -92q58 -58 91.5 -136t33.5 -166q0 -90 -33.5 -167.5t-91.5 -135.5z" />
    <glyph glyph-name="uni24DD" unicode="&#x24dd;" 
d="M596 -53q68 30 119 82q51 51 80.5 120.5t29.5 150.5q0 79 -29.5 148.5t-80.5 121.5t-119 82.5t-146 30.5t-146.5 -30.5t-119.5 -82.5t-80 -121.5t-29 -148.5q0 -81 29 -150.5t80 -120.5q51 -52 119.5 -82t146.5 -30t146 30zM621 88h-78v247q0 51 -20.5 74t-62.5 23
q-45 0 -73.5 -30.5t-28.5 -78.5v-235h-79v405h79v-42q19 20 51 38.5t78 18.5q34 0 59.5 -13.5t41.5 -34.5q17 -20 25 -44.5t8 -46.5v-281zM748 -3q-57 -58 -133.5 -91.5t-164.5 -33.5t-165 33.5t-135 91.5t-91 135.5t-33 167.5q0 88 33 166t91 136t135 92t165 34t164.5 -34
t133.5 -92q58 -58 91.5 -136t33.5 -166q0 -90 -33.5 -167.5t-91.5 -135.5z" />
    <glyph glyph-name="uni24DE" unicode="&#x24de;" 
d="M748 -4q-57 -58 -133.5 -91.5t-164.5 -33.5t-165 33.5t-135 91.5t-91 136t-33 168q0 88 33 166t91 136t135 92t165 34t164.5 -34t133.5 -92q58 -58 91.5 -136t33.5 -166q0 -90 -33.5 -168t-91.5 -136zM596 -53q68 30 119 82q51 51 80.5 120.5t29.5 150.5
q0 79 -29.5 148.5t-80.5 121.5t-119 82.5t-146 30.5t-146.5 -30.5t-119.5 -82.5t-80 -121.5t-29 -148.5q0 -81 29 -150.5t80 -120.5q51 -52 119.5 -82t146.5 -30t146 30zM592 145q-25 -30 -60.5 -47t-80.5 -17q-46 0 -82 17t-61 47q-25 29 -38 69t-13 85t13 84.5t38 68.5
t61 46.5t82 17.5q45 0 80.5 -17.5t60.5 -46.5t38.5 -68.5t13.5 -84.5t-13.5 -85t-38.5 -69zM451 149q50 0 82 44q31 43 31 106q0 61 -31 104q-32 45 -82 45q-52 0 -83 -45q-31 -43 -31 -104q0 -63 31 -106q32 -44 83 -44z" />
    <glyph glyph-name="uni24DF" unicode="&#x24df;" 
d="M596 -53q68 30 119 82q51 51 80.5 120.5t29.5 150.5q0 79 -29.5 148.5t-80.5 121.5t-119 82.5t-146 30.5t-146.5 -30.5t-119.5 -82.5t-80 -121.5t-29 -148.5q0 -81 29 -150.5t80 -120.5q51 -52 119.5 -82t146.5 -30t146 30zM360 28h-77v538h77v-41q23 26 55.5 40.5
t71.5 14.5q82 0 131 -61q50 -61 50 -155q0 -48 -13.5 -88.5t-36.5 -68.5q-24 -29 -57.5 -45t-73.5 -16q-79 0 -127 56v-174zM473 215q54 0 84 41.5t30 107.5q0 64 -30 105.5t-84 41.5t-83.5 -41.5t-29.5 -105.5q0 -66 29.5 -107.5t83.5 -41.5zM748 -3q-57 -58 -133.5 -91.5
t-164.5 -33.5t-165 33.5t-135 91.5t-91 135.5t-33 167.5q0 88 33 166t91 136t135 92t165 34t164.5 -34t133.5 -92q58 -58 91.5 -136t33.5 -166q0 -90 -33.5 -167.5t-91.5 -135.5z" />
    <glyph glyph-name="uni24E0" unicode="&#x24e0;" 
d="M748 -4q-57 -58 -133.5 -91.5t-164.5 -33.5t-165 33.5t-135 91.5t-91 136t-33 168q0 88 33 166t91 136t135 92t165 34t164.5 -34t133.5 -92q58 -58 91.5 -136t33.5 -166q0 -90 -33.5 -168t-91.5 -136zM596 -53q68 30 119 82q51 51 80.5 120.5t29.5 150.5
q0 79 -29.5 148.5t-80.5 121.5t-119 82.5t-146 30.5t-146.5 -30.5t-119.5 -82.5t-80 -121.5t-29 -148.5q0 -81 29 -150.5t80 -120.5q51 -52 119.5 -82t146.5 -30t146 30zM608 30h-77v174q-24 -27 -56.5 -41.5t-70.5 -14.5q-42 0 -75 16t-56 44q-24 29 -37 69t-13 88
q0 95 50 156q49 61 131 61q78 0 127 -55v41h77v-538zM464 228q21 11 36 30.5t23 46.5t8 60t-8 60t-23 46.5t-36 30.5t-46 11q-54 0 -84 -41t-30 -107t30 -107t84 -41q25 0 46 11z" />
    <glyph glyph-name="uni24E1" unicode="&#x24e1;" 
d="M596 -53q68 30 119 82q51 51 80.5 120.5t29.5 150.5q0 79 -29.5 148.5t-80.5 121.5t-119 82.5t-146 30.5t-146.5 -30.5t-119.5 -82.5t-80 -121.5t-29 -148.5q0 -81 29 -150.5t80 -120.5q51 -52 119.5 -82t146.5 -30t146 30zM451 81h-77v405h77v-60q21 35 52.5 54t76.5 20
v-77q-60 0 -94.5 -36.5t-34.5 -105.5v-200zM748 -3q-57 -58 -133.5 -91.5t-164.5 -33.5t-165 33.5t-135 91.5t-91 135.5t-33 167.5q0 88 33 166t91 136t135 92t165 34t164.5 -34t133.5 -92q58 -58 91.5 -136t33.5 -166q0 -90 -33.5 -167.5t-91.5 -135.5z" />
    <glyph glyph-name="uni24E2" unicode="&#x24e2;" 
d="M596 -53q68 30 119 82q51 51 80.5 120.5t29.5 150.5q0 79 -29.5 148.5t-80.5 121.5t-119 82.5t-146 30.5t-146.5 -30.5t-119.5 -82.5t-80 -121.5t-29 -148.5q0 -81 29 -150.5t80 -120.5q51 -52 119.5 -82t146.5 -30t146 30zM619 207q-2 -27 -15.5 -50t-35.5 -40
q-22 -16 -51 -25.5t-61 -9.5q-51 0 -85 15t-54 37t-28.5 46.5t-8.5 42.5h75q3 -31 27 -51t72 -20q42 0 63.5 16t21.5 42q0 20 -19.5 33t-46.5 22t-55.5 15t-46.5 14q-36 13 -56.5 37.5t-20.5 63.5q0 22 10 43.5t30 38.5t48.5 28t66.5 11q40 0 69.5 -12t49.5 -30
q19 -18 29 -40t10 -43h-76q0 14 -17 36q-17 21 -65 21q-23 0 -37.5 -5.5t-23.5 -13.5t-12.5 -17t-3.5 -17q0 -16 10.5 -26.5t27.5 -17.5t39.5 -12t45.5 -11q23 -7 45.5 -15t39.5 -21t28 -32.5t11 -46.5v-6zM748 -3q-57 -58 -133.5 -91.5t-164.5 -33.5t-165 33.5t-135 91.5
t-91 135.5t-33 167.5q0 88 33 166t91 136t135 92t165 34t164.5 -34t133.5 -92q58 -58 91.5 -136t33.5 -166q0 -90 -33.5 -167.5t-91.5 -135.5z" />
    <glyph glyph-name="uni24E3" unicode="&#x24e3;" 
d="M596 -53q68 30 119 82q51 51 80.5 120.5t29.5 150.5q0 79 -29.5 148.5t-80.5 121.5t-119 82.5t-146 30.5t-146.5 -30.5t-119.5 -82.5t-80 -121.5t-29 -148.5q0 -81 29 -150.5t80 -120.5q51 -52 119.5 -82t146.5 -30t146 30zM536 35h-48q-39 0 -61.5 26.5t-22.5 80.5v236
h-48v65h48v122h77v-122h55v-65h-55v-223q0 -31 10 -43t45 -11v-66zM748 -3q-57 -58 -133.5 -91.5t-164.5 -33.5t-165 33.5t-135 91.5t-91 135.5t-33 167.5q0 88 33 166t91 136t135 92t165 34t164.5 -34t133.5 -92q58 -58 91.5 -136t33.5 -166q0 -90 -33.5 -167.5
t-91.5 -135.5z" />
    </font>
</defs>
</svg>
